<svg width="18" height="18" viewBox="0 0 18 18" fill="none" xmlns="http://www.w3.org/2000/svg">
<path d="M0.0986301 9.00027C0.0986301 4.08418 4.08391 0.0989048 9 0.0989048C13.9161 0.0989048 17.9014 4.08418 17.9014 9.00027C17.9014 13.9164 13.9161 17.9016 9 17.9016C4.08391 17.9016 0.0986301 13.9164 0.0986301 9.00027Z" fill="url(#paint0_linear_113_21389)"/>
<path d="M0.0986301 9.00027C0.0986301 4.08418 4.08391 0.0989048 9 0.0989048C13.9161 0.0989048 17.9014 4.08418 17.9014 9.00027C17.9014 13.9164 13.9161 17.9016 9 17.9016C4.08391 17.9016 0.0986301 13.9164 0.0986301 9.00027Z" stroke="#252A2D" stroke-width="0.19726"/>
<path fill-rule="evenodd" clip-rule="evenodd" d="M1.76691 9.00025C1.76691 5.00565 5.00516 1.76739 8.99976 1.76739C12.9943 1.76739 16.2326 5.00565 16.2326 9.00025C16.2326 12.9948 12.9943 16.2331 8.99976 16.2331C5.00516 16.2331 1.76691 12.9948 1.76691 9.00025ZM8.99976 1.10986C4.64202 1.10986 1.10938 4.64251 1.10938 9.00025C1.10938 13.358 4.64202 16.8907 8.99976 16.8907C13.3575 16.8907 16.8902 13.358 16.8902 9.00025C16.8902 4.64251 13.3575 1.10986 8.99976 1.10986ZM6.10024 5.70844C6.02044 5.70844 5.94392 5.74008 5.88754 5.79647L4.43327 7.24954C4.33844 7.34436 4.40553 7.50643 4.53961 7.50643H11.8992C11.979 7.50643 12.0555 7.47479 12.1119 7.4184L13.5661 5.96533C13.6609 5.87051 13.5938 5.70844 13.4598 5.70844H6.10024ZM6.10024 11.1371C6.02044 11.1371 5.94392 11.1687 5.88754 11.2251L4.43327 12.6783C4.33844 12.773 4.40553 12.9351 4.53961 12.9351H11.8992C11.979 12.9351 12.0555 12.9035 12.1119 12.8471L13.5661 11.394C13.6609 11.2992 13.5938 11.1371 13.4598 11.1371H6.10024ZM12.1119 8.49356C12.0555 8.43718 11.979 8.40548 11.8992 8.40548H8.21943H4.53961C4.40553 8.40548 4.33844 8.56761 4.43327 8.66236L5.88754 10.1155C5.94392 10.1718 6.02044 10.2035 6.10024 10.2035H13.4598C13.5938 10.2035 13.6609 10.0414 13.5661 9.94663L12.1119 8.49356Z" fill="url(#paint1_linear_113_21389)"/>
<defs>
<linearGradient id="paint0_linear_113_21389" x1="9" y1="0.000274658" x2="9" y2="18.0003" gradientUnits="userSpaceOnUse">
<stop stop-color="#00140E"/>
<stop offset="1" stop-color="#023224"/>
</linearGradient>
<linearGradient id="paint1_linear_113_21389" x1="8.99978" y1="1.10986" x2="9.00601" y2="14.5003" gradientUnits="userSpaceOnUse">
<stop stop-color="white"/>
<stop offset="1" stop-color="#CDDACD"/>
</linearGradient>
</defs>
</svg>
