<svg width="18" height="18" viewBox="0 0 18 18" fill="none" xmlns="http://www.w3.org/2000/svg">
<g clip-path="url(#clip0_7626_13733)">
<path d="M0 9C0 4.02944 4.02944 0 9 0V0C13.9706 0 18 4.02944 18 9V9C18 13.9706 13.9706 18 9 18V18C4.02944 18 0 13.9706 0 9V9Z" fill="url(#paint0_linear_7626_13733)"/>
<path d="M18 9C18 13.9706 13.9706 18 9 18C4.02944 18 0 13.9706 0 9C0 4.02944 4.02944 0 9 0C13.9706 0 18 4.02944 18 9ZM0.194348 9C0.194348 13.8632 4.13677 17.8057 9 17.8057C13.8632 17.8057 17.8057 13.8632 17.8057 9C17.8057 4.13677 13.8632 0.194348 9 0.194348C4.13677 0.194348 0.194348 4.13677 0.194348 9Z" fill="#252A2D"/>
<g clip-path="url(#clip1_7626_13733)">
<path d="M12.4768 10.4246L11.322 11.5103C11.297 11.5339 11.2666 11.5527 11.2328 11.5655C11.1991 11.5784 11.1627 11.585 11.1259 11.585H5.652C5.62588 11.585 5.60033 11.5783 5.57849 11.5657C5.55665 11.5532 5.53946 11.5353 5.52905 11.5143C5.51864 11.4933 5.51546 11.4701 5.51989 11.4475C5.52432 11.4249 5.53617 11.404 5.55399 11.3873L6.70957 10.3016C6.7346 10.2781 6.76487 10.2593 6.79851 10.2464C6.83216 10.2336 6.86845 10.2269 6.90514 10.2269H12.3787C12.4048 10.2269 12.4304 10.2336 12.4522 10.2461C12.4741 10.2587 12.4912 10.2766 12.5017 10.2976C12.5121 10.3186 12.5153 10.3418 12.5108 10.3643C12.5064 10.3869 12.4946 10.4078 12.4768 10.4246ZM11.322 8.23833C11.297 8.21474 11.2666 8.19594 11.2328 8.18309C11.1991 8.17024 11.1627 8.16362 11.1259 8.16364H5.652C5.62588 8.16364 5.60033 8.17033 5.57849 8.18288C5.55665 8.19544 5.53946 8.21332 5.52905 8.23431C5.51864 8.25532 5.51546 8.27853 5.51989 8.3011C5.52432 8.32366 5.53617 8.3446 5.55399 8.36135L6.70957 9.44703C6.7346 9.47055 6.76487 9.48931 6.79851 9.50216C6.83216 9.51501 6.86845 9.52167 6.90514 9.52172H12.3787C12.4048 9.52172 12.4304 9.51503 12.4522 9.50247C12.4741 9.48992 12.4912 9.47204 12.5017 9.45104C12.5121 9.43004 12.5153 9.40683 12.5108 9.38426C12.5064 9.3617 12.4946 9.34076 12.4768 9.32401L11.322 8.23833ZM5.652 7.45848H11.1259C11.1627 7.45849 11.1991 7.45187 11.2328 7.43902C11.2666 7.42617 11.297 7.40736 11.322 7.38378L12.4768 6.29809C12.4946 6.28135 12.5064 6.26041 12.5108 6.23784C12.5153 6.21528 12.5121 6.19207 12.5017 6.17107C12.4912 6.15007 12.4741 6.13219 12.4522 6.11963C12.4304 6.10708 12.4048 6.10039 12.3787 6.10039H6.90514C6.86845 6.10044 6.83216 6.1071 6.79851 6.11995C6.76487 6.1328 6.7346 6.15156 6.70957 6.17508L5.55428 7.26077C5.53648 7.27749 5.52464 7.29841 5.5202 7.32095C5.51576 7.34349 5.51892 7.36668 5.52929 7.38768C5.53967 7.40867 5.5568 7.42654 5.5786 7.43912C5.6004 7.4517 5.6259 7.45842 5.652 7.45848Z" fill="url(#paint1_linear_7626_13733)"/>
</g>
<path d="M10.4465 5.50473H9.73112C11.5726 4.28594 14.9534 2.65912 13.7452 5.90217C12.537 9.14523 9.47941 11.7842 8.10164 12.6983C7.1213 13.3872 4.96987 14.5424 4.20679 13.6521C3.44372 12.7619 4.97516 10.3137 5.83627 9.20087L6.03499 9.39959C5.81242 9.55856 5.43883 10.3932 5.27986 10.7906C4.4214 13.525 6.45891 13.0957 7.58498 12.5393C10.2239 11.1721 11.917 8.68421 12.4337 7.61114C12.6589 7.14746 12.9901 6.07704 12.5132 5.50473C12.0362 4.93243 10.9367 5.26627 10.4465 5.50473Z" fill="url(#paint2_linear_7626_13733)"/>
</g>
<defs>
<linearGradient id="paint0_linear_7626_13733" x1="9" y1="0" x2="9" y2="18" gradientUnits="userSpaceOnUse">
<stop stop-color="#00140E"/>
<stop offset="1" stop-color="#023224"/>
</linearGradient>
<linearGradient id="paint1_linear_7626_13733" x1="9.01536" y1="6.10039" x2="9.02629" y2="10.8145" gradientUnits="userSpaceOnUse">
<stop stop-color="white"/>
<stop offset="1" stop-color="#CDDACD"/>
</linearGradient>
<linearGradient id="paint2_linear_7626_13733" x1="6.08333" y1="5.25005" x2="9.83587" y2="11.0817" gradientUnits="userSpaceOnUse">
<stop stop-color="white"/>
<stop offset="1" stop-color="#CDDACD"/>
</linearGradient>
<clipPath id="clip0_7626_13733">
<path d="M0 9C0 4.02944 4.02944 0 9 0V0C13.9706 0 18 4.02944 18 9V9C18 13.9706 13.9706 18 9 18V18C4.02944 18 0 13.9706 0 9V9Z" fill="white"/>
</clipPath>
<clipPath id="clip1_7626_13733">
<rect width="6.99483" height="5.48458" fill="white" transform="translate(5.51776 6.10051)"/>
</clipPath>
</defs>
</svg>
