<svg width="44" height="44" viewBox="0 0 44 44" fill="none" xmlns="http://www.w3.org/2000/svg">
<g clip-path="url(#clip0_1323_55452)">
<path d="M0 22C0 9.84974 9.84974 0 22 0C34.1503 0 44 9.84974 44 22C44 34.1503 34.1503 44 22 44C9.84974 44 0 34.1503 0 22Z" fill="url(#paint0_linear_1323_55452)"/>
<mask id="path-3-inside-1_1323_55452" fill="white">
<path d="M17.4883 15.2134H21.2002V16.8042H15.5V8.18604H17.4883V15.2134ZM25.9375 8.18604C27.5282 8.1861 29.357 8.82298 29.251 11.3687C29.1446 13.9141 26.1136 14.1968 24.6113 14.02V16.8042H22.623V8.18604H25.9375ZM24.6123 12.561H25.8047C26.2908 12.561 27.2636 12.2698 27.2637 11.103C27.2637 9.9362 26.2908 9.64404 25.8047 9.64404H24.6123V12.561Z"/>
</mask>
<path d="M17.4883 15.2134H21.2002V16.8042H15.5V8.18604H17.4883V15.2134ZM25.9375 8.18604C27.5282 8.1861 29.357 8.82298 29.251 11.3687C29.1446 13.9141 26.1136 14.1968 24.6113 14.02V16.8042H22.623V8.18604H25.9375ZM24.6123 12.561H25.8047C26.2908 12.561 27.2636 12.2698 27.2637 11.103C27.2637 9.9362 26.2908 9.64404 25.8047 9.64404H24.6123V12.561Z" fill="url(#paint1_linear_1323_55452)"/>
<path d="M17.4883 15.2134H17.2758V15.4259H17.4883V15.2134ZM21.2002 15.2134H21.4127V15.0009H21.2002V15.2134ZM21.2002 16.8042V17.0167H21.4127V16.8042H21.2002ZM15.5 16.8042H15.2875V17.0167H15.5V16.8042ZM15.5 8.18604V7.97351H15.2875V8.18604H15.5ZM17.4883 8.18604H17.7008V7.97351H17.4883V8.18604ZM25.9375 8.18604L25.9375 7.97351H25.9375V8.18604ZM29.251 11.3687L29.4633 11.3775L29.4633 11.3775L29.251 11.3687ZM24.6113 14.02L24.6362 13.809L24.3988 13.781V14.02H24.6113ZM24.6113 16.8042V17.0167H24.8238V16.8042H24.6113ZM22.623 16.8042H22.4105V17.0167H22.623V16.8042ZM22.623 8.18604V7.97351H22.4105V8.18604H22.623ZM24.6123 12.561H24.3998V12.7736H24.6123V12.561ZM27.2637 11.103L27.4762 11.103V11.103H27.2637ZM24.6123 9.64404V9.43152H24.3998V9.64404H24.6123ZM17.4883 15.2134V15.4259H21.2002V15.2134V15.0009H17.4883V15.2134ZM21.2002 15.2134H20.9877V16.8042H21.2002H21.4127V15.2134H21.2002ZM21.2002 16.8042V16.5917H15.5V16.8042V17.0167H21.2002V16.8042ZM15.5 16.8042H15.7125V8.18604H15.5H15.2875V16.8042H15.5ZM15.5 8.18604V8.39856H17.4883V8.18604V7.97351H15.5V8.18604ZM17.4883 8.18604H17.2758V15.2134H17.4883H17.7008V8.18604H17.4883ZM25.9375 8.18604L25.9375 8.39856C26.7109 8.39859 27.513 8.55451 28.1038 8.99335C28.6813 9.42228 29.0892 10.1455 29.0386 11.3598L29.251 11.3687L29.4633 11.3775C29.5188 10.0461 29.0653 9.17808 28.3572 8.65213C27.6625 8.1361 26.7548 7.97355 25.9375 7.97351L25.9375 8.18604ZM29.251 11.3687L29.0386 11.3598C29.0139 11.951 28.821 12.4003 28.5301 12.7445C28.2368 13.0915 27.8348 13.3422 27.3787 13.5167C26.4622 13.8673 25.3661 13.8948 24.6362 13.809L24.6113 14.02L24.5865 14.2311C25.3589 14.322 26.5294 14.2966 27.5306 13.9137C28.0333 13.7214 28.5029 13.4352 28.8547 13.0188C29.209 12.5996 29.4348 12.0591 29.4633 11.3775L29.251 11.3687ZM24.6113 14.02H24.3988V16.8042H24.6113H24.8238V14.02H24.6113ZM24.6113 16.8042V16.5917H22.623V16.8042V17.0167H24.6113V16.8042ZM22.623 16.8042H22.8356V8.18604H22.623H22.4105V16.8042H22.623ZM22.623 8.18604V8.39856H25.9375V8.18604V7.97351H22.623V8.18604ZM24.6123 12.561V12.7736H25.8047V12.561V12.3485H24.6123V12.561ZM25.8047 12.561V12.7736C26.0817 12.7736 26.4927 12.6923 26.8405 12.4421C27.1993 12.1841 27.4762 11.7557 27.4762 11.103L27.2637 11.103L27.0512 11.103C27.0511 11.6171 26.8416 11.9178 26.5923 12.097C26.3323 12.2841 26.0138 12.3485 25.8047 12.3485V12.561ZM27.2637 11.103H27.4762C27.4762 10.4503 27.1993 10.0218 26.8407 9.76351C26.4928 9.51304 26.0818 9.43152 25.8047 9.43152V9.64404V9.85656C26.0137 9.85656 26.3322 9.92112 26.5923 10.1084C26.8416 10.288 27.0512 10.5889 27.0512 11.103H27.2637ZM25.8047 9.64404V9.43152H24.6123V9.64404V9.85656H25.8047V9.64404ZM24.6123 9.64404H24.3998V12.561H24.6123H24.8248V9.64404H24.6123Z" fill="white" fill-opacity="0.36" mask="url(#path-3-inside-1_1323_55452)"/>
<mask id="path-5-inside-2_1323_55452" fill="white">
<path d="M22.2266 21.4884C31.6767 21.4885 39.3379 29.1496 39.3379 38.5997C39.3378 48.0498 31.6766 55.711 22.2266 55.7111C12.7764 55.7111 5.11537 48.0498 5.11523 38.5997C5.11523 29.1495 12.7764 21.4884 22.2266 21.4884ZM22.2275 24.9103C14.6675 24.9103 8.53906 31.0396 8.53906 38.5997C8.53926 46.1597 14.6676 52.2881 22.2275 52.2882C29.7876 52.2882 35.9168 46.1597 35.917 38.5997C35.917 31.0396 29.7877 24.9103 22.2275 24.9103ZM22.2275 26.0509C29.1577 26.0509 34.7754 31.6696 34.7754 38.5997C34.7752 45.5297 29.1575 51.1476 22.2275 51.1476C15.2976 51.1475 9.67989 45.5296 9.67969 38.5997C9.67969 31.6696 15.2975 26.051 22.2275 26.0509ZM17.1973 42.3068C17.0589 42.3068 16.9259 42.3613 16.8281 42.4591L14.3057 44.9806C14.1412 45.1449 14.2576 45.4259 14.4902 45.4259H27.2578C27.3961 45.4259 27.5291 45.3713 27.627 45.2736L30.1494 42.7521C30.3139 42.5876 30.1974 42.3068 29.9648 42.3068H17.1973ZM14.4902 37.5675C14.2576 37.5675 14.1412 37.8484 14.3057 38.0128L16.8281 40.5343C16.9259 40.632 17.0589 40.6866 17.1973 40.6866H29.9648C30.1974 40.6866 30.3139 40.4057 30.1494 40.2413L27.627 37.7198C27.5292 37.6221 27.3961 37.5675 27.2578 37.5675H14.4902ZM17.1973 32.8888C17.0589 32.8888 16.9259 32.9433 16.8281 33.0411L14.3057 35.5616C14.1412 35.7261 14.2576 36.0079 14.4902 36.0079H27.2578C27.3962 36.0079 27.5291 35.9524 27.627 35.8546L30.1494 33.3341C30.3139 33.1696 30.1974 32.8888 29.9648 32.8888H17.1973Z"/>
</mask>
<path d="M22.2266 21.4884C31.6767 21.4885 39.3379 29.1496 39.3379 38.5997C39.3378 48.0498 31.6766 55.711 22.2266 55.7111C12.7764 55.7111 5.11537 48.0498 5.11523 38.5997C5.11523 29.1495 12.7764 21.4884 22.2266 21.4884ZM22.2275 24.9103C14.6675 24.9103 8.53906 31.0396 8.53906 38.5997C8.53926 46.1597 14.6676 52.2881 22.2275 52.2882C29.7876 52.2882 35.9168 46.1597 35.917 38.5997C35.917 31.0396 29.7877 24.9103 22.2275 24.9103ZM22.2275 26.0509C29.1577 26.0509 34.7754 31.6696 34.7754 38.5997C34.7752 45.5297 29.1575 51.1476 22.2275 51.1476C15.2976 51.1475 9.67989 45.5296 9.67969 38.5997C9.67969 31.6696 15.2975 26.051 22.2275 26.0509ZM17.1973 42.3068C17.0589 42.3068 16.9259 42.3613 16.8281 42.4591L14.3057 44.9806C14.1412 45.1449 14.2576 45.4259 14.4902 45.4259H27.2578C27.3961 45.4259 27.5291 45.3713 27.627 45.2736L30.1494 42.7521C30.3139 42.5876 30.1974 42.3068 29.9648 42.3068H17.1973ZM14.4902 37.5675C14.2576 37.5675 14.1412 37.8484 14.3057 38.0128L16.8281 40.5343C16.9259 40.632 17.0589 40.6866 17.1973 40.6866H29.9648C30.1974 40.6866 30.3139 40.4057 30.1494 40.2413L27.627 37.7198C27.5292 37.6221 27.3961 37.5675 27.2578 37.5675H14.4902ZM17.1973 32.8888C17.0589 32.8888 16.9259 32.9433 16.8281 33.0411L14.3057 35.5616C14.1412 35.7261 14.2576 36.0079 14.4902 36.0079H27.2578C27.3962 36.0079 27.5291 35.9524 27.627 35.8546L30.1494 33.3341C30.3139 33.1696 30.1974 32.8888 29.9648 32.8888H17.1973Z" fill="url(#paint2_linear_1323_55452)"/>
<path d="M22.2266 21.4884L22.2266 21.1462H22.2266V21.4884ZM39.3379 38.5997L39.6801 38.5997V38.5997H39.3379ZM22.2266 55.7111V56.0533H22.2266L22.2266 55.7111ZM5.11523 38.5997H4.77301V38.5997L5.11523 38.5997ZM22.2275 24.9103V24.5681H22.2275L22.2275 24.9103ZM8.53906 38.5997H8.19684V38.5997L8.53906 38.5997ZM22.2275 52.2882L22.2275 52.6304H22.2275V52.2882ZM35.917 38.5997L36.2592 38.5997V38.5997H35.917ZM22.2275 26.0509V25.7087H22.2275L22.2275 26.0509ZM34.7754 38.5997L35.1176 38.5997V38.5997H34.7754ZM22.2275 51.1476L22.2275 51.4898H22.2275V51.1476ZM9.67969 38.5997H9.33747V38.5997L9.67969 38.5997ZM17.1973 42.3068V41.9645H17.1972L17.1973 42.3068ZM16.8281 42.4591L17.0701 42.7011L17.0701 42.7011L16.8281 42.4591ZM14.3057 44.9806L14.5475 45.2227L14.5476 45.2226L14.3057 44.9806ZM27.627 45.2736L27.8688 45.5156L27.8689 45.5156L27.627 45.2736ZM30.1494 42.7521L30.3914 42.9941L30.3914 42.9941L30.1494 42.7521ZM14.3057 38.0128L14.5476 37.7708L14.5476 37.7708L14.3057 38.0128ZM16.8281 40.5343L16.5862 40.7763L16.5863 40.7764L16.8281 40.5343ZM17.1973 40.6866L17.1972 41.0289H17.1973V40.6866ZM30.1494 40.2413L29.9075 40.4834L29.9075 40.4834L30.1494 40.2413ZM27.627 37.7198L27.8689 37.4778L27.8688 37.4777L27.627 37.7198ZM17.1973 32.8888V32.5466H17.1972L17.1973 32.8888ZM16.8281 33.0411L17.07 33.2832L17.0701 33.2831L16.8281 33.0411ZM14.3057 35.5616L14.0638 35.3196L14.0637 35.3196L14.3057 35.5616ZM27.627 35.8546L27.3851 35.6125L27.385 35.6126L27.627 35.8546ZM30.1494 33.3341L30.3913 33.5762L30.3914 33.5761L30.1494 33.3341ZM22.2266 21.4884L22.2266 21.8306C31.4877 21.8307 38.9957 29.3386 38.9957 38.5997H39.3379H39.6801C39.6801 28.9606 31.8657 21.1463 22.2266 21.1462L22.2266 21.4884ZM39.3379 38.5997L38.9957 38.5997C38.9955 47.8608 31.4876 55.3688 22.2266 55.3688L22.2266 55.7111L22.2266 56.0533C31.8656 56.0532 39.68 48.2388 39.6801 38.5997L39.3379 38.5997ZM22.2266 55.7111V55.3688C12.9654 55.3688 5.45759 47.8608 5.45746 38.5997L5.11523 38.5997L4.77301 38.5997C4.77315 48.2388 12.5874 56.0533 22.2266 56.0533V55.7111ZM5.11523 38.5997H5.45746C5.45746 29.3385 12.9654 21.8306 22.2266 21.8306V21.4884V21.1462C12.5874 21.1462 4.77301 28.9605 4.77301 38.5997H5.11523ZM22.2275 24.9103L22.2275 24.5681C14.4784 24.5681 8.19684 30.8507 8.19684 38.5997H8.53906H8.88128C8.88128 31.2286 14.8565 25.2526 22.2275 25.2525L22.2275 24.9103ZM8.53906 38.5997L8.19684 38.5997C8.19705 46.3487 14.4786 52.6304 22.2275 52.6304L22.2275 52.2882L22.2275 51.946C14.8566 51.9459 8.88148 45.9707 8.88128 38.5997L8.53906 38.5997ZM22.2275 52.2882V52.6304C29.9765 52.6304 36.259 46.3487 36.2592 38.5997L35.917 38.5997L35.5748 38.5997C35.5746 45.9707 29.5986 51.946 22.2275 51.946V52.2882ZM35.917 38.5997H36.2592C36.2592 30.8506 29.9767 24.5681 22.2275 24.5681V24.9103V25.2525C29.5987 25.2525 35.5748 31.2286 35.5748 38.5997H35.917ZM22.2275 26.0509V26.3931C28.9686 26.3931 34.4332 31.8586 34.4332 38.5997H34.7754H35.1176C35.1176 31.4806 29.3467 25.7087 22.2275 25.7087V26.0509ZM34.7754 38.5997L34.4332 38.5997C34.433 45.3407 28.9685 50.8054 22.2275 50.8054V51.1476V51.4898C29.3465 51.4898 35.1174 45.7187 35.1176 38.5997L34.7754 38.5997ZM22.2275 51.1476L22.2275 50.8054C15.4866 50.8053 10.0221 45.3406 10.0219 38.5997L9.67969 38.5997L9.33747 38.5997C9.33767 45.7186 15.1086 51.4897 22.2275 51.4898L22.2275 51.1476ZM9.67969 38.5997H10.0219C10.0219 31.8586 15.4865 26.3932 22.2275 26.3931L22.2275 26.0509L22.2275 25.7087C15.1084 25.7087 9.33747 31.4807 9.33747 38.5997H9.67969ZM17.1973 42.3068L17.1972 41.9645C16.969 41.9646 16.7488 42.0545 16.5861 42.2171L16.8281 42.4591L17.0701 42.7011C17.1031 42.6681 17.1487 42.649 17.1973 42.649L17.1973 42.3068ZM16.8281 42.4591L16.5862 42.2171L14.0637 44.7386L14.3057 44.9806L14.5476 45.2226L17.0701 42.7011L16.8281 42.4591ZM14.3057 44.9806L14.0638 44.7384C13.683 45.1187 13.9533 45.7681 14.4902 45.7681V45.4259V45.0837C14.562 45.0837 14.5993 45.171 14.5475 45.2227L14.3057 44.9806ZM14.4902 45.4259V45.7681H27.2578V45.4259V45.0837H14.4902V45.4259ZM27.2578 45.4259V45.7681C27.486 45.7681 27.7063 45.6781 27.8688 45.5156L27.627 45.2736L27.3851 45.0315C27.352 45.0645 27.3062 45.0837 27.2578 45.0837V45.4259ZM27.627 45.2736L27.8689 45.5156L30.3914 42.9941L30.1494 42.7521L29.9075 42.51L27.385 45.0315L27.627 45.2736ZM30.1494 42.7521L30.3914 42.9941C30.7718 42.6137 30.5019 41.9645 29.9648 41.9645V42.3068V42.649C29.8929 42.649 29.856 42.5615 29.9074 42.5101L30.1494 42.7521ZM29.9648 42.3068V41.9645H17.1973V42.3068V42.649H29.9648V42.3068ZM14.4902 37.5675V37.2253C13.9532 37.2253 13.6833 37.8746 14.0637 38.2549L14.3057 38.0128L14.5476 37.7708C14.5991 37.8223 14.5621 37.9097 14.4902 37.9097V37.5675ZM14.3057 38.0128L14.0637 38.2549L16.5862 40.7763L16.8281 40.5343L17.0701 40.2923L14.5476 37.7708L14.3057 38.0128ZM16.8281 40.5343L16.5863 40.7764C16.7487 40.9387 16.9689 41.0288 17.1972 41.0289L17.1973 40.6866L17.1973 40.3444C17.1488 40.3444 17.1031 40.3253 17.07 40.2922L16.8281 40.5343ZM17.1973 40.6866V41.0289H29.9648V40.6866V40.3444H17.1973V40.6866ZM29.9648 40.6866V41.0289C30.5018 41.0289 30.7719 40.3796 30.3913 39.9993L30.1494 40.2413L29.9075 40.4834C29.8559 40.4319 29.893 40.3444 29.9648 40.3444V40.6866ZM30.1494 40.2413L30.3914 39.9993L27.8689 37.4778L27.627 37.7198L27.385 37.9619L29.9075 40.4834L30.1494 40.2413ZM27.627 37.7198L27.8688 37.4777C27.7063 37.3154 27.486 37.2253 27.2578 37.2253V37.5675V37.9097C27.3061 37.9097 27.352 37.9289 27.3851 37.9619L27.627 37.7198ZM27.2578 37.5675V37.2253H14.4902V37.5675V37.9097H27.2578V37.5675ZM17.1973 32.8888L17.1972 32.5466C16.969 32.5466 16.7488 32.6365 16.5861 32.7992L16.8281 33.0411L17.0701 33.2831C17.1031 33.2502 17.1487 33.231 17.1973 33.231L17.1973 32.8888ZM16.8281 33.0411L16.5862 32.7991L14.0638 35.3196L14.3057 35.5616L14.5476 35.8037L17.07 33.2832L16.8281 33.0411ZM14.3057 35.5616L14.0637 35.3196C13.6841 35.6992 13.952 36.3502 14.4902 36.3502V36.0079V35.6657C14.5036 35.6657 14.5215 35.6705 14.5375 35.6818C14.5519 35.6919 14.5606 35.7043 14.5653 35.7157C14.57 35.7271 14.5726 35.7419 14.5696 35.7592C14.5663 35.7783 14.5571 35.7942 14.5476 35.8036L14.3057 35.5616ZM14.4902 36.0079V36.3502H27.2578V36.0079V35.6657H14.4902V36.0079ZM27.2578 36.0079V36.3502C27.4876 36.3502 27.7074 36.2581 27.8689 36.0966L27.627 35.8546L27.385 35.6126C27.3508 35.6468 27.3047 35.6657 27.2578 35.6657V36.0079ZM27.627 35.8546L27.8688 36.0967L30.3913 33.5762L30.1494 33.3341L29.9075 33.092L27.3851 35.6125L27.627 35.8546ZM30.1494 33.3341L30.3914 33.5761C30.7718 33.1957 30.5019 32.5466 29.9648 32.5466V32.8888V33.231C29.8929 33.231 29.856 33.1435 29.9074 33.0921L30.1494 33.3341ZM29.9648 32.8888V32.5466H17.1973V32.8888V33.231H29.9648V32.8888Z" fill="white" fill-opacity="0.36" mask="url(#path-5-inside-2_1323_55452)"/>
</g>
<path d="M22 0.244141C34.0153 0.244141 43.7559 9.98474 43.7559 22C43.7559 34.0153 34.0153 43.7559 22 43.7559C9.98474 43.7559 0.244141 34.0153 0.244141 22C0.244141 9.98474 9.98474 0.244141 22 0.244141Z" stroke="#252A2D" stroke-width="0.488889"/>
<defs>
<linearGradient id="paint0_linear_1323_55452" x1="22" y1="0" x2="22" y2="44" gradientUnits="userSpaceOnUse">
<stop stop-color="#00140E"/>
<stop offset="1" stop-color="#023224"/>
</linearGradient>
<linearGradient id="paint1_linear_1323_55452" x1="22.3777" y1="8.18604" x2="22.3914" y2="15.5935" gradientUnits="userSpaceOnUse">
<stop stop-color="white"/>
<stop offset="1" stop-color="#CDDACD"/>
</linearGradient>
<linearGradient id="paint2_linear_1323_55452" x1="22.2266" y1="16.8217" x2="22.2356" y2="37.0442" gradientUnits="userSpaceOnUse">
<stop stop-color="white"/>
<stop offset="1" stop-color="#CDDACD"/>
</linearGradient>
<clipPath id="clip0_1323_55452">
<path d="M0 22C0 9.84974 9.84974 0 22 0C34.1503 0 44 9.84974 44 22C44 34.1503 34.1503 44 22 44C9.84974 44 0 34.1503 0 22Z" fill="white"/>
</clipPath>
</defs>
</svg>
