<svg width="18" height="18" viewBox="0 0 18 18" fill="none" xmlns="http://www.w3.org/2000/svg">
<g opacity="0.9">
<rect width="18" height="18" rx="9" fill="black"/>
<g clip-path="url(#clip0_4036_146326)">
<path d="M9 16.5C13.1563 16.5 16.5 13.1563 16.5 9C16.5 4.84373 13.1563 1.5 9 1.5C4.84373 1.5 1.5 4.84373 1.5 9C1.5 13.1563 4.84373 16.5 9 16.5Z" fill="black"/>
<path d="M11.0625 10.1875C11.0625 9.09377 10.4062 8.71877 9.09372 8.56255C8.15623 8.43752 7.96873 8.18755 7.96873 7.75C7.96873 7.31245 8.28125 7.03127 8.90622 7.03127C9.46872 7.03127 9.78125 7.21877 9.93747 7.68752C9.96875 7.78127 10.0625 7.84375 10.1563 7.84375H10.6562C10.7812 7.84375 10.875 7.75 10.875 7.62505V7.59377C10.7499 6.90625 10.1874 6.37502 9.46872 6.31255V5.56255C9.46872 5.43752 9.37498 5.34377 9.21875 5.3125H8.75C8.62497 5.3125 8.53123 5.40625 8.49995 5.56255V6.28128C7.56245 6.4063 6.96875 7.03127 6.96875 7.81255C6.96875 8.8438 7.59373 9.25 8.90622 9.4063C9.78125 9.56253 10.0625 9.75003 10.0625 10.2501C10.0625 10.7501 9.62495 11.0938 9.03125 11.0938C8.2187 11.0938 7.93745 10.75 7.8437 10.2812C7.8125 10.1563 7.71875 10.0937 7.625 10.0937H7.0937C6.96875 10.0937 6.875 10.1875 6.875 10.3125V10.3438C6.99995 11.125 7.49998 11.6875 8.53122 11.8438V12.5938C8.53122 12.7188 8.62498 12.8125 8.7812 12.8438H9.24995C9.37497 12.8438 9.46873 12.75 9.5 12.5938V11.8438C10.4375 11.6875 11.0625 11.0312 11.0625 10.1875Z" fill="url(#paint0_linear_4036_146326)"/>
<path d="M7.40588 13.4687C4.96838 12.5937 3.71836 9.875 4.62466 7.4687C5.09341 6.1562 6.12466 5.15622 7.40588 4.68747C7.53091 4.625 7.59338 4.53125 7.59338 4.37495V3.93747C7.59338 3.81245 7.53091 3.7187 7.40588 3.6875C7.37461 3.6875 7.31213 3.6875 7.28086 3.7187C4.31213 4.6562 2.68711 7.8125 3.62461 10.7812C4.18711 12.5312 5.53088 13.875 7.28086 14.4375C7.40588 14.5 7.53091 14.4375 7.56211 14.3124C7.59338 14.2812 7.59338 14.25 7.59338 14.1875V13.7499C7.59338 13.6562 7.49963 13.5312 7.40588 13.4687ZM10.7184 3.7187C10.5934 3.65622 10.4684 3.7187 10.4372 3.84372C10.4059 3.875 10.4059 3.9062 10.4059 3.96875V4.40622C10.4059 4.53125 10.4996 4.6562 10.5934 4.71875C13.0309 5.5937 14.2809 8.31245 13.3746 10.7188C12.9059 12.0313 11.8746 13.0312 10.5934 13.5C10.4684 13.5625 10.4059 13.6562 10.4059 13.8125V14.25C10.4059 14.375 10.4684 14.4687 10.5934 14.4999C10.6247 14.4999 10.6871 14.5 10.7184 14.4688C13.6871 13.5313 15.3122 10.375 14.3747 7.40623C13.8122 5.62497 12.4371 4.2812 10.7184 3.7187Z" fill="url(#paint1_linear_4036_146326)"/>
</g>
<g opacity="0.14" clip-path="url(#clip1_4036_146326)">
<path d="M15.5321 13.5995C15.4707 13.5995 15.4112 13.6302 15.3743 13.6794C13.8472 15.7702 11.3936 16.9571 8.81282 16.8546C4.81157 16.6947 1.55234 13.4355 1.3986 9.43218C1.31661 7.31059 2.08324 5.29766 3.55502 3.76644C5.02884 2.23317 7.00693 1.39069 9.12644 1.39069C11.5842 1.39069 13.919 2.57959 15.3743 4.57202C15.4112 4.62122 15.4707 4.65196 15.5321 4.65196C15.606 4.65196 15.6736 4.61097 15.7064 4.54537C15.7392 4.47978 15.733 4.39984 15.69 4.34039C14.1076 2.17577 11.5678 0.927424 8.89684 1.00327C6.80195 1.06066 4.83207 1.92159 3.35004 3.42412C1.86596 4.92869 1.03168 6.91087 1.00093 9.00376C0.968136 11.195 1.80037 13.2613 3.33979 14.8252C4.88126 16.3893 6.93519 17.2502 9.12438 17.2502C11.7051 17.2502 14.1588 16.0019 15.688 13.911C15.733 13.8516 15.7392 13.7716 15.7044 13.706C15.6715 13.6405 15.6039 13.5995 15.5302 13.5995H15.5321Z" fill="url(#paint2_radial_4036_146326)" fill-opacity="0.7"/>
</g>
</g>
<defs>
<linearGradient id="paint0_linear_4036_146326" x1="8.96874" y1="5.3125" x2="8.96874" y2="12.8438" gradientUnits="userSpaceOnUse">
<stop stop-color="#C7F284"/>
<stop offset="0.277051" stop-color="#96E69F"/>
<stop offset="0.642557" stop-color="#63D8BB"/>
<stop offset="1" stop-color="#18C5E4"/>
</linearGradient>
<linearGradient id="paint1_linear_4036_146326" x1="8.99963" y1="3.6875" x2="8.99963" y2="14.4999" gradientUnits="userSpaceOnUse">
<stop stop-color="#C7F284"/>
<stop offset="0.277051" stop-color="#96E69F"/>
<stop offset="0.642557" stop-color="#63D8BB"/>
<stop offset="1" stop-color="#18C5E4"/>
</linearGradient>
<radialGradient id="paint2_radial_4036_146326" cx="0" cy="0" r="1" gradientUnits="userSpaceOnUse" gradientTransform="translate(16.8871 5.09886) rotate(108.838) scale(9.20484 22.2888)">
<stop offset="0.139194" stop-color="white" stop-opacity="0"/>
<stop offset="0.620501" stop-color="white" stop-opacity="0.536145"/>
<stop offset="1" stop-color="white"/>
</radialGradient>
<clipPath id="clip0_4036_146326">
<rect width="15" height="15" fill="white" transform="translate(1.5 1.5)"/>
</clipPath>
<clipPath id="clip1_4036_146326">
<rect width="14.7273" height="16.2736" fill="white" transform="translate(1 1)"/>
</clipPath>
</defs>
</svg>
