<svg width="44" height="44" viewBox="0 0 44 44" fill="none" xmlns="http://www.w3.org/2000/svg">
<g clip-path="url(#clip0_1362_60091)">
<path d="M0 22C0 9.84974 9.84974 0 22 0C34.1503 0 44 9.84974 44 22C44 34.1503 34.1503 44 22 44C9.84974 44 0 34.1503 0 22Z" fill="url(#paint0_linear_1362_60091)"/>
<path d="M5 39.11C5 29.6604 12.6604 22 22.11 22C31.5596 22 39.22 29.6604 39.22 39.11C39.22 48.5596 31.5596 56.22 22.11 56.22C12.6604 56.22 5 48.5596 5 39.11Z" fill="url(#paint1_linear_1362_60091)"/>
<g clip-path="url(#clip1_1362_60091)">
<path d="M28.5114 26.608L17.3398 52.1959C24.1998 54.6286 31.8728 51.3743 34.8307 44.6001C37.7886 37.8258 34.9594 29.9856 28.5121 26.608H28.5114ZM21.7482 46.5158L27.313 33.6708C27.7629 34.1193 28.1505 34.6203 28.4695 35.1586L23.6242 46.3422C23.0128 46.4777 22.3831 46.5371 21.7482 46.515V46.5158ZM28.8966 42.009C28.2129 43.5745 27.061 44.7889 25.6768 45.5625L29.294 37.1565C29.69 38.7182 29.591 40.4184 28.8966 42.009Z" fill="url(#paint2_linear_1362_60091)"/>
<path d="M15.107 35.9893C16.6541 32.4457 20.6026 30.696 24.2115 31.8107L26.8115 25.8565C19.9143 23.3241 12.1522 26.5753 9.17296 33.3982C6.19373 40.2212 9.0854 48.1246 15.6316 51.4619L18.2317 45.5069C14.9601 43.6179 13.5599 39.5321 15.107 35.9886V35.9893Z" fill="url(#paint3_linear_1362_60091)"/>
</g>
<mask id="path-6-inside-1_1362_60091" fill="white">
<path d="M17.4883 15.2134H21.2002V16.8042H15.5V8.18604H17.4883V15.2134ZM25.9375 8.18604C27.5282 8.1861 29.357 8.82298 29.251 11.3687C29.1446 13.9141 26.1136 14.1968 24.6113 14.02V16.8042H22.623V8.18604H25.9375ZM24.6123 12.561H25.8047C26.2908 12.561 27.2636 12.2698 27.2637 11.103C27.2637 9.9362 26.2908 9.64404 25.8047 9.64404H24.6123V12.561Z"/>
</mask>
<path d="M17.4883 15.2134H21.2002V16.8042H15.5V8.18604H17.4883V15.2134ZM25.9375 8.18604C27.5282 8.1861 29.357 8.82298 29.251 11.3687C29.1446 13.9141 26.1136 14.1968 24.6113 14.02V16.8042H22.623V8.18604H25.9375ZM24.6123 12.561H25.8047C26.2908 12.561 27.2636 12.2698 27.2637 11.103C27.2637 9.9362 26.2908 9.64404 25.8047 9.64404H24.6123V12.561Z" fill="url(#paint4_linear_1362_60091)"/>
<path d="M17.4883 15.2134H17.2758V15.4259H17.4883V15.2134ZM21.2002 15.2134H21.4127V15.0009H21.2002V15.2134ZM21.2002 16.8042V17.0167H21.4127V16.8042H21.2002ZM15.5 16.8042H15.2875V17.0167H15.5V16.8042ZM15.5 8.18604V7.97351H15.2875V8.18604H15.5ZM17.4883 8.18604H17.7008V7.97351H17.4883V8.18604ZM25.9375 8.18604L25.9375 7.97351H25.9375V8.18604ZM29.251 11.3687L29.4633 11.3775L29.4633 11.3775L29.251 11.3687ZM24.6113 14.02L24.6362 13.809L24.3988 13.781V14.02H24.6113ZM24.6113 16.8042V17.0167H24.8238V16.8042H24.6113ZM22.623 16.8042H22.4105V17.0167H22.623V16.8042ZM22.623 8.18604V7.97351H22.4105V8.18604H22.623ZM24.6123 12.561H24.3998V12.7736H24.6123V12.561ZM27.2637 11.103L27.4762 11.103V11.103H27.2637ZM24.6123 9.64404V9.43152H24.3998V9.64404H24.6123ZM17.4883 15.2134V15.4259H21.2002V15.2134V15.0009H17.4883V15.2134ZM21.2002 15.2134H20.9877V16.8042H21.2002H21.4127V15.2134H21.2002ZM21.2002 16.8042V16.5917H15.5V16.8042V17.0167H21.2002V16.8042ZM15.5 16.8042H15.7125V8.18604H15.5H15.2875V16.8042H15.5ZM15.5 8.18604V8.39856H17.4883V8.18604V7.97351H15.5V8.18604ZM17.4883 8.18604H17.2758V15.2134H17.4883H17.7008V8.18604H17.4883ZM25.9375 8.18604L25.9375 8.39856C26.7109 8.39859 27.513 8.55451 28.1038 8.99335C28.6813 9.42228 29.0892 10.1455 29.0386 11.3598L29.251 11.3687L29.4633 11.3775C29.5188 10.0461 29.0653 9.17808 28.3572 8.65213C27.6625 8.1361 26.7548 7.97355 25.9375 7.97351L25.9375 8.18604ZM29.251 11.3687L29.0386 11.3598C29.0139 11.951 28.821 12.4003 28.5301 12.7445C28.2368 13.0915 27.8348 13.3422 27.3787 13.5167C26.4622 13.8673 25.3661 13.8948 24.6362 13.809L24.6113 14.02L24.5865 14.2311C25.3589 14.322 26.5294 14.2966 27.5306 13.9137C28.0333 13.7214 28.5029 13.4352 28.8547 13.0188C29.209 12.5996 29.4348 12.0591 29.4633 11.3775L29.251 11.3687ZM24.6113 14.02H24.3988V16.8042H24.6113H24.8238V14.02H24.6113ZM24.6113 16.8042V16.5917H22.623V16.8042V17.0167H24.6113V16.8042ZM22.623 16.8042H22.8356V8.18604H22.623H22.4105V16.8042H22.623ZM22.623 8.18604V8.39856H25.9375V8.18604V7.97351H22.623V8.18604ZM24.6123 12.561V12.7736H25.8047V12.561V12.3485H24.6123V12.561ZM25.8047 12.561V12.7736C26.0817 12.7736 26.4927 12.6923 26.8405 12.4421C27.1993 12.1841 27.4762 11.7557 27.4762 11.103L27.2637 11.103L27.0512 11.103C27.0511 11.6171 26.8416 11.9178 26.5923 12.097C26.3323 12.2841 26.0138 12.3485 25.8047 12.3485V12.561ZM27.2637 11.103H27.4762C27.4762 10.4503 27.1993 10.0218 26.8407 9.76351C26.4928 9.51304 26.0818 9.43152 25.8047 9.43152V9.64404V9.85656C26.0137 9.85656 26.3322 9.92112 26.5923 10.1084C26.8416 10.288 27.0512 10.5889 27.0512 11.103H27.2637ZM25.8047 9.64404V9.43152H24.6123V9.64404V9.85656H25.8047V9.64404ZM24.6123 9.64404H24.3998V12.561H24.6123H24.8248V9.64404H24.6123Z" fill="white" fill-opacity="0.36" mask="url(#path-6-inside-1_1362_60091)"/>
</g>
<path d="M22 0.244141C34.0153 0.244141 43.7559 9.98474 43.7559 22C43.7559 34.0153 34.0153 43.7559 22 43.7559C9.98474 43.7559 0.244141 34.0153 0.244141 22C0.244141 9.98474 9.98474 0.244141 22 0.244141Z" stroke="#252A2D" stroke-width="0.488889"/>
<defs>
<linearGradient id="paint0_linear_1362_60091" x1="22" y1="0" x2="22" y2="44" gradientUnits="userSpaceOnUse">
<stop stop-color="#00140E"/>
<stop offset="1" stop-color="#023224"/>
</linearGradient>
<linearGradient id="paint1_linear_1362_60091" x1="22.11" y1="17.3336" x2="22.1191" y2="37.5545" gradientUnits="userSpaceOnUse">
<stop stop-color="white"/>
<stop offset="1" stop-color="#CDDACD"/>
</linearGradient>
<linearGradient id="paint2_linear_1362_60091" x1="26.6718" y1="26.608" x2="26.6718" y2="52.999" gradientUnits="userSpaceOnUse">
<stop stop-color="#00140E"/>
<stop offset="1" stop-color="#023224"/>
</linearGradient>
<linearGradient id="paint3_linear_1362_60091" x1="17.4058" y1="25.0001" x2="17.4058" y2="51.4619" gradientUnits="userSpaceOnUse">
<stop stop-color="#00140E"/>
<stop offset="1" stop-color="#023224"/>
</linearGradient>
<linearGradient id="paint4_linear_1362_60091" x1="22.3777" y1="8.18604" x2="22.3914" y2="15.5935" gradientUnits="userSpaceOnUse">
<stop stop-color="white"/>
<stop offset="1" stop-color="#CDDACD"/>
</linearGradient>
<clipPath id="clip0_1362_60091">
<path d="M0 22C0 9.84974 9.84974 0 22 0C34.1503 0 44 9.84974 44 22C44 34.1503 34.1503 44 22 44C9.84974 44 0 34.1503 0 22Z" fill="white"/>
</clipPath>
<clipPath id="clip1_1362_60091">
<rect width="28" height="27.9985" fill="white" transform="translate(8 25)"/>
</clipPath>
</defs>
</svg>
