<svg width="22" height="22" viewBox="0 0 22 22" fill="none" xmlns="http://www.w3.org/2000/svg">
<g clip-path="url(#clip0_1322_55560)">
<path d="M0 11C0 4.92487 4.92487 0 11 0C17.0751 0 22 4.92487 22 11C22 17.0751 17.0751 22 11 22C4.92487 22 0 17.0751 0 11Z" fill="url(#paint0_linear_1322_55560)"/>
<path d="M2.5 19.555C2.5 14.8302 6.33021 11 11.055 11C15.7798 11 19.61 14.8302 19.61 19.555C19.61 24.2798 15.7798 28.11 11.055 28.11C6.33021 28.11 2.5 24.2798 2.5 19.555Z" fill="url(#paint1_linear_1322_55560)"/>
<g clip-path="url(#clip1_1322_55560)">
<path d="M16.1265 14.7397L14.6998 18.0152C14.8855 18.4541 14.9868 18.9353 14.9868 19.4418C14.9868 21.4848 13.3322 23.1478 11.2808 23.1478C11.2639 23.1478 11.2555 23.1478 11.2471 23.1478L13.9907 16.9093C13.9907 16.9093 13.9907 16.9177 13.9991 16.9262L15.2907 14.0053C14.1679 13.178 12.7835 12.6884 11.2808 12.6884C7.54953 12.6884 4.52734 15.7105 4.52734 19.4418C4.52734 23.1731 7.54953 26.1953 11.2808 26.1953C15.0121 26.1953 18.0343 23.1731 18.0343 19.4418C18.0343 17.61 17.3083 15.9554 16.1265 14.7397ZM7.57486 19.4418C7.57486 17.3989 9.22946 15.7359 11.2808 15.7359C11.4412 15.7359 11.6016 15.7443 11.762 15.7696L8.84958 22.2361C8.07293 21.5608 7.5833 20.5562 7.5833 19.4503L7.57486 19.4418Z" fill="url(#paint2_linear_1322_55560)"/>
</g>
<mask id="path-5-inside-1_1322_55560" fill="white">
<path d="M8.74414 7.60669H10.5996V8.40259H7.75V4.09302H8.74414V7.60669ZM12.9678 4.09302C13.763 4.09302 14.6778 4.41119 14.625 5.68384C14.572 6.9567 13.0569 7.09835 12.3057 7.01001V8.40259H11.3115V4.09302H12.9678ZM12.3057 6.28052H12.9023C13.1455 6.28032 13.6306 6.13472 13.6309 5.552C13.6309 4.96893 13.1455 4.8227 12.9023 4.82251H12.3057V6.28052Z"/>
</mask>
<path d="M8.74414 7.60669H10.5996V8.40259H7.75V4.09302H8.74414V7.60669ZM12.9678 4.09302C13.763 4.09302 14.6778 4.41119 14.625 5.68384C14.572 6.9567 13.0569 7.09835 12.3057 7.01001V8.40259H11.3115V4.09302H12.9678ZM12.3057 6.28052H12.9023C13.1455 6.28032 13.6306 6.13472 13.6309 5.552C13.6309 4.96893 13.1455 4.8227 12.9023 4.82251H12.3057V6.28052Z" fill="url(#paint3_linear_1322_55560)"/>
<path d="M8.74414 7.60669H8.63788V7.71295H8.74414V7.60669ZM10.5996 7.60669H10.7059V7.50043H10.5996V7.60669ZM10.5996 8.40259V8.50885H10.7059V8.40259H10.5996ZM7.75 8.40259H7.64374V8.50885H7.75V8.40259ZM7.75 4.09302V3.98676H7.64374V4.09302H7.75ZM8.74414 4.09302H8.8504V3.98676H8.74414V4.09302ZM14.625 5.68384L14.7312 5.68826L14.7312 5.68824L14.625 5.68384ZM12.3057 7.01001L12.3181 6.90448L12.1994 6.89052V7.01001H12.3057ZM12.3057 8.40259V8.50885H12.4119V8.40259H12.3057ZM11.3115 8.40259H11.2053V8.50885H11.3115V8.40259ZM11.3115 4.09302V3.98676H11.2053V4.09302H11.3115ZM12.3057 6.28052H12.1994V6.38678H12.3057V6.28052ZM12.9023 6.28052L12.9023 6.38678L12.9024 6.38678L12.9023 6.28052ZM13.6309 5.552L13.7371 5.55204V5.552H13.6309ZM12.9023 4.82251L12.9024 4.71625H12.9023V4.82251ZM12.3057 4.82251V4.71625H12.1994V4.82251H12.3057ZM8.74414 7.60669V7.71295H10.5996V7.60669V7.50043H8.74414V7.60669ZM10.5996 7.60669H10.4933V8.40259H10.5996H10.7059V7.60669H10.5996ZM10.5996 8.40259V8.29633H7.75V8.40259V8.50885H10.5996V8.40259ZM7.75 8.40259H7.85626V4.09302H7.75H7.64374V8.40259H7.75ZM7.75 4.09302V4.19928H8.74414V4.09302V3.98676H7.75V4.09302ZM8.74414 4.09302H8.63788V7.60669H8.74414H8.8504V4.09302H8.74414ZM12.9678 4.09302V4.19928C13.3544 4.19928 13.7555 4.27717 14.0511 4.49651C14.3399 4.7109 14.544 5.07242 14.5188 5.67943L14.625 5.68384L14.7312 5.68824C14.7588 5.02261 14.5319 4.58872 14.1777 4.32586C13.8302 4.06796 13.3763 3.98676 12.9678 3.98676V4.09302ZM14.625 5.68384L14.5188 5.67942C14.5065 5.97504 14.4101 6.19975 14.2647 6.3719C14.1181 6.54545 13.9172 6.67086 13.6892 6.75814C13.231 6.93352 12.683 6.9474 12.3181 6.90448L12.3057 7.01001L12.2933 7.11554C12.6795 7.16097 13.2647 7.14819 13.7651 6.95661C14.0165 6.86041 14.2512 6.71727 14.4271 6.50903C14.6041 6.29939 14.717 6.02906 14.7312 5.68826L14.625 5.68384ZM12.3057 7.01001H12.1994V8.40259H12.3057H12.4119V7.01001H12.3057ZM12.3057 8.40259V8.29633H11.3115V8.40259V8.50885H12.3057V8.40259ZM11.3115 8.40259H11.4178V4.09302H11.3115H11.2053V8.40259H11.3115ZM11.3115 4.09302V4.19928H12.9678V4.09302V3.98676H11.3115V4.09302ZM12.3057 6.28052V6.38678H12.9023V6.28052V6.17426H12.3057V6.28052ZM12.9023 6.28052L12.9024 6.38678C13.0409 6.38667 13.2461 6.346 13.4198 6.22093C13.5989 6.09196 13.737 5.87799 13.7371 5.55204L13.6309 5.552L13.5246 5.55196C13.5245 5.80873 13.4199 5.95892 13.2956 6.04848C13.1658 6.14194 13.0069 6.17417 12.9023 6.17426L12.9023 6.28052ZM13.6309 5.552H13.7371C13.7371 5.22589 13.599 5.01169 13.42 4.8825C13.2463 4.75721 13.041 4.71636 12.9024 4.71625L12.9023 4.82251L12.9023 4.92877C13.0068 4.92885 13.1658 4.96121 13.2956 5.05485C13.42 5.1446 13.5246 5.29504 13.5246 5.552H13.6309ZM12.9023 4.82251V4.71625H12.3057V4.82251V4.92877H12.9023V4.82251ZM12.3057 4.82251H12.1994V6.28052H12.3057H12.4119V4.82251H12.3057Z" fill="white" fill-opacity="0.36" mask="url(#path-5-inside-1_1322_55560)"/>
</g>
<path d="M11 0.12207C17.0076 0.12207 21.8779 4.99237 21.8779 11C21.8779 17.0076 17.0076 21.8779 11 21.8779C4.99237 21.8779 0.12207 17.0076 0.12207 11C0.12207 4.99237 4.99237 0.12207 11 0.12207Z" stroke="#252A2D" stroke-width="0.244444"/>
<defs>
<linearGradient id="paint0_linear_1322_55560" x1="11" y1="0" x2="11" y2="22" gradientUnits="userSpaceOnUse">
<stop stop-color="#00140E"/>
<stop offset="1" stop-color="#023224"/>
</linearGradient>
<linearGradient id="paint1_linear_1322_55560" x1="11.055" y1="8.66682" x2="11.0595" y2="18.7773" gradientUnits="userSpaceOnUse">
<stop stop-color="white"/>
<stop offset="1" stop-color="#CDDACD"/>
</linearGradient>
<linearGradient id="paint2_linear_1322_55560" x1="11.2808" y1="12.6884" x2="11.2808" y2="26.1953" gradientUnits="userSpaceOnUse">
<stop stop-color="#00140E"/>
<stop offset="1" stop-color="#023224"/>
</linearGradient>
<linearGradient id="paint3_linear_1322_55560" x1="11.1886" y1="4.09302" x2="11.1955" y2="7.79704" gradientUnits="userSpaceOnUse">
<stop stop-color="white"/>
<stop offset="1" stop-color="#CDDACD"/>
</linearGradient>
<clipPath id="clip0_1322_55560">
<path d="M0 11C0 4.92487 4.92487 0 11 0C17.0751 0 22 4.92487 22 11C22 17.0751 17.0751 22 11 22C4.92487 22 0 17.0751 0 11Z" fill="white"/>
</clipPath>
<clipPath id="clip1_1322_55560">
<rect width="13.507" height="13.507" fill="white" transform="translate(4.52734 12.6884)"/>
</clipPath>
</defs>
</svg>
