<svg width="44" height="44" viewBox="0 0 44 44" fill="none" xmlns="http://www.w3.org/2000/svg">
<g clip-path="url(#clip0_1347_57155)">
<path d="M0 22C0 9.84974 9.84974 0 22 0C34.1503 0 44 9.84974 44 22C44 34.1503 34.1503 44 22 44C9.84974 44 0 34.1503 0 22Z" fill="url(#paint0_linear_1347_57155)"/>
<path d="M5 39.11C5 29.6604 12.6604 22 22.11 22C31.5596 22 39.22 29.6604 39.22 39.11C39.22 48.5596 31.5596 56.22 22.11 56.22C12.6604 56.22 5 48.5596 5 39.11Z" fill="url(#paint1_linear_1347_57155)"/>
<path d="M23.6386 30.3184C27.6995 27.6306 35.1551 24.0429 32.4911 31.1943C31.5986 33.59 30.2465 35.835 28.7313 37.8389L29.6913 38.7412C29.7304 38.7781 29.7567 38.8244 29.7665 38.874C29.7761 38.9236 29.7688 38.9744 29.746 39.0205C29.7229 39.0667 29.6856 39.1071 29.6376 39.1348C29.5896 39.1623 29.5328 39.1767 29.4755 39.1768H27.6688C27.218 39.7171 26.7598 40.2365 26.2997 40.7314H29.4755C29.5328 40.7315 29.5896 40.7469 29.6376 40.7744C29.6854 40.802 29.723 40.8417 29.746 40.8877C29.7689 40.934 29.7763 40.9854 29.7665 41.0352C29.7567 41.0849 29.7305 41.1311 29.6913 41.168L27.1444 43.5625C27.0892 43.6142 27.0222 43.6553 26.9481 43.6836C26.8738 43.7119 26.7928 43.7266 26.7118 43.7266H23.2079C21.9829 44.7955 20.8763 45.6316 20.0458 46.1826C17.8839 47.7018 13.139 50.249 11.456 48.2861C9.77332 46.3228 13.1507 40.9239 15.0497 38.4697L15.4882 38.9072C14.9974 39.2578 14.1728 41.099 13.8222 41.9756C11.9293 48.0052 16.4229 47.0591 18.9061 45.832C20.0922 45.2175 21.1907 44.4991 22.1991 43.7266H14.6405C14.5831 43.7265 14.5264 43.7121 14.4784 43.6846C14.4304 43.6569 14.3919 43.6174 14.369 43.5713C14.3462 43.525 14.3398 43.4735 14.3495 43.4238C14.3593 43.3742 14.3855 43.3279 14.4247 43.291L16.9726 40.8965C17.0277 40.8447 17.0948 40.8037 17.1688 40.7754C17.2429 40.7471 17.3234 40.7316 17.4042 40.7314H25.4833C25.9704 40.2083 26.42 39.6863 26.831 39.1768H17.4042C17.3234 39.1766 17.2429 39.1621 17.1688 39.1338C17.0948 39.1054 17.0277 39.0635 16.9726 39.0117L14.4247 36.6182C14.3857 36.5814 14.3593 36.5348 14.3495 36.4854C14.3398 36.4358 14.3463 36.384 14.369 36.3379C14.3919 36.2917 14.4304 36.2523 14.4784 36.2246C14.5265 36.197 14.5831 36.1817 14.6405 36.1816H26.7118C26.7928 36.1816 26.8738 36.1964 26.9481 36.2246C27.0224 36.2529 27.0892 36.2948 27.1444 36.3467L28.1952 37.335C28.8307 36.399 29.303 35.5766 29.5985 34.9629C30.0952 33.9401 30.8256 31.5803 29.7743 30.3184C28.7226 29.0564 26.2978 29.7925 25.2167 30.3184H23.6386ZM29.4755 31.6318C29.5328 31.6319 29.5896 31.6463 29.6376 31.6738C29.6854 31.7014 29.7229 31.7411 29.746 31.7871C29.7689 31.8334 29.7762 31.8849 29.7665 31.9346C29.7567 31.9843 29.7305 32.0305 29.6913 32.0674L27.1444 34.4619C27.0892 34.5138 27.0224 34.5557 26.9481 34.584C26.8738 34.6122 26.7928 34.627 26.7118 34.627H14.6405C14.5831 34.6268 14.5264 34.6117 14.4784 34.584C14.4306 34.5563 14.3928 34.5167 14.37 34.4707C14.3472 34.4245 14.3397 34.3729 14.3495 34.3232C14.3593 34.2736 14.3856 34.2273 14.4247 34.1904L16.9726 31.7959C17.0276 31.7442 17.0949 31.7031 17.1688 31.6748C17.2429 31.6465 17.3234 31.632 17.4042 31.6318H29.4755Z" fill="url(#paint2_linear_1347_57155)"/>
<mask id="path-5-inside-1_1347_57155" fill="white">
<path d="M17.4883 15.2134H21.2002V16.8042H15.5V8.18604H17.4883V15.2134ZM25.9375 8.18604C27.5282 8.1861 29.357 8.82298 29.251 11.3687C29.1446 13.9141 26.1136 14.1968 24.6113 14.02V16.8042H22.623V8.18604H25.9375ZM24.6123 12.561H25.8047C26.2908 12.561 27.2636 12.2698 27.2637 11.103C27.2637 9.9362 26.2908 9.64404 25.8047 9.64404H24.6123V12.561Z"/>
</mask>
<path d="M17.4883 15.2134H21.2002V16.8042H15.5V8.18604H17.4883V15.2134ZM25.9375 8.18604C27.5282 8.1861 29.357 8.82298 29.251 11.3687C29.1446 13.9141 26.1136 14.1968 24.6113 14.02V16.8042H22.623V8.18604H25.9375ZM24.6123 12.561H25.8047C26.2908 12.561 27.2636 12.2698 27.2637 11.103C27.2637 9.9362 26.2908 9.64404 25.8047 9.64404H24.6123V12.561Z" fill="url(#paint3_linear_1347_57155)"/>
<path d="M17.4883 15.2134H17.2758V15.4259H17.4883V15.2134ZM21.2002 15.2134H21.4127V15.0009H21.2002V15.2134ZM21.2002 16.8042V17.0167H21.4127V16.8042H21.2002ZM15.5 16.8042H15.2875V17.0167H15.5V16.8042ZM15.5 8.18604V7.97351H15.2875V8.18604H15.5ZM17.4883 8.18604H17.7008V7.97351H17.4883V8.18604ZM25.9375 8.18604L25.9375 7.97351H25.9375V8.18604ZM29.251 11.3687L29.4633 11.3775L29.4633 11.3775L29.251 11.3687ZM24.6113 14.02L24.6362 13.809L24.3988 13.781V14.02H24.6113ZM24.6113 16.8042V17.0167H24.8239V16.8042H24.6113ZM22.623 16.8042H22.4105V17.0167H22.623V16.8042ZM22.623 8.18604V7.97351H22.4105V8.18604H22.623ZM24.6123 12.561H24.3998V12.7736H24.6123V12.561ZM27.2637 11.103L27.4762 11.103V11.103H27.2637ZM24.6123 9.64404V9.43152H24.3998V9.64404H24.6123ZM17.4883 15.2134V15.4259H21.2002V15.2134V15.0009H17.4883V15.2134ZM21.2002 15.2134H20.9877V16.8042H21.2002H21.4127V15.2134H21.2002ZM21.2002 16.8042V16.5917H15.5V16.8042V17.0167H21.2002V16.8042ZM15.5 16.8042H15.7125V8.18604H15.5H15.2875V16.8042H15.5ZM15.5 8.18604V8.39856H17.4883V8.18604V7.97351H15.5V8.18604ZM17.4883 8.18604H17.2758V15.2134H17.4883H17.7008V8.18604H17.4883ZM25.9375 8.18604L25.9375 8.39856C26.7109 8.39859 27.513 8.55451 28.1038 8.99335C28.6813 9.42228 29.0892 10.1455 29.0386 11.3598L29.251 11.3687L29.4633 11.3775C29.5188 10.0461 29.0653 9.17808 28.3572 8.65213C27.6625 8.1361 26.7548 7.97355 25.9375 7.97351L25.9375 8.18604ZM29.251 11.3687L29.0386 11.3598C29.0139 11.951 28.821 12.4003 28.5301 12.7445C28.2368 13.0915 27.8348 13.3422 27.3787 13.5167C26.4622 13.8673 25.3661 13.8948 24.6362 13.809L24.6113 14.02L24.5865 14.2311C25.3589 14.322 26.5294 14.2966 27.5306 13.9137C28.0333 13.7214 28.5029 13.4352 28.8547 13.0188C29.209 12.5996 29.4348 12.0591 29.4633 11.3775L29.251 11.3687ZM24.6113 14.02H24.3988V16.8042H24.6113H24.8239V14.02H24.6113ZM24.6113 16.8042V16.5917H22.623V16.8042V17.0167H24.6113V16.8042ZM22.623 16.8042H22.8356V8.18604H22.623H22.4105V16.8042H22.623ZM22.623 8.18604V8.39856H25.9375V8.18604V7.97351H22.623V8.18604ZM24.6123 12.561V12.7736H25.8047V12.561V12.3485H24.6123V12.561ZM25.8047 12.561V12.7736C26.0817 12.7736 26.4927 12.6923 26.8405 12.4421C27.1993 12.1841 27.4762 11.7557 27.4762 11.103L27.2637 11.103L27.0511 11.103C27.0511 11.6171 26.8416 11.9178 26.5923 12.097C26.3323 12.2841 26.0138 12.3485 25.8047 12.3485V12.561ZM27.2637 11.103H27.4762C27.4762 10.4503 27.1993 10.0218 26.8407 9.76351C26.4928 9.51304 26.0818 9.43152 25.8047 9.43152V9.64404V9.85656C26.0137 9.85656 26.3322 9.92112 26.5923 10.1084C26.8416 10.288 27.0511 10.5889 27.0511 11.103H27.2637ZM25.8047 9.64404V9.43152H24.6123V9.64404V9.85656H25.8047V9.64404ZM24.6123 9.64404H24.3998V12.561H24.6123H24.8248V9.64404H24.6123Z" fill="white" fill-opacity="0.36" mask="url(#path-5-inside-1_1347_57155)"/>
</g>
<path d="M22 0.244141C34.0153 0.244141 43.7559 9.98474 43.7559 22C43.7559 34.0153 34.0153 43.7559 22 43.7559C9.98474 43.7559 0.244141 34.0153 0.244141 22C0.244141 9.98474 9.98474 0.244141 22 0.244141Z" stroke="#252A2D" stroke-width="0.488889"/>
<defs>
<linearGradient id="paint0_linear_1347_57155" x1="22" y1="0" x2="22" y2="44" gradientUnits="userSpaceOnUse">
<stop stop-color="#00140E"/>
<stop offset="1" stop-color="#023224"/>
</linearGradient>
<linearGradient id="paint1_linear_1347_57155" x1="22.11" y1="17.3336" x2="22.1191" y2="37.5545" gradientUnits="userSpaceOnUse">
<stop stop-color="white"/>
<stop offset="1" stop-color="#CDDACD"/>
</linearGradient>
<linearGradient id="paint2_linear_1347_57155" x1="22.0265" y1="27" x2="22.0265" y2="49" gradientUnits="userSpaceOnUse">
<stop stop-color="#00140E"/>
<stop offset="1" stop-color="#023224"/>
</linearGradient>
<linearGradient id="paint3_linear_1347_57155" x1="22.3777" y1="8.18604" x2="22.3914" y2="15.5935" gradientUnits="userSpaceOnUse">
<stop stop-color="white"/>
<stop offset="1" stop-color="#CDDACD"/>
</linearGradient>
<clipPath id="clip0_1347_57155">
<path d="M0 22C0 9.84974 9.84974 0 22 0C34.1503 0 44 9.84974 44 22C44 34.1503 34.1503 44 22 44C9.84974 44 0 34.1503 0 22Z" fill="white"/>
</clipPath>
</defs>
</svg>
