<svg width="18" height="18" viewBox="0 0 18 18" fill="none" xmlns="http://www.w3.org/2000/svg">
<g clip-path="url(#clip0_62_11667)">
<rect width="18" height="18" rx="9" fill="url(#paint0_linear_62_11667)"/>
<mask id="mask0_62_11667" style="mask-type:alpha" maskUnits="userSpaceOnUse" x="-3" y="-1" width="22" height="21">
<path fill-rule="evenodd" clip-rule="evenodd" d="M14.9245 11.4C16.8227 10.4354 18.1809 8.52592 18.338 6.24718C18.5758 2.79875 15.9731 -0.189504 12.5247 -0.427282C10.0908 -0.59511 7.88604 0.652126 6.7159 2.61302L-2.67594 10.7932L5.21689 19.8552L14.9245 11.4Z" fill="#795E5E"/>
</mask>
<g mask="url(#mask0_62_11667)">
<path fill-rule="evenodd" clip-rule="evenodd" d="M12.4528 -0.88628L12.4563 -0.889398C11.4708 -0.938819 10.5018 -0.739199 9.64838 -0.276967C8.99025 0.332718 8.34434 0.956445 7.71648 1.59972C7.0331 2.29841 6.37069 3.01884 5.73624 3.76665C5.5 4.04767 5.26667 4.33321 5.0444 4.63146C5.37034 4.45223 5.6852 4.2603 5.99598 4.06487C6.36286 3.83117 6.72567 3.5916 7.08381 3.34669C8.83421 2.15137 10.4885 0.824525 12.0852 -0.560271C12.208 -0.668337 12.3301 -0.777059 12.4528 -0.88628ZM11.4481 2.9594C12.6328 1.91581 13.8082 0.857983 14.9544 -0.229745C14.5218 -0.442067 14.0739 -0.604644 13.6218 -0.715375C12.5717 0.135768 11.539 1.00815 10.5163 1.88953C9.33806 2.92518 8.16971 3.97571 7.0305 5.05616C5.37867 6.6207 3.78509 8.24742 2.30336 9.98366C4.04076 8.87256 5.70307 7.65989 7.31706 6.38701C8.72359 5.27953 10.0946 4.12773 11.4481 2.9594ZM16.7754 1.05821C15.0931 2.68102 13.3566 4.24637 11.6021 5.78864C10.5507 6.69733 9.49235 7.59799 8.42059 8.4821C6.07952 10.4141 3.67498 12.2697 1.14236 13.9582C3.20867 11.6293 5.42993 9.45709 7.71934 7.35955C8.69309 6.46792 9.67848 5.58968 10.6703 4.71877C12.3949 3.23073 14.1394 1.7619 15.9292 0.351117C16.2242 0.561095 16.5074 0.79656 16.7754 1.05821ZM18.1293 2.85404C17.9595 2.53514 17.7623 2.22484 17.5381 1.9262C15.6986 3.37082 13.9079 4.87751 12.1383 6.40475C11.0933 7.32197 10.0547 8.24772 9.03073 9.18902C6.79625 11.2422 4.62991 13.3689 2.61038 15.6442C5.19617 13.92 7.64923 12.0221 10.037 10.0458C11.058 9.20013 12.0673 8.34104 13.0701 7.4746C14.7849 5.96696 16.4828 4.43757 18.1293 2.85404ZM18.5783 3.8935C18.7334 4.34527 18.8376 4.80598 18.8911 5.26387C17.8933 6.19874 16.8746 7.11191 15.8495 8.01535C14.6503 9.05048 13.437 10.0731 12.1976 11.0632C10.4328 12.4745 8.61447 13.8184 6.70473 15.0397C8.03735 13.4779 9.46027 12.0046 10.9362 10.5862C12.2315 9.33802 13.5676 8.13198 14.9177 6.94549C16.1203 5.90967 17.3359 4.88503 18.5783 3.8935ZM18.0597 9.01867C18.5653 8.25382 18.8522 7.36305 18.9197 6.42814C18.7759 6.54983 18.6328 6.67219 18.4908 6.79471C16.8817 8.20197 15.3241 9.67516 13.8864 11.2649C13.611 11.5694 13.3403 11.8781 13.0736 12.1915C12.8368 12.473 12.6041 12.758 12.3818 13.0563C12.7077 12.8771 13.0226 12.6851 13.3334 12.4897C14.094 12.006 14.836 11.4961 15.5617 10.9652C16.4147 10.3421 17.2457 9.69007 18.0597 9.01867Z" fill="url(#paint1_linear_62_11667)"/>
</g>
<path fill-rule="evenodd" clip-rule="evenodd" d="M6.23633 10.4882H7.29932V14.2441H9.28357V15.0945H6.23633V10.4882ZM9.8505 10.4882L9.92137 15.0945H10.9135V13.6063C11.7166 13.7008 13.3371 13.5496 13.3938 12.189C13.4505 10.8284 12.4725 10.4882 11.6222 10.4882H9.8505ZM10.9137 11.2677H11.5515C11.8113 11.2677 12.331 11.4236 12.331 12.0473C12.331 12.6709 11.8113 12.8268 11.5515 12.8268H10.9137V11.2677Z" fill="black"/>
<path d="M7.29932 10.4882H8.14971V9.63781H7.29932V10.4882ZM6.23633 10.4882V9.63781H5.38593V10.4882H6.23633ZM7.29932 14.2441H6.44893V15.0945H7.29932V14.2441ZM9.28357 14.2441H10.134V13.3937H9.28357V14.2441ZM9.28357 15.0945V15.9449H10.134V15.0945H9.28357ZM6.23633 15.0945H5.38593V15.9449H6.23633V15.0945ZM9.92137 15.0945L9.07107 15.1076L9.08396 15.9449H9.92137V15.0945ZM9.8505 10.4882V9.63781H8.98692L9.00021 10.5013L9.8505 10.4882ZM10.9135 15.0945V15.9449H11.7639V15.0945H10.9135ZM10.9135 13.6063L11.0129 12.7617L10.0631 12.65V13.6063H10.9135ZM13.3938 12.189L14.2435 12.2244L13.3938 12.189ZM10.9137 11.2677V10.4173H10.0633V11.2677H10.9137ZM10.9137 12.8268H10.0633V13.6772H10.9137V12.8268ZM7.29932 9.63781H6.23633V11.3386H7.29932V9.63781ZM8.14971 14.2441V10.4882H6.44893V14.2441H8.14971ZM9.28357 13.3937H7.29932V15.0945H9.28357V13.3937ZM10.134 15.0945V14.2441H8.43318V15.0945H10.134ZM6.23633 15.9449H9.28357V14.2441H6.23633V15.9449ZM5.38593 10.4882V15.0945H7.08672V10.4882H5.38593ZM10.7717 15.0814L10.7008 10.4751L9.00021 10.5013L9.07107 15.1076L10.7717 15.0814ZM10.9135 14.2441H9.92137V15.9449H10.9135V14.2441ZM10.0631 13.6063V15.0945H11.7639V13.6063H10.0631ZM12.5442 12.1536C12.5375 12.3129 12.4914 12.3948 12.4458 12.4488C12.3906 12.5141 12.2928 12.5867 12.1298 12.649C11.7865 12.7804 11.3294 12.799 11.0129 12.7617L10.8141 14.4509C11.3007 14.5081 12.0555 14.4984 12.7374 14.2376C13.087 14.1039 13.4551 13.8895 13.7448 13.5467C14.044 13.1926 14.2218 12.7454 14.2435 12.2244L12.5442 12.1536ZM11.6222 11.3386C11.9598 11.3386 12.2055 11.4104 12.3413 11.5112C12.4236 11.5723 12.5627 11.7078 12.5442 12.1536L14.2435 12.2244C14.2816 11.3096 13.9601 10.5947 13.355 10.1455C12.8034 9.73608 12.1349 9.63781 11.6222 9.63781V11.3386ZM9.8505 11.3386H11.6222V9.63781H9.8505V11.3386ZM11.5515 10.4173H10.9137V12.1181H11.5515V10.4173ZM13.1814 12.0473C13.1814 11.4583 12.917 11.0081 12.5356 10.7335C12.1976 10.4901 11.8175 10.4173 11.5515 10.4173V12.1181C11.5425 12.1181 11.5395 12.1175 11.5415 12.1178C11.5431 12.118 11.5461 12.1186 11.5493 12.1195C11.5576 12.1219 11.5539 12.1225 11.5418 12.1138C11.5266 12.1028 11.5053 12.0819 11.49 12.0522C11.4831 12.0388 11.4803 12.029 11.4795 12.0255C11.4787 12.0222 11.4806 12.0286 11.4806 12.0473H13.1814ZM11.5515 13.6772C11.8175 13.6772 12.1976 13.6044 12.5356 13.361C12.917 13.0864 13.1814 12.6362 13.1814 12.0473H11.4806C11.4806 12.0659 11.4787 12.0723 11.4795 12.0691C11.4803 12.0655 11.4831 12.0557 11.49 12.0423C11.5053 12.0127 11.5266 11.9917 11.5418 11.9808C11.5539 11.9721 11.5576 11.9726 11.5493 11.975C11.5461 11.9759 11.5431 11.9765 11.5415 11.9767C11.5395 11.977 11.5425 11.9764 11.5515 11.9764V13.6772ZM10.9137 13.6772H11.5515V11.9764H10.9137V13.6772ZM10.0633 11.2677V12.8268H11.7641V11.2677H10.0633Z" fill="url(#paint2_linear_62_11667)"/>
<path fill-rule="evenodd" clip-rule="evenodd" d="M6.23633 10.4882H7.29932V14.2441H9.28357V15.0945H6.23633V10.4882ZM9.8505 10.4882V15.0945H10.9135V13.6063C11.7166 13.7008 13.3371 13.5496 13.3938 12.189C13.4505 10.8284 12.4725 10.4882 11.6222 10.4882H9.8505ZM10.9137 11.2677H11.5515C11.8113 11.2677 12.331 11.4236 12.331 12.0473C12.331 12.6709 11.8113 12.8268 11.5515 12.8268H10.9137V11.2677Z" fill="url(#paint3_linear_62_11667)"/>
</g>
<rect x="0.1" y="0.1" width="17.8" height="17.8" rx="8.9" stroke="#252A2D" stroke-width="0.2"/>
<defs>
<linearGradient id="paint0_linear_62_11667" x1="9" y1="0" x2="9" y2="18" gradientUnits="userSpaceOnUse">
<stop stop-color="#00140E"/>
<stop offset="1" stop-color="#023224"/>
</linearGradient>
<linearGradient id="paint1_linear_62_11667" x1="12.5" y1="1.5" x2="8.50391" y2="10.5017" gradientUnits="userSpaceOnUse">
<stop stop-color="white"/>
<stop offset="1" stop-color="#CDDACD"/>
</linearGradient>
<linearGradient id="paint2_linear_62_11667" x1="9.81625" y1="10.4882" x2="9.81625" y2="15.0945" gradientUnits="userSpaceOnUse">
<stop stop-color="#02291D"/>
<stop offset="1" stop-color="#023022"/>
</linearGradient>
<linearGradient id="paint3_linear_62_11667" x1="9.81625" y1="10.4882" x2="9.82378" y2="14.4474" gradientUnits="userSpaceOnUse">
<stop stop-color="white"/>
<stop offset="1" stop-color="#CDDACD"/>
</linearGradient>
<clipPath id="clip0_62_11667">
<rect width="18" height="18" rx="9" fill="white"/>
</clipPath>
</defs>
</svg>
