<svg width="18" height="18" viewBox="0 0 18 18" fill="none" xmlns="http://www.w3.org/2000/svg">
<g clip-path="url(#clip0_4203_8582)">
<rect width="18" height="18" rx="9" fill="url(#paint0_linear_4203_8582)"/>
<path d="M11.4752 10.4242C11.4752 9.11175 10.6877 8.66175 9.11267 8.47428C7.98767 8.32425 7.76267 8.02428 7.76267 7.49922C7.76267 6.97416 8.1377 6.63675 8.88767 6.63675C9.56267 6.63675 9.9377 6.86175 10.1252 7.42425C10.1627 7.53675 10.2752 7.61172 10.3877 7.61172H10.9876C11.1377 7.61172 11.2502 7.49922 11.2502 7.34928V7.31175C11.1001 6.48672 10.4251 5.84925 9.56267 5.77428V4.87428C9.56267 4.72425 9.45017 4.61175 9.2627 4.57422H8.7002C8.55017 4.57422 8.43767 4.68672 8.40014 4.87428V5.73675C7.27514 5.88678 6.5627 6.63675 6.5627 7.57428C6.5627 8.81178 7.31267 9.29922 8.88767 9.48678C9.9377 9.67425 10.2752 9.89925 10.2752 10.4993C10.2752 11.0993 9.75014 11.5118 9.0377 11.5118C8.06264 11.5118 7.72514 11.0992 7.61264 10.5367C7.5752 10.3868 7.4627 10.3117 7.3502 10.3117H6.71264C6.5627 10.3117 6.4502 10.4242 6.4502 10.5742V10.6118C6.60014 11.5492 7.20017 12.2242 8.43767 12.4118V13.3118C8.43767 13.4617 8.55017 13.5742 8.73764 13.6117H9.30013C9.45017 13.6117 9.56267 13.4992 9.6002 13.3118V12.4118C10.7252 12.2242 11.4752 11.4367 11.4752 10.4242Z" fill="url(#paint1_linear_4203_8582)"/>
<path d="M7.08725 14.3624C4.16225 13.3125 2.66222 10.05 3.74978 7.16244C4.31228 5.58744 5.54978 4.38747 7.08725 3.82497C7.23728 3.75 7.31225 3.6375 7.31225 3.44994V2.92497C7.31225 2.77494 7.23728 2.66244 7.08725 2.625C7.04972 2.625 6.97475 2.625 6.93722 2.66244C3.37475 3.78744 1.42472 7.575 2.54972 11.1375C3.22472 13.2374 4.83725 14.85 6.93722 15.525C7.08725 15.5999 7.23728 15.525 7.27472 15.3749C7.31225 15.3375 7.31225 15.3 7.31225 15.225V14.6999C7.31225 14.5874 7.19975 14.4375 7.08725 14.3624ZM11.0623 2.66244C10.9123 2.58747 10.7622 2.66244 10.7248 2.81247C10.6873 2.85 10.6873 2.88744 10.6873 2.9625V3.48747C10.6873 3.6375 10.7998 3.78744 10.9123 3.8625C13.8373 4.91244 15.3373 8.17494 14.2497 11.0625C13.6872 12.6375 12.4497 13.8375 10.9123 14.4C10.7622 14.4749 10.6873 14.5874 10.6873 14.775V15.3C10.6873 15.45 10.7622 15.5625 10.9123 15.5999C10.9498 15.5999 11.0248 15.5999 11.0623 15.5625C14.6248 14.4375 16.5748 10.6499 15.4498 7.08747C14.7748 4.94997 13.1247 3.33744 11.0623 2.66244Z" fill="url(#paint2_linear_4203_8582)"/>
<path d="M18 9C18 13.9706 13.9706 18 9 18C4.02944 18 0 13.9706 0 9C0 4.02944 4.02944 0 9 0C13.9706 0 18 4.02944 18 9ZM0.194348 9C0.194348 13.8632 4.13677 17.8057 9 17.8057C13.8632 17.8057 17.8057 13.8632 17.8057 9C17.8057 4.13677 13.8632 0.194348 9 0.194348C4.13677 0.194348 0.194348 4.13677 0.194348 9Z" fill="#252A2D"/>
</g>
<defs>
<linearGradient id="paint0_linear_4203_8582" x1="9" y1="0" x2="9" y2="18" gradientUnits="userSpaceOnUse">
<stop stop-color="#00140E"/>
<stop offset="1" stop-color="#023224"/>
</linearGradient>
<linearGradient id="paint1_linear_4203_8582" x1="8.96268" y1="4.57422" x2="9.004" y2="12.342" gradientUnits="userSpaceOnUse">
<stop stop-color="white"/>
<stop offset="1" stop-color="#CDDACD"/>
</linearGradient>
<linearGradient id="paint2_linear_4203_8582" x1="8.99975" y1="2.625" x2="9.03137" y2="13.7772" gradientUnits="userSpaceOnUse">
<stop stop-color="white"/>
<stop offset="1" stop-color="#CDDACD"/>
</linearGradient>
<clipPath id="clip0_4203_8582">
<rect width="18" height="18" rx="9" fill="white"/>
</clipPath>
</defs>
</svg>
