<svg width="18" height="18" viewBox="0 0 18 18" fill="none" xmlns="http://www.w3.org/2000/svg">
<g clip-path="url(#clip0_252_21482)">
<rect y="0.000274658" width="18" height="18" rx="9" fill="url(#paint0_linear_252_21482)"/>
<mask id="mask0_252_21482" style="mask-type:alpha" maskUnits="userSpaceOnUse" x="-3" y="-1" width="22" height="21">
<path fill-rule="evenodd" clip-rule="evenodd" d="M14.9265 11.4003C16.8247 10.4358 18.1829 8.52632 18.34 6.24758C18.5778 2.79915 15.975 -0.189107 12.5266 -0.426885C10.0927 -0.594713 7.888 0.652523 6.71785 2.61341L-2.67399 10.7936L5.21885 19.8556L14.9265 11.4003Z" fill="#795E5E"/>
</mask>
<g mask="url(#mask0_252_21482)">
<path fill-rule="evenodd" clip-rule="evenodd" d="M12.4528 -0.885883L12.4563 -0.889001C11.4708 -0.938422 10.5018 -0.738802 9.64838 -0.27657C8.99025 0.333115 8.34434 0.956842 7.71648 1.60012C7.03311 2.29881 6.37069 3.01924 5.73624 3.76705C5.5 4.04807 5.26667 4.3336 5.0444 4.63186C5.37034 4.45262 5.6852 4.26069 5.99598 4.06527C6.36286 3.83157 6.72567 3.592 7.08381 3.34708C8.83421 2.15177 10.4886 0.824922 12.0852 -0.559874C12.208 -0.66794 12.3301 -0.776662 12.4528 -0.885883ZM11.4481 2.9598C12.6328 1.91621 13.8082 0.85838 14.9544 -0.229348C14.5218 -0.44167 14.0739 -0.604247 13.6218 -0.714978C12.5717 0.136165 11.539 1.00855 10.5163 1.88993C9.33806 2.92558 8.16971 3.97611 7.0305 5.05656C5.37867 6.6211 3.78509 8.24782 2.30336 9.98406C4.04076 8.87296 5.70307 7.66029 7.31706 6.38741C8.72359 5.27992 10.0946 4.12813 11.4481 2.9598ZM16.7754 1.05861C15.0931 2.68142 13.3566 4.24676 11.6021 5.78904C10.5507 6.69772 9.49235 7.59839 8.42059 8.4825C6.07952 10.4145 3.67498 12.2701 1.14236 13.9586C3.20867 11.6297 5.42993 9.45749 7.71934 7.35995C8.69309 6.46832 9.67848 5.59007 10.6703 4.71917C12.3949 3.23113 14.1394 1.7623 15.9292 0.351514C16.2242 0.561492 16.5074 0.796957 16.7754 1.05861ZM18.1293 2.85443C17.9595 2.53553 17.7623 2.22524 17.5381 1.92659C15.6986 3.37122 13.9079 4.87791 12.1383 6.40514C11.0933 7.32236 10.0547 8.24812 9.03073 9.18942C6.79625 11.2426 4.62991 13.3693 2.61038 15.6446C5.19617 13.9204 7.64923 12.0225 10.037 10.0462C11.058 9.20053 12.0673 8.34144 13.0701 7.475C14.7849 5.96736 16.4828 4.43796 18.1293 2.85443ZM18.5783 3.8939C18.7334 4.34567 18.8376 4.80638 18.8911 5.26426C17.8933 6.19914 16.8746 7.11231 15.8495 8.01575C14.6503 9.05088 13.437 10.0735 12.1976 11.0636C10.4328 12.4749 8.61447 13.8188 6.70473 15.0401C8.03735 13.4783 9.46027 12.005 10.9362 10.5866C12.2315 9.33842 13.5676 8.13237 14.9177 6.94589C16.1203 5.91007 17.3359 4.88542 18.5783 3.8939ZM18.0597 9.01906C18.5653 8.25422 18.8522 7.36345 18.9197 6.42854C18.7759 6.55023 18.6328 6.67259 18.4908 6.79511C16.8817 8.20236 15.3241 9.67555 13.8864 11.2653C13.611 11.5698 13.3403 11.8785 13.0736 12.1919C12.8368 12.4734 12.6041 12.7584 12.3818 13.0567C12.7077 12.8775 13.0226 12.6855 13.3334 12.4901C14.094 12.0063 14.836 11.4965 15.5617 10.9656C16.4148 10.3425 17.2457 9.69047 18.0597 9.01906Z" fill="url(#paint1_linear_252_21482)"/>
</g>
<path fill-rule="evenodd" clip-rule="evenodd" d="M6.23438 10.4887H7.29737V14.2446H9.28162V15.095H6.23438V10.4887ZM9.84855 10.4887L9.91941 15.095H10.9115V13.6068C11.7147 13.7013 13.3352 13.5501 13.3919 12.1895C13.4485 10.8289 12.4706 10.4887 11.6202 10.4887H9.84855ZM10.9137 11.2683H11.5515C11.8113 11.2683 12.331 11.4242 12.331 12.0478C12.331 12.6714 11.8113 12.8273 11.5515 12.8273H10.9137V11.2683Z" fill="black"/>
<path d="M7.29737 10.4887H8.14776V9.63831H7.29737V10.4887ZM6.23438 10.4887V9.63831H5.38398V10.4887H6.23438ZM7.29737 14.2446H6.44697V15.095H7.29737V14.2446ZM9.28162 14.2446H10.132V13.3942H9.28162V14.2446ZM9.28162 15.095V15.9454H10.132V15.095H9.28162ZM6.23438 15.095H5.38398V15.9454H6.23438V15.095ZM9.91941 15.095L9.06912 15.1081L9.082 15.9454H9.91941V15.095ZM9.84855 10.4887V9.63831H8.98497L8.99826 10.5018L9.84855 10.4887ZM10.9115 15.095V15.9454H11.7619V15.095H10.9115ZM10.9115 13.6068L11.0109 12.7622L10.0611 12.6505V13.6068H10.9115ZM13.3919 12.1895L12.5422 12.1541L12.5422 12.1541L13.3919 12.1895ZM10.9137 11.2683V10.4179H10.0633V11.2683H10.9137ZM10.9137 12.8273H10.0633V13.6777H10.9137V12.8273ZM7.29737 9.63831H6.23438V11.3391H7.29737V9.63831ZM8.14776 14.2446V10.4887H6.44697V14.2446H8.14776ZM9.28162 13.3942H7.29737V15.095H9.28162V13.3942ZM10.132 15.095V14.2446H8.43123V15.095H10.132ZM6.23438 15.9454H9.28162V14.2446H6.23438V15.9454ZM5.38398 10.4887V15.095H7.08477V10.4887H5.38398ZM10.7697 15.0819L10.6988 10.4756L8.99826 10.5018L9.06912 15.1081L10.7697 15.0819ZM10.9115 14.2446H9.91941V15.9454H10.9115V14.2446ZM10.0611 13.6068V15.095H11.7619V13.6068H10.0611ZM12.5422 12.1541C12.5356 12.3134 12.4895 12.3953 12.4438 12.4493C12.3887 12.5146 12.2908 12.5872 12.1278 12.6496C11.7845 12.7809 11.3274 12.7995 11.0109 12.7622L10.8122 14.4514C11.2988 14.5086 12.0535 14.4989 12.7354 14.2381C13.085 14.1044 13.4531 13.89 13.7428 13.5472C14.0421 13.1931 14.2198 12.7459 14.2415 12.2249L12.5422 12.1541ZM11.6202 11.3391C11.9578 11.3391 12.2035 11.4109 12.3393 11.5117C12.4216 11.5728 12.5608 11.7083 12.5422 12.1541L14.2415 12.2249C14.2796 11.3101 13.9581 10.5952 13.353 10.146C12.8014 9.73658 12.133 9.63831 11.6202 9.63831V11.3391ZM9.84855 11.3391H11.6202V9.63831H9.84855V11.3391ZM11.5515 10.4179H10.9137V12.1186H11.5515V10.4179ZM13.1814 12.0478C13.1814 11.4588 12.9169 11.0086 12.5356 10.734C12.1975 10.4907 11.8175 10.4179 11.5515 10.4179V12.1186C11.5424 12.1186 11.5395 12.118 11.5414 12.1183C11.5431 12.1185 11.546 12.1191 11.5493 12.12C11.5576 12.1224 11.5539 12.123 11.5418 12.1143C11.5266 12.1034 11.5053 12.0824 11.49 12.0528C11.483 12.0393 11.4802 12.0295 11.4794 12.026C11.4787 12.0228 11.4806 12.0291 11.4806 12.0478H13.1814ZM11.5515 13.6777C11.8175 13.6777 12.1975 13.6049 12.5356 13.3615C12.9169 13.0869 13.1814 12.6367 13.1814 12.0478H11.4806C11.4806 12.0664 11.4787 12.0728 11.4794 12.0696C11.4802 12.0661 11.483 12.0562 11.49 12.0428C11.5053 12.0132 11.5266 11.9922 11.5418 11.9813C11.5539 11.9726 11.5576 11.9731 11.5493 11.9755C11.546 11.9765 11.5431 11.977 11.5414 11.9772C11.5395 11.9775 11.5424 11.9769 11.5515 11.9769V13.6777ZM10.9137 13.6777H11.5515V11.9769H10.9137V13.6777ZM10.0633 11.2683V12.8273H11.7641V11.2683H10.0633Z" fill="url(#paint2_linear_252_21482)"/>
<path fill-rule="evenodd" clip-rule="evenodd" d="M6.23438 10.4887H7.29737V14.2446H9.28162V15.095H6.23438V10.4887ZM9.84855 10.4887V15.095H10.9115V13.6068C11.7147 13.7013 13.3352 13.5501 13.3919 12.1895C13.4485 10.8289 12.4706 10.4887 11.6202 10.4887H9.84855ZM10.9137 11.2683H11.5515C11.8113 11.2683 12.331 11.4242 12.331 12.0478C12.331 12.6714 11.8113 12.8273 11.5515 12.8273H10.9137V11.2683Z" fill="url(#paint3_linear_252_21482)"/>
<rect x="3.60156" y="1.80028" width="6.3" height="6.3" rx="3.15" fill="url(#paint4_linear_252_21482)"/>
<g clip-path="url(#clip1_252_21482)">
<path fill-rule="evenodd" clip-rule="evenodd" d="M5.21629 4.41442C4.89908 5.25663 5.33659 6.20819 6.18972 6.51442C6.22253 6.53632 6.25534 6.58005 6.25534 6.61286V6.766C6.25534 6.78787 6.25534 6.79882 6.24439 6.80974C6.23347 6.8535 6.18972 6.87536 6.14596 6.8535C5.53347 6.65662 5.06314 6.1863 4.86627 5.57381C4.53814 4.53475 5.1069 3.43005 6.14596 3.10192C6.1569 3.091 6.17877 3.091 6.18972 3.091C6.23347 3.10192 6.25534 3.13474 6.25534 3.1785V3.33161C6.25534 3.38632 6.23347 3.41913 6.18972 3.441C5.74129 3.60506 5.38035 3.95505 5.21629 4.41442ZM7.25066 3.14568C7.26158 3.10192 7.30534 3.08006 7.3491 3.10192C7.95064 3.2988 8.43191 3.76912 8.62879 4.39256C8.95691 5.43161 8.38815 6.53632 7.3491 6.86444C7.33815 6.87536 7.31629 6.87536 7.30534 6.87536C7.26158 6.86444 7.23972 6.83163 7.23972 6.78787V6.63475C7.23972 6.58005 7.26158 6.54724 7.30534 6.52537C7.75377 6.36131 8.11471 6.01132 8.27877 5.55194C8.59597 4.70974 8.15847 3.75817 7.30534 3.45194C7.27253 3.43005 7.23972 3.38632 7.23972 3.34256V3.18944C7.23972 3.16755 7.23972 3.15663 7.25066 3.14568ZM6.78046 4.79717C7.23984 4.85185 7.46952 4.9831 7.46952 5.36591C7.46952 5.66122 7.25078 5.89091 6.92266 5.94561V6.20811C6.91171 6.26279 6.8789 6.2956 6.83514 6.2956H6.67108C6.6164 6.28466 6.58359 6.25184 6.58359 6.20811V5.94561C6.22265 5.89091 6.04764 5.69403 6.00391 5.42061V5.40967C6.00391 5.36591 6.03672 5.33309 6.08045 5.33309H6.26641C6.29922 5.33309 6.33203 5.35499 6.34295 5.39872C6.37576 5.56278 6.4742 5.68311 6.75859 5.68311C6.96639 5.68311 7.11953 5.56281 7.11953 5.3878C7.11953 5.21279 7.02109 5.14717 6.71484 5.09249C6.25546 5.03778 6.03672 4.89561 6.03672 4.53467C6.03672 4.26123 6.24451 4.04249 6.57264 3.99873V3.74717C6.58359 3.69247 6.6164 3.65966 6.66016 3.65966H6.82422C6.8789 3.6706 6.91171 3.70342 6.91171 3.74717V4.00967C7.16326 4.03154 7.36014 4.21747 7.4039 4.4581V4.46905C7.4039 4.51278 7.37109 4.54559 7.32733 4.54559H7.15234C7.11953 4.54559 7.08672 4.52373 7.07577 4.49092C7.02109 4.32685 6.91171 4.26123 6.71484 4.26123C6.49609 4.26123 6.38671 4.35964 6.38671 4.51278C6.38671 4.66592 6.45234 4.75342 6.78046 4.79717Z" fill="url(#paint5_linear_252_21482)"/>
</g>
<g clip-path="url(#clip2_252_21482)">
<path d="M11.2516 8.10028C12.9913 8.10028 14.4016 6.68998 14.4016 4.95028C14.4016 3.21058 12.9913 1.80028 11.2516 1.80028C9.51187 1.80028 8.10156 3.21058 8.10156 4.95028C8.10156 6.68998 9.51187 8.10028 11.2516 8.10028Z" fill="url(#paint6_linear_252_21482)"/>
<path fill-rule="evenodd" clip-rule="evenodd" d="M11.6318 5.22262V5.22223C11.6102 5.2238 11.4985 5.23049 11.2495 5.23049C11.0507 5.23049 10.9107 5.22459 10.8615 5.22223V5.22282C10.096 5.18915 9.52468 5.05587 9.52468 4.8964C9.52468 4.73713 10.096 4.60384 10.8615 4.56958V5.09012C10.9115 5.09367 11.0548 5.10213 11.2528 5.10213C11.4905 5.10213 11.6096 5.09229 11.6318 5.09032V4.56998C12.3957 4.60404 12.9657 4.73732 12.9657 4.8964C12.9657 5.05587 12.3957 5.18876 11.6318 5.22262V5.22262ZM11.6318 4.51584V4.05003H12.6977V3.33971H9.79558V4.05003H10.8615V4.51564C9.99521 4.55541 9.34375 4.72708 9.34375 4.93262C9.34375 5.13816 9.99521 5.30964 10.8615 5.3496V6.84231H11.6318V5.34921C12.4967 5.30944 13.1466 5.13796 13.1466 4.93262C13.1466 4.72728 12.4967 4.5558 11.6318 4.51584" fill="url(#paint7_linear_252_21482)"/>
</g>
</g>
<rect x="0.1" y="0.100275" width="17.8" height="17.8" rx="8.9" stroke="#252A2D" stroke-width="0.2"/>
<defs>
<linearGradient id="paint0_linear_252_21482" x1="9" y1="0.000274658" x2="9" y2="18.0003" gradientUnits="userSpaceOnUse">
<stop stop-color="#00140E"/>
<stop offset="1" stop-color="#023224"/>
</linearGradient>
<linearGradient id="paint1_linear_252_21482" x1="12.5" y1="1.5004" x2="8.50391" y2="10.5021" gradientUnits="userSpaceOnUse">
<stop stop-color="white"/>
<stop offset="1" stop-color="#CDDACD"/>
</linearGradient>
<linearGradient id="paint2_linear_252_21482" x1="9.81429" y1="10.4887" x2="9.81429" y2="15.095" gradientUnits="userSpaceOnUse">
<stop stop-color="#02291D"/>
<stop offset="1" stop-color="#023022"/>
</linearGradient>
<linearGradient id="paint3_linear_252_21482" x1="9.81429" y1="10.4887" x2="9.82183" y2="14.4479" gradientUnits="userSpaceOnUse">
<stop stop-color="white"/>
<stop offset="1" stop-color="#CDDACD"/>
</linearGradient>
<linearGradient id="paint4_linear_252_21482" x1="6.75156" y1="1.80028" x2="6.75156" y2="8.10028" gradientUnits="userSpaceOnUse">
<stop stop-color="#011811"/>
<stop offset="1" stop-color="#012219"/>
</linearGradient>
<linearGradient id="paint5_linear_252_21482" x1="6.74753" y1="3.091" x2="6.75675" y2="6.34372" gradientUnits="userSpaceOnUse">
<stop stop-color="white"/>
<stop offset="1" stop-color="#CDDACD"/>
</linearGradient>
<linearGradient id="paint6_linear_252_21482" x1="11.2516" y1="1.80028" x2="11.2516" y2="8.10028" gradientUnits="userSpaceOnUse">
<stop stop-color="#011811"/>
<stop offset="1" stop-color="#012218"/>
</linearGradient>
<linearGradient id="paint7_linear_252_21482" x1="11.2452" y1="3.33971" x2="11.2534" y2="6.35025" gradientUnits="userSpaceOnUse">
<stop stop-color="white"/>
<stop offset="1" stop-color="#CDDACD"/>
</linearGradient>
<clipPath id="clip0_252_21482">
<rect y="0.000274658" width="18" height="18" rx="9" fill="white"/>
</clipPath>
<clipPath id="clip1_252_21482">
<rect width="5.25" height="5.25" fill="white" transform="translate(4.125 2.32526)"/>
</clipPath>
<clipPath id="clip2_252_21482">
<rect width="6.3" height="6.3" fill="white" transform="translate(8.10156 1.80028)"/>
</clipPath>
</defs>
</svg>
