<svg width="18" height="18" viewBox="0 0 18 18" fill="none" xmlns="http://www.w3.org/2000/svg">
<g clip-path="url(#clip0_552_26370)">
<rect y="0.000274658" width="18" height="18" rx="9" fill="url(#paint0_linear_552_26370)"/>
<mask id="mask0_552_26370" style="mask-type:alpha" maskUnits="userSpaceOnUse" x="-3" y="-1" width="22" height="21">
<path fill-rule="evenodd" clip-rule="evenodd" d="M14.9265 11.4003C16.8247 10.4358 18.1829 8.52632 18.34 6.24758C18.5778 2.79915 15.975 -0.189107 12.5266 -0.426885C10.0927 -0.594713 7.888 0.652523 6.71785 2.61341L-2.67399 10.7936L5.21885 19.8556L14.9265 11.4003Z" fill="#795E5E"/>
</mask>
<g mask="url(#mask0_552_26370)">
<path fill-rule="evenodd" clip-rule="evenodd" d="M12.4528 -0.885883L12.4563 -0.889001C11.4708 -0.938422 10.5018 -0.738802 9.64838 -0.27657C8.99025 0.333115 8.34434 0.956842 7.71648 1.60012C7.03311 2.29881 6.37069 3.01924 5.73624 3.76705C5.5 4.04807 5.26667 4.3336 5.0444 4.63186C5.37034 4.45262 5.6852 4.26069 5.99598 4.06527C6.36286 3.83157 6.72567 3.592 7.08381 3.34708C8.83421 2.15177 10.4886 0.824922 12.0852 -0.559874C12.208 -0.66794 12.3301 -0.776662 12.4528 -0.885883ZM11.4481 2.9598C12.6328 1.91621 13.8082 0.85838 14.9544 -0.229348C14.5218 -0.44167 14.0739 -0.604247 13.6218 -0.714978C12.5717 0.136165 11.539 1.00855 10.5163 1.88993C9.33806 2.92558 8.16971 3.97611 7.0305 5.05656C5.37867 6.6211 3.78509 8.24782 2.30336 9.98406C4.04076 8.87296 5.70307 7.66029 7.31706 6.38741C8.72359 5.27992 10.0946 4.12813 11.4481 2.9598ZM16.7754 1.05861C15.0931 2.68142 13.3566 4.24676 11.6021 5.78904C10.5507 6.69772 9.49235 7.59839 8.42059 8.4825C6.07952 10.4145 3.67498 12.2701 1.14236 13.9586C3.20867 11.6297 5.42993 9.45749 7.71934 7.35995C8.69309 6.46832 9.67848 5.59007 10.6703 4.71917C12.3949 3.23113 14.1394 1.7623 15.9292 0.351514C16.2242 0.561492 16.5074 0.796957 16.7754 1.05861ZM18.1293 2.85443C17.9595 2.53553 17.7623 2.22524 17.5381 1.92659C15.6986 3.37122 13.9079 4.87791 12.1383 6.40514C11.0933 7.32236 10.0547 8.24812 9.03073 9.18942C6.79625 11.2426 4.62991 13.3693 2.61038 15.6446C5.19617 13.9204 7.64923 12.0225 10.037 10.0462C11.058 9.20053 12.0673 8.34144 13.0701 7.475C14.7849 5.96736 16.4828 4.43796 18.1293 2.85443ZM18.5783 3.8939C18.7334 4.34567 18.8376 4.80638 18.8911 5.26426C17.8933 6.19914 16.8746 7.11231 15.8495 8.01575C14.6503 9.05088 13.437 10.0735 12.1976 11.0636C10.4328 12.4749 8.61447 13.8188 6.70473 15.0401C8.03735 13.4783 9.46027 12.005 10.9362 10.5866C12.2315 9.33842 13.5676 8.13237 14.9177 6.94589C16.1203 5.91007 17.3359 4.88542 18.5783 3.8939ZM18.0597 9.01906C18.5653 8.25422 18.8522 7.36345 18.9197 6.42854C18.7759 6.55023 18.6328 6.67259 18.4908 6.79511C16.8817 8.20236 15.3241 9.67555 13.8864 11.2653C13.611 11.5698 13.3403 11.8785 13.0736 12.1919C12.8368 12.4734 12.6041 12.7584 12.3818 13.0567C12.7077 12.8775 13.0226 12.6855 13.3334 12.4901C14.094 12.0063 14.836 11.4965 15.5617 10.9656C16.4148 10.3425 17.2457 9.69047 18.0597 9.01906Z" fill="url(#paint1_linear_552_26370)"/>
</g>
<path d="M7.29785 14.2446H9.28223V15.0952H6.23438V10.4887H7.29785V14.2446ZM11.6201 10.4887C12.4705 10.4887 13.4493 10.8293 13.3926 12.1899C13.3356 13.5501 11.7153 13.7013 10.9121 13.6069V15.0952H9.91992L9.84863 10.4887H11.6201ZM10.9141 12.8276H11.5518C11.8116 12.8276 12.3311 12.6709 12.3311 12.0473C12.3308 11.4241 11.8115 11.268 11.5518 11.268H10.9141V12.8276Z" fill="black"/>
<path d="M7.29785 14.2446H6.44746V15.095H7.29785V14.2446ZM9.28223 14.2446H10.1326V13.3942H9.28223V14.2446ZM9.28223 15.0952V15.9456H10.1326V15.0952H9.28223ZM6.23438 15.0952H5.38398V15.9456H6.23438V15.0952ZM6.23438 10.4887V9.63832H5.38398V10.4887H6.23438ZM7.29785 10.4887H8.14825V9.63832H7.29785V10.4887ZM13.3926 12.1899L14.2422 12.2255L14.2422 12.2253L13.3926 12.1899ZM10.9121 13.6069L11.0114 12.7623L10.0617 12.6506V13.6069H10.9121ZM10.9121 15.0952V15.9456H11.7625V15.0952H10.9121ZM9.91992 15.0952L9.06963 15.1083L9.08259 15.9456H9.91992V15.0952ZM9.84863 10.4887V9.63832H8.98498L8.99834 10.5019L9.84863 10.4887ZM10.9141 12.8276H10.0637V13.678H10.9141V12.8276ZM12.3311 12.0473L13.1814 12.0473L13.1814 12.0469L12.3311 12.0473ZM10.9141 11.268V10.4176H10.0637V11.268H10.9141ZM7.29785 14.2446V15.095H9.28223V14.2446V13.3942H7.29785V14.2446ZM9.28223 14.2446H8.43183V15.0952H9.28223H10.1326V14.2446H9.28223ZM9.28223 15.0952V14.2448H6.23438V15.0952V15.9456H9.28223V15.0952ZM6.23438 15.0952H7.08477V10.4887H6.23438H5.38398V15.0952H6.23438ZM6.23438 10.4887V11.3391H7.29785V10.4887V9.63832H6.23438V10.4887ZM7.29785 10.4887H6.44746V14.2446H7.29785H8.14825V10.4887H7.29785ZM11.6201 10.4887V11.3391C11.9576 11.3391 12.2036 11.411 12.3397 11.512C12.4223 11.5733 12.5615 11.709 12.5429 12.1545L13.3926 12.1899L14.2422 12.2253C14.2804 11.3102 13.9585 10.5953 13.3533 10.1462C12.8016 9.73674 12.133 9.63832 11.6201 9.63832V10.4887ZM13.3926 12.1899L12.5429 12.1543C12.5363 12.3134 12.4902 12.3953 12.4445 12.4493C12.3894 12.5146 12.2915 12.5872 12.1284 12.6496C11.785 12.7809 11.328 12.7995 11.0114 12.7623L10.9121 13.6069L10.8128 14.4515C11.2994 14.5087 12.0541 14.4989 12.7359 14.2382C13.0855 14.1045 13.4535 13.8902 13.7433 13.5475C14.0426 13.1935 14.2204 12.7464 14.2422 12.2255L13.3926 12.1899ZM10.9121 13.6069H10.0617V15.0952H10.9121H11.7625V13.6069H10.9121ZM10.9121 15.0952V14.2448H9.91992V15.0952V15.9456H10.9121V15.0952ZM9.91992 15.0952L10.7702 15.082L10.6989 10.4756L9.84863 10.4887L8.99834 10.5019L9.06963 15.1083L9.91992 15.0952ZM9.84863 10.4887V11.3391H11.6201V10.4887V9.63832H9.84863V10.4887ZM10.9141 12.8276V13.678H11.5518V12.8276V11.9772H10.9141V12.8276ZM11.5518 12.8276V13.678C11.8185 13.678 12.1986 13.6046 12.5364 13.361C12.9173 13.0862 13.1814 12.636 13.1814 12.0473H12.3311H11.4807C11.4807 12.066 11.4787 12.0724 11.4795 12.0693C11.4803 12.0658 11.483 12.0561 11.4899 12.0428C11.505 12.0134 11.5262 11.9925 11.5413 11.9816C11.5533 11.973 11.557 11.9735 11.5488 11.9759C11.5457 11.9768 11.5428 11.9773 11.5413 11.9775C11.5394 11.9778 11.5425 11.9772 11.5518 11.9772V12.8276ZM12.3311 12.0473L13.1814 12.0469C13.1812 11.4583 12.9168 11.0084 12.5358 10.7339C12.1979 10.4906 11.818 10.4176 11.5518 10.4176V11.268V12.1184C11.5427 12.1184 11.5396 12.1178 11.5416 12.1181C11.5431 12.1183 11.5461 12.1188 11.5493 12.1198C11.5575 12.1221 11.5538 12.1227 11.5417 12.114C11.5265 12.1031 11.5052 12.0821 11.49 12.0526C11.4831 12.0392 11.4803 12.0294 11.4795 12.0259C11.4787 12.0227 11.4807 12.029 11.4807 12.0477L12.3311 12.0473ZM11.5518 11.268V10.4176H10.9141V11.268V12.1184H11.5518V11.268ZM10.9141 11.268H10.0637V12.8276H10.9141H11.7645V11.268H10.9141Z" fill="url(#paint2_linear_552_26370)"/>
<path d="M7.29785 14.2446H9.28223V15.0952H6.23438V10.4887H7.29785V14.2446ZM11.6201 10.4887C12.4705 10.4887 13.4493 10.8293 13.3926 12.1899C13.3356 13.5501 11.7153 13.7013 10.9121 13.6069V15.0952H9.84863V10.4887H11.6201ZM10.9141 12.8276H11.5518C11.8116 12.8276 12.3311 12.6709 12.3311 12.0473C12.3308 11.4241 11.8115 11.268 11.5518 11.268H10.9141V12.8276Z" fill="url(#paint3_linear_552_26370)"/>
<g clip-path="url(#clip1_552_26370)">
<path d="M4 4.80027C4 3.01347 5.44849 1.56498 7.23529 1.56498V1.56498C9.02209 1.56498 10.4706 3.01347 10.4706 4.80027V4.80027C10.4706 6.58707 9.02209 8.03556 7.23529 8.03556V8.03556C5.44849 8.03556 4 6.58707 4 4.80027V4.80027Z" fill="url(#paint4_linear_552_26370)"/>
<g clip-path="url(#clip2_552_26370)">
<path d="M8.482 5.31238L8.06691 5.70266C8.05789 5.71113 8.04697 5.71789 8.03484 5.72251C8.0227 5.72713 8.00962 5.72951 7.99639 5.72951H6.02866C6.01927 5.72951 6.01008 5.7271 6.00223 5.72259C5.99438 5.71808 5.9882 5.71165 5.98446 5.7041C5.98072 5.69655 5.97957 5.68821 5.98117 5.6801C5.98276 5.67198 5.98702 5.66445 5.99343 5.65844L6.40883 5.26816C6.41783 5.2597 6.42871 5.25296 6.4408 5.24834C6.4529 5.24372 6.46594 5.24133 6.47914 5.24131H8.44676C8.45615 5.24131 8.46533 5.24371 8.47319 5.24823C8.48103 5.25274 8.48721 5.25917 8.49097 5.26672C8.4947 5.27427 8.49585 5.28261 8.49425 5.29072C8.49266 5.29883 8.4884 5.30636 8.482 5.31238ZM8.06691 4.52647C8.05789 4.51799 8.04697 4.51123 8.03484 4.50661C8.0227 4.50199 8.00962 4.49961 7.99639 4.49962H6.02866C6.01927 4.49962 6.01008 4.50202 6.00223 4.50654C5.99438 4.51105 5.9882 4.51748 5.98446 4.52502C5.98072 4.53257 5.97957 4.54092 5.98117 4.54903C5.98276 4.55714 5.98702 4.56467 5.99343 4.57069L6.40883 4.96097C6.41783 4.96942 6.42871 4.97617 6.4408 4.98079C6.4529 4.9854 6.46594 4.9878 6.47914 4.98782H8.44676C8.45615 4.98782 8.46533 4.98541 8.47319 4.9809C8.48103 4.97638 8.48721 4.96996 8.49097 4.96241C8.4947 4.95486 8.49585 4.94652 8.49425 4.9384C8.49266 4.93029 8.4884 4.92277 8.482 4.91675L8.06691 4.52647ZM6.02866 4.24613H7.99639C8.00962 4.24613 8.0227 4.24375 8.03484 4.23913C8.04697 4.23451 8.05789 4.22775 8.06691 4.21928L8.482 3.829C8.4884 3.82298 8.49266 3.81545 8.49425 3.80734C8.49585 3.79923 8.4947 3.79088 8.49097 3.78334C8.48721 3.77579 8.48103 3.76936 8.47319 3.76485C8.46533 3.76033 8.45615 3.75793 8.44676 3.75793H6.47914C6.46594 3.75795 6.4529 3.76034 6.4408 3.76496C6.42871 3.76958 6.41783 3.77632 6.40883 3.78478L5.99353 4.17506C5.98713 4.18107 5.98287 4.18859 5.98128 4.19669C5.97968 4.20479 5.98082 4.21313 5.98455 4.22068C5.98828 4.22822 5.99444 4.23465 6.00227 4.23917C6.01011 4.24369 6.01928 4.24611 6.02866 4.24613Z" fill="url(#paint5_linear_552_26370)"/>
</g>
<g filter="url(#filter0_d_552_26370)">
<path d="M7.75487 3.54381H7.4977C8.15966 3.10568 9.37499 2.52087 8.94067 3.68668C8.50635 4.85248 7.40722 5.80113 6.91194 6.12972C6.55954 6.37736 5.78614 6.79263 5.51184 6.47261C5.23753 6.15258 5.78805 5.27251 6.0976 4.87248L6.16903 4.94392C6.08902 5.00107 5.95473 5.30109 5.89758 5.44396C5.58898 6.42689 6.32142 6.27259 6.72622 6.07258C7.67486 5.58111 8.28348 4.68676 8.46921 4.30101C8.55017 4.13433 8.66922 3.74954 8.49778 3.54381C8.32634 3.33808 7.93107 3.45809 7.75487 3.54381Z" fill="url(#paint6_linear_552_26370)"/>
</g>
</g>
<path d="M8.53125 4.80027C8.53125 3.01347 9.97974 1.56498 11.7665 1.56498V1.56498C13.5533 1.56498 15.0018 3.01347 15.0018 4.80027V4.80027C15.0018 6.58707 13.5533 8.03556 11.7665 8.03556V8.03556C9.97974 8.03556 8.53125 6.58707 8.53125 4.80027V4.80027Z" fill="url(#paint7_linear_552_26370)"/>
<path d="M11.7656 2.28416C13.1552 2.28416 14.2821 3.41022 14.2822 4.79978C14.2822 6.18944 13.1553 7.31638 11.7656 7.31638C10.3762 7.31606 9.25003 6.18924 9.25 4.79978C9.25015 3.41043 10.3763 2.28448 11.7656 2.28416ZM11.7656 2.37595C10.4274 2.37628 9.34195 3.4615 9.3418 4.79978C9.34183 6.13816 10.4273 7.22328 11.7656 7.22361C13.1042 7.22361 14.1894 6.13836 14.1895 4.79978C14.1893 3.4613 13.1041 2.37595 11.7656 2.37595ZM13.2217 5.49705C13.2654 5.49715 13.2868 5.55011 13.2559 5.58103L12.7812 6.05564C12.7628 6.07403 12.7379 6.0849 12.7119 6.08494H10.3076C10.2639 6.08483 10.2425 6.03188 10.2734 6.00095L10.748 5.52634C10.7664 5.50796 10.7914 5.49709 10.8174 5.49705H13.2217ZM12.7119 4.60642C12.7379 4.60646 12.7629 4.61641 12.7812 4.63474L13.2559 5.10935C13.2868 5.14028 13.2654 5.19324 13.2217 5.19334H10.8174C10.7914 5.1933 10.7664 5.18329 10.748 5.16502L10.2734 4.69041C10.2425 4.65949 10.2639 4.60653 10.3076 4.60642H12.7119ZM13.2217 3.72459C13.2654 3.72469 13.2868 3.77763 13.2559 3.80857L12.7812 4.28318C12.7629 4.30153 12.7379 4.31147 12.7119 4.3115H10.3076C10.2639 4.31139 10.2425 4.25846 10.2734 4.22752L10.748 3.75291C10.7664 3.73464 10.7915 3.72463 10.8174 3.72459H13.2217Z" fill="url(#paint8_linear_552_26370)"/>
</g>
<rect x="0.1" y="0.100275" width="17.8" height="17.8" rx="8.9" stroke="#252A2D" stroke-width="0.2"/>
<defs>
<filter id="filter0_d_552_26370" x="4.23924" y="3.00291" width="5.99026" height="5.98259" filterUnits="userSpaceOnUse" color-interpolation-filters="sRGB">
<feFlood flood-opacity="0" result="BackgroundImageFix"/>
<feColorMatrix in="SourceAlpha" type="matrix" values="0 0 0 0 0 0 0 0 0 0 0 0 0 0 0 0 0 0 127 0" result="hardAlpha"/>
<feOffset dy="1.19826"/>
<feGaussianBlur stdDeviation="0.599128"/>
<feComposite in2="hardAlpha" operator="out"/>
<feColorMatrix type="matrix" values="0 0 0 0 0 0 0 0 0 0 0 0 0 0 0 0 0 0 0.25 0"/>
<feBlend mode="normal" in2="BackgroundImageFix" result="effect1_dropShadow_552_26370"/>
<feBlend mode="normal" in="SourceGraphic" in2="effect1_dropShadow_552_26370" result="shape"/>
</filter>
<linearGradient id="paint0_linear_552_26370" x1="9" y1="0.000274658" x2="9" y2="18.0003" gradientUnits="userSpaceOnUse">
<stop stop-color="#00140E"/>
<stop offset="1" stop-color="#023224"/>
</linearGradient>
<linearGradient id="paint1_linear_552_26370" x1="12.5" y1="1.5004" x2="8.50391" y2="10.5021" gradientUnits="userSpaceOnUse">
<stop stop-color="white"/>
<stop offset="1" stop-color="#CDDACD"/>
</linearGradient>
<linearGradient id="paint2_linear_552_26370" x1="9.81465" y1="10.4887" x2="9.81465" y2="15.0952" gradientUnits="userSpaceOnUse">
<stop stop-color="#02291D"/>
<stop offset="1" stop-color="#023022"/>
</linearGradient>
<linearGradient id="paint3_linear_552_26370" x1="9.81465" y1="10.4887" x2="9.82219" y2="14.448" gradientUnits="userSpaceOnUse">
<stop stop-color="white"/>
<stop offset="1" stop-color="#CDDACD"/>
</linearGradient>
<linearGradient id="paint4_linear_552_26370" x1="7.23529" y1="1.56498" x2="7.23529" y2="8.03556" gradientUnits="userSpaceOnUse">
<stop stop-color="#011811"/>
<stop offset="1" stop-color="#012219"/>
</linearGradient>
<linearGradient id="paint5_linear_552_26370" x1="7.23771" y1="3.75793" x2="7.24164" y2="5.45254" gradientUnits="userSpaceOnUse">
<stop stop-color="white"/>
<stop offset="1" stop-color="#CDDACD"/>
</linearGradient>
<linearGradient id="paint6_linear_552_26370" x1="6.18641" y1="3.45225" x2="7.53536" y2="5.54861" gradientUnits="userSpaceOnUse">
<stop stop-color="white"/>
<stop offset="1" stop-color="#CDDACD"/>
</linearGradient>
<linearGradient id="paint7_linear_552_26370" x1="11.7665" y1="1.56498" x2="11.7665" y2="8.03556" gradientUnits="userSpaceOnUse">
<stop stop-color="#011811"/>
<stop offset="1" stop-color="#012219"/>
</linearGradient>
<linearGradient id="paint8_linear_552_26370" x1="11.7661" y1="2.28416" x2="11.7789" y2="6.60944" gradientUnits="userSpaceOnUse">
<stop stop-color="white"/>
<stop offset="1" stop-color="#CDDACD"/>
</linearGradient>
<clipPath id="clip0_552_26370">
<rect y="0.000274658" width="18" height="18" rx="9" fill="white"/>
</clipPath>
<clipPath id="clip1_552_26370">
<path d="M4 4.80027C4 3.01347 5.44849 1.56498 7.23529 1.56498V1.56498C9.02209 1.56498 10.4706 3.01347 10.4706 4.80027V4.80027C10.4706 6.58707 9.02209 8.03556 7.23529 8.03556V8.03556C5.44849 8.03556 4 6.58707 4 4.80027V4.80027Z" fill="white"/>
</clipPath>
<clipPath id="clip2_552_26370">
<rect width="2.51448" height="1.97158" fill="white" transform="translate(5.98047 3.75797)"/>
</clipPath>
</defs>
</svg>
