<svg width="18" height="18" viewBox="0 0 18 18" fill="none" xmlns="http://www.w3.org/2000/svg">
<g clip-path="url(#clip0_556_25755)">
<rect width="18" height="18" rx="9" fill="url(#paint0_linear_556_25755)"/>
<mask id="mask0_556_25755" style="mask-type:alpha" maskUnits="userSpaceOnUse" x="-3" y="-1" width="22" height="21">
<path fill-rule="evenodd" clip-rule="evenodd" d="M14.9265 11.4001C16.8247 10.4355 18.1829 8.52604 18.34 6.24731C18.5778 2.79888 15.975 -0.189382 12.5266 -0.42716C10.0927 -0.594988 7.888 0.652248 6.71785 2.61314L-2.67399 10.7933L5.21885 19.8553L14.9265 11.4001Z" fill="#795E5E"/>
</mask>
<g mask="url(#mask0_556_25755)">
<path fill-rule="evenodd" clip-rule="evenodd" d="M12.4528 -0.886158L12.4563 -0.889275C11.4708 -0.938697 10.5018 -0.739076 9.64838 -0.276845C8.99025 0.33284 8.34434 0.956567 7.71648 1.59985C7.03311 2.29854 6.37069 3.01896 5.73624 3.76677C5.5 4.0478 5.26667 4.33333 5.0444 4.63158C5.37034 4.45235 5.6852 4.26042 5.99598 4.06499C6.36286 3.83129 6.72567 3.59173 7.08381 3.34681C8.83421 2.1515 10.4886 0.824648 12.0852 -0.560149C12.208 -0.668215 12.3301 -0.776936 12.4528 -0.886158ZM11.4481 2.95952C12.6328 1.91593 13.8082 0.858105 14.9544 -0.229622C14.5218 -0.441944 14.0739 -0.604522 13.6218 -0.715253C12.5717 0.135891 11.539 1.00827 10.5163 1.88965C9.33806 2.9253 8.16971 3.97583 7.0305 5.05628C5.37867 6.62082 3.78509 8.24754 2.30336 9.98378C4.04076 8.87269 5.70307 7.66002 7.31706 6.38713C8.72359 5.27965 10.0946 4.12785 11.4481 2.95952ZM16.7754 1.05834C15.0931 2.68115 13.3566 4.24649 11.6021 5.78876C10.5507 6.69745 9.49235 7.59811 8.42059 8.48223C6.07952 10.4142 3.67498 12.2699 1.14236 13.9584C3.20867 11.6294 5.42993 9.45721 7.71934 7.35968C8.69309 6.46805 9.67848 5.5898 10.6703 4.7189C12.3949 3.23085 14.1394 1.76203 15.9292 0.351239C16.2242 0.561217 16.5074 0.796683 16.7754 1.05834ZM18.1293 2.85416C17.9595 2.53526 17.7623 2.22497 17.5381 1.92632C15.6986 3.37095 13.9079 4.87764 12.1383 6.40487C11.0933 7.32209 10.0547 8.24784 9.03073 9.18914C6.79625 11.2424 4.62991 13.3691 2.61038 15.6443C5.19617 13.9201 7.64923 12.0222 10.037 10.046C11.058 9.20026 12.0673 8.34116 13.0701 7.47472C14.7849 5.96708 16.4828 4.43769 18.1293 2.85416ZM18.5783 3.89363C18.7334 4.34539 18.8376 4.8061 18.8911 5.26399C17.8933 6.19886 16.8746 7.11203 15.8495 8.01548C14.6503 9.05061 13.437 10.0732 12.1976 11.0634C10.4328 12.4746 8.61447 13.8186 6.70473 15.0398C8.03735 13.478 9.46027 12.0047 10.9362 10.5863C12.2315 9.33815 13.5676 8.1321 14.9177 6.94561C16.1203 5.9098 17.3359 4.88515 18.5783 3.89363ZM18.0597 9.01879C18.5653 8.25395 18.8522 7.36318 18.9197 6.42826C18.7759 6.54996 18.6328 6.67231 18.4908 6.79483C16.8817 8.20209 15.3241 9.67528 13.8864 11.265C13.611 11.5695 13.3403 11.8782 13.0736 12.1916C12.8368 12.4731 12.6041 12.7582 12.3818 13.0564C12.7077 12.8772 13.0226 12.6853 13.3334 12.4898C14.094 12.0061 14.836 11.4962 15.5617 10.9653C16.4148 10.3422 17.2457 9.6902 18.0597 9.01879Z" fill="url(#paint1_linear_556_25755)"/>
</g>
<path d="M7.29785 14.2443H9.28125V15.0949H6.23438V10.4884H7.29785V14.2443ZM11.6201 10.4884C12.4705 10.4884 13.4483 10.829 13.3916 12.1896C13.3346 13.5499 11.7142 13.7011 10.9111 13.6066V15.0949H9.91895L9.84863 10.4884H11.6201ZM10.9141 12.8273H11.5518C11.8117 12.8272 12.3311 12.6704 12.3311 12.047C12.3308 11.424 11.8116 11.2678 11.5518 11.2677H10.9141V12.8273Z" fill="black"/>
<path d="M7.29785 14.2443H6.44746V15.0947H7.29785V14.2443ZM9.28125 14.2443H10.1316V13.3939H9.28125V14.2443ZM9.28125 15.0949V15.9453H10.1316V15.0949H9.28125ZM6.23438 15.0949H5.38398V15.9453H6.23438V15.0949ZM6.23438 10.4884V9.63804H5.38398V10.4884H6.23438ZM7.29785 10.4884H8.14825V9.63804H7.29785V10.4884ZM13.3916 12.1896L14.2412 12.2252L14.2413 12.225L13.3916 12.1896ZM10.9111 13.6066L11.0105 12.762L10.0607 12.6503V13.6066H10.9111ZM10.9111 15.0949V15.9453H11.7615V15.0949H10.9111ZM9.91895 15.0949L9.06865 15.1079L9.08143 15.9453H9.91895V15.0949ZM9.84863 10.4884V9.63804H8.98516L8.99834 10.5014L9.84863 10.4884ZM10.9141 12.8273H10.0637V13.6777H10.9141V12.8273ZM11.5518 12.8273L11.5518 13.6777L11.5521 13.6777L11.5518 12.8273ZM12.3311 12.047L13.1814 12.047L13.1814 12.0467L12.3311 12.047ZM11.5518 11.2677L11.5521 10.4173H11.5518V11.2677ZM10.9141 11.2677V10.4173H10.0637V11.2677H10.9141ZM7.29785 14.2443V15.0947H9.28125V14.2443V13.3939H7.29785V14.2443ZM9.28125 14.2443H8.43086V15.0949H9.28125H10.1316V14.2443H9.28125ZM9.28125 15.0949V14.2445H6.23438V15.0949V15.9453H9.28125V15.0949ZM6.23438 15.0949H7.08477V10.4884H6.23438H5.38398V15.0949H6.23438ZM6.23438 10.4884V11.3388H7.29785V10.4884V9.63804H6.23438V10.4884ZM7.29785 10.4884H6.44746V14.2443H7.29785H8.14825V10.4884H7.29785ZM11.6201 10.4884V11.3388C11.9576 11.3388 12.2032 11.4107 12.339 11.5115C12.4214 11.5727 12.5605 11.7083 12.5419 12.1542L13.3916 12.1896L14.2413 12.225C14.2794 11.3102 13.958 10.5953 13.353 10.1461C12.8015 9.73646 12.133 9.63804 11.6201 9.63804V10.4884ZM13.3916 12.1896L12.542 12.154C12.5353 12.3132 12.4892 12.3951 12.4435 12.4491C12.3884 12.5144 12.2905 12.587 12.1274 12.6493C11.784 12.7806 11.327 12.7993 11.0105 12.762L10.9111 13.6066L10.8118 14.4512C11.2984 14.5084 12.053 14.4987 12.7349 14.2379C13.0845 14.1043 13.4525 13.8899 13.7423 13.5472C14.0416 13.1933 14.2194 12.7462 14.2412 12.2252L13.3916 12.1896ZM10.9111 13.6066H10.0607V15.0949H10.9111H11.7615V13.6066H10.9111ZM10.9111 15.0949V14.2445H9.91895V15.0949V15.9453H10.9111V15.0949ZM9.91895 15.0949L10.7692 15.0819L10.6989 10.4755L9.84863 10.4884L8.99834 10.5014L9.06865 15.1079L9.91895 15.0949ZM9.84863 10.4884V11.3388H11.6201V10.4884V9.63804H9.84863V10.4884ZM10.9141 12.8273V13.6777H11.5518V12.8273V11.9769H10.9141V12.8273ZM11.5518 12.8273L11.5521 13.6777C11.8188 13.6776 12.1988 13.6042 12.5365 13.3605C12.9173 13.0857 13.1814 12.6357 13.1814 12.047H12.3311H11.4807C11.4807 12.0657 11.4788 12.0721 11.4795 12.0689C11.4803 12.0654 11.483 12.0557 11.4899 12.0424C11.5051 12.013 11.5263 11.9921 11.5413 11.9813C11.5533 11.9726 11.5569 11.9732 11.5487 11.9756C11.5455 11.9765 11.5426 11.977 11.541 11.9773C11.5391 11.9775 11.5422 11.9769 11.5514 11.9769L11.5518 12.8273ZM12.3311 12.047L13.1814 12.0467C13.1812 11.4581 12.9168 11.0083 12.5359 10.7338C12.1981 10.4905 11.8183 10.4175 11.5521 10.4173L11.5518 11.2677L11.5514 12.1181C11.5423 12.1181 11.5394 12.1175 11.5413 12.1178C11.5429 12.118 11.5459 12.1186 11.5491 12.1195C11.5574 12.1219 11.5537 12.1224 11.5417 12.1138C11.5266 12.1029 11.5053 12.082 11.49 12.0524C11.4831 12.039 11.4803 12.0292 11.4795 12.0257C11.4787 12.0225 11.4807 12.0288 11.4807 12.0474L12.3311 12.047ZM11.5518 11.2677V10.4173H10.9141V11.2677V12.1181H11.5518V11.2677ZM10.9141 11.2677H10.0637V12.8273H10.9141H11.7645V11.2677H10.9141Z" fill="url(#paint2_linear_556_25755)"/>
<path d="M7.29785 14.2443H9.28125V15.0949H6.23438V10.4884H7.29785V14.2443ZM11.6201 10.4884C12.4705 10.4884 13.4483 10.829 13.3916 12.1896C13.3346 13.5499 11.7142 13.7011 10.9111 13.6066V15.0949H9.84863V10.4884H11.6201ZM10.9141 12.8273H11.5518C11.8117 12.8272 12.3311 12.6704 12.3311 12.047C12.3308 11.424 11.8116 11.2678 11.5518 11.2677H10.9141V12.8273Z" fill="url(#paint3_linear_556_25755)"/>
<rect x="3.52734" y="1.79999" width="6.47108" height="6.47108" rx="3.23554" fill="url(#paint4_linear_556_25755)"/>
<path d="M6.95914 4.19651C7.41288 3.89626 8.24502 3.49633 7.94742 4.29514C7.80957 4.66492 7.57214 5.0009 7.32535 5.27952L7.47672 5.49631C7.54316 5.59208 7.51895 5.72404 7.42301 5.79026L7.17985 5.43674C7.14755 5.46987 7.11606 5.50255 7.08414 5.53342C7.13805 5.56888 7.18472 5.61602 7.22477 5.67405L7.34391 5.8469L7.17301 5.96506L7.05387 5.79221C7.01844 5.74087 6.97429 5.70392 6.92106 5.68284C6.77967 5.80707 6.65317 5.90565 6.55778 5.96897C6.31628 6.13867 5.78587 6.4235 5.59782 6.20432C5.40986 5.98504 5.787 5.3819 5.99918 5.10764L6.04801 5.15647C5.99315 5.19604 5.90158 5.40146 5.86246 5.49924C5.65108 6.17262 6.15238 6.06692 6.42985 5.92991C6.57685 5.85375 6.71065 5.76145 6.83317 5.66428C6.76515 5.6586 6.70044 5.67517 6.63981 5.71702L6.33805 5.92698C6.24211 5.99348 6.11043 5.96936 6.0441 5.87327L6.52067 5.54416C6.63864 5.46282 6.76603 5.43538 6.90153 5.46116C6.94467 5.46933 6.98414 5.48387 7.02164 5.5012C7.06338 5.46182 7.1029 5.4219 7.14078 5.38205L7.09391 5.31272C7.01235 5.19455 6.98449 5.06736 7.00992 4.93186C7.0353 4.79601 7.1059 4.68766 7.22184 4.60764L7.39371 4.4885L7.51285 4.66038L7.34 4.77952C7.27152 4.82681 7.22935 4.88968 7.215 4.96897C7.20055 5.04823 7.21768 5.12388 7.26578 5.19358L7.28434 5.22092C7.45152 5.01964 7.56835 4.83402 7.62516 4.71604C7.68064 4.6018 7.76219 4.33751 7.64469 4.19651C7.52718 4.05554 7.25568 4.13776 7.13492 4.19651H6.95914ZM6.29606 4.98459C6.37759 5.10273 6.40545 5.22999 6.38004 5.36545C6.35466 5.5013 6.28408 5.60965 6.16813 5.68967L5.99528 5.80881L5.87711 5.63694L6.04996 5.5178C6.11836 5.47052 6.15963 5.40756 6.17399 5.32834C6.1884 5.24926 6.17204 5.17428 6.12418 5.10471L5.91324 4.801C5.84682 4.70523 5.87102 4.57424 5.96696 4.50803L6.29606 4.98459ZM7.04996 4.35569C7.14592 4.28904 7.27755 4.31325 7.34391 4.4094L6.86735 4.73752C6.74942 4.81887 6.6229 4.84721 6.48746 4.82151C6.35166 4.79587 6.24342 4.72478 6.16324 4.60862L6.0441 4.43577L6.215 4.3176L6.33414 4.49045C6.38156 4.55916 6.44521 4.60097 6.52457 4.61545C6.6038 4.63005 6.67864 4.61269 6.74821 4.56467L7.04996 4.35569Z" fill="url(#paint5_linear_556_25755)"/>
<path d="M6.61844 6.96298C5.61756 6.8902 4.82812 6.0552 4.82812 5.03574C4.82812 4.01627 5.61756 3.18127 6.61844 3.10849" stroke="url(#paint6_linear_556_25755)" stroke-width="0.0544135" stroke-miterlimit="10" stroke-linecap="round"/>
<path d="M6.61917 3.0005C5.5574 3.0735 4.71875 3.95785 4.71875 5.03815C4.71875 6.11845 5.55743 7.00281 6.61917 7.0758" stroke="url(#paint7_linear_556_25755)" stroke-width="0.0544135" stroke-miterlimit="10" stroke-linecap="round"/>
<path d="M6.90234 6.96568C7.90323 6.8929 8.69266 6.0579 8.69266 5.03844C8.69266 4.01897 7.90323 3.18397 6.90234 3.11119" stroke="url(#paint8_linear_556_25755)" stroke-width="0.0544135" stroke-miterlimit="10" stroke-linecap="round"/>
<path d="M6.90234 3.0032C7.96411 3.0762 8.80276 3.96056 8.80276 5.04085C8.80276 6.12115 7.96409 7.00551 6.90234 7.0785" stroke="url(#paint9_linear_556_25755)" stroke-width="0.0544135" stroke-miterlimit="10" stroke-linecap="round"/>
<rect x="8.19922" y="1.79999" width="6.47108" height="6.47108" rx="3.23554" fill="url(#paint10_linear_556_25755)"/>
<path d="M11.4365 2.90027C12.6157 2.90048 13.5712 3.8568 13.5713 5.03601C13.5711 6.21511 12.6156 7.17057 11.4365 7.17078C10.2574 7.17062 9.30099 6.21514 9.30078 5.03601C9.30086 3.85677 10.2573 2.90042 11.4365 2.90027ZM11.4365 3.02917C10.3286 3.02933 9.42977 3.92812 9.42969 5.03601C9.4299 6.14379 10.3287 7.04172 11.4365 7.04187C12.5443 7.04166 13.4422 6.14376 13.4424 5.03601C13.4423 3.92815 12.5444 3.02938 11.4365 3.02917ZM11.6914 5.44031C11.8621 5.4726 11.9978 5.56192 12.0986 5.70789L12.249 5.92566L12.0332 6.0741L11.8828 5.8573C11.8231 5.77076 11.7435 5.71824 11.6436 5.70007C11.5439 5.68174 11.4498 5.70218 11.3623 5.76257L10.9824 6.02722C10.8617 6.11073 10.6957 6.08062 10.6123 5.95984L11.2119 5.54578C11.3604 5.44327 11.5208 5.40785 11.6914 5.44031ZM10.9355 4.84167C11.0382 4.99046 11.0731 5.15054 11.041 5.32117C11.0091 5.49205 10.9203 5.62772 10.7744 5.72839L10.5576 5.87781L10.4082 5.66296L10.626 5.51257C10.7121 5.45299 10.7643 5.37321 10.7822 5.27332C10.8004 5.17369 10.7791 5.07968 10.7188 4.99207L10.4531 4.61023C10.3697 4.48979 10.4 4.32441 10.5205 4.24109L10.9355 4.84167ZM12.4619 4.4325L12.2451 4.58289C12.1587 4.6425 12.1059 4.72211 12.0879 4.82214C12.0698 4.92171 12.091 5.01582 12.1514 5.10339L12.417 5.48425C12.5007 5.60477 12.4704 5.77102 12.3496 5.85437L11.9346 5.25378C11.8319 5.10503 11.797 4.94487 11.8291 4.77429C11.861 4.60342 11.9499 4.46775 12.0957 4.36707L12.3125 4.21667L12.4619 4.4325ZM11.8789 4.04968C11.9996 3.96597 12.1656 3.99613 12.249 4.11707L11.6494 4.53113C11.5009 4.63364 11.3405 4.66808 11.1699 4.63562C10.9992 4.60331 10.8635 4.51413 10.7627 4.36804L10.6123 4.15027L10.8281 4.00183L10.9775 4.2196C11.0373 4.30614 11.1178 4.35866 11.2178 4.37683C11.3173 4.39509 11.4116 4.3737 11.499 4.31335L11.8789 4.04968Z" fill="url(#paint11_linear_556_25755)"/>
</g>
<rect x="0.1" y="0.1" width="17.8" height="17.8" rx="8.9" stroke="#252A2D" stroke-width="0.2"/>
<defs>
<linearGradient id="paint0_linear_556_25755" x1="9" y1="0" x2="9" y2="18" gradientUnits="userSpaceOnUse">
<stop stop-color="#00140E"/>
<stop offset="1" stop-color="#023224"/>
</linearGradient>
<linearGradient id="paint1_linear_556_25755" x1="12.5" y1="1.50012" x2="8.50391" y2="10.5019" gradientUnits="userSpaceOnUse">
<stop stop-color="white"/>
<stop offset="1" stop-color="#CDDACD"/>
</linearGradient>
<linearGradient id="paint2_linear_556_25755" x1="9.81417" y1="10.4884" x2="9.81417" y2="15.0949" gradientUnits="userSpaceOnUse">
<stop stop-color="#02291D"/>
<stop offset="1" stop-color="#023022"/>
</linearGradient>
<linearGradient id="paint3_linear_556_25755" x1="9.81417" y1="10.4884" x2="9.8217" y2="14.4478" gradientUnits="userSpaceOnUse">
<stop stop-color="white"/>
<stop offset="1" stop-color="#CDDACD"/>
</linearGradient>
<linearGradient id="paint4_linear_556_25755" x1="6.76289" y1="1.79999" x2="6.76289" y2="8.27107" gradientUnits="userSpaceOnUse">
<stop stop-color="#011811"/>
<stop offset="1" stop-color="#012219"/>
</linearGradient>
<linearGradient id="paint5_linear_556_25755" x1="6.77855" y1="3.82631" x2="6.78478" y2="5.93869" gradientUnits="userSpaceOnUse">
<stop stop-color="white"/>
<stop offset="1" stop-color="#CDDACD"/>
</linearGradient>
<linearGradient id="paint6_linear_556_25755" x1="5.72328" y1="3.10849" x2="5.74438" y2="6.42138" gradientUnits="userSpaceOnUse">
<stop stop-color="white"/>
<stop offset="1" stop-color="#CDDACD"/>
</linearGradient>
<linearGradient id="paint7_linear_556_25755" x1="5.66896" y1="3.0005" x2="5.69117" y2="6.50318" gradientUnits="userSpaceOnUse">
<stop stop-color="white"/>
<stop offset="1" stop-color="#CDDACD"/>
</linearGradient>
<linearGradient id="paint8_linear_556_25755" x1="7.7975" y1="3.11119" x2="7.81859" y2="6.42408" gradientUnits="userSpaceOnUse">
<stop stop-color="white"/>
<stop offset="1" stop-color="#CDDACD"/>
</linearGradient>
<linearGradient id="paint9_linear_556_25755" x1="7.85255" y1="3.0032" x2="7.87477" y2="6.50588" gradientUnits="userSpaceOnUse">
<stop stop-color="white"/>
<stop offset="1" stop-color="#CDDACD"/>
</linearGradient>
<linearGradient id="paint10_linear_556_25755" x1="11.4348" y1="1.79999" x2="11.4348" y2="8.27107" gradientUnits="userSpaceOnUse">
<stop stop-color="#011811"/>
<stop offset="1" stop-color="#012219"/>
</linearGradient>
<linearGradient id="paint11_linear_556_25755" x1="11.436" y1="2.90027" x2="11.4469" y2="6.57084" gradientUnits="userSpaceOnUse">
<stop stop-color="white"/>
<stop offset="1" stop-color="#CDDACD"/>
</linearGradient>
<clipPath id="clip0_556_25755">
<rect width="18" height="18" rx="9" fill="white"/>
</clipPath>
</defs>
</svg>
