<svg width="18" height="18" viewBox="0 0 18 18" fill="none" xmlns="http://www.w3.org/2000/svg">
<g clip-path="url(#clip0_114_4584)">
<path d="M0 9C0 4.02944 4.02944 0 9 0C13.9706 0 18 4.02944 18 9C18 13.9706 13.9706 18 9 18C4.02944 18 0 13.9706 0 9Z" fill="url(#paint0_linear_114_4584)"/>
<path d="M9 18C13.9706 18 18 13.9706 18 9C18 4.02944 13.9706 0 9 0C4.02944 0 0 4.02944 0 9C0 13.9706 4.02944 18 9 18Z" fill="url(#paint1_linear_114_4584)"/>
<path d="M18 9C18 13.9706 13.9706 18 9 18C4.02944 18 0 13.9706 0 9C0 4.02944 4.02944 0 9 0C13.9706 0 18 4.02944 18 9ZM0.194348 9C0.194348 13.8632 4.13677 17.8057 9 17.8057C13.8632 17.8057 17.8057 13.8632 17.8057 9C17.8057 4.13677 13.8632 0.194348 9 0.194348C4.13677 0.194348 0.194348 4.13677 0.194348 9Z" fill="#252A2D"/>
<path fill-rule="evenodd" clip-rule="evenodd" d="M4.74803 4.95426C4.81566 4.88934 4.90493 4.85147 4.9969 4.85147H9.05212V6.95062H3.17638C3.01948 6.95062 2.94103 6.76126 3.05194 6.65035L4.74803 4.95426ZM4.74803 11.2868C4.81295 11.2218 4.90222 11.184 4.9969 11.184H9.05212V13.2831H3.17638C3.01948 13.2831 2.94103 13.0938 3.05194 12.9829L4.74803 11.2868ZM9.05212 10.0972H4.9969C4.90222 10.0972 4.81295 10.0593 4.74803 9.99437L3.05194 8.29829C2.94103 8.18738 3.01948 7.99802 3.17638 7.99802H9.05212V10.0972Z" fill="url(#paint2_linear_114_4584)"/>
<path fill-rule="evenodd" clip-rule="evenodd" d="M9.71826 6.69076C9.71826 6.67447 9.72338 6.65861 9.73288 6.64539L11.8124 3.75454C11.8607 3.68733 11.9666 3.73229 11.9519 3.81375L11.3192 7.30497C11.3096 7.35777 11.3552 7.40413 11.4082 7.39548L14.9099 6.82386C14.9916 6.81051 15.0347 6.91721 14.9667 6.96436L12.0506 8.98568C12.0065 9.01624 12.006 9.08124 12.0495 9.11258L14.9298 11.1845C14.997 11.2328 14.9521 11.3387 14.8706 11.324L11.3794 10.6913C11.3266 10.6818 11.2802 10.7273 11.2889 10.7803L11.8605 14.282C11.8739 14.3637 11.7672 14.4068 11.72 14.3388L9.73211 11.4709C9.72309 11.4579 9.71826 11.4425 9.71826 11.4267V6.69076Z" fill="url(#paint3_linear_114_4584)"/>
</g>
<defs>
<linearGradient id="paint0_linear_114_4584" x1="9" y1="0" x2="9" y2="18" gradientUnits="userSpaceOnUse">
<stop stop-color="#00140E"/>
<stop offset="1" stop-color="#023224"/>
</linearGradient>
<linearGradient id="paint1_linear_114_4584" x1="9" y1="0" x2="9" y2="18" gradientUnits="userSpaceOnUse">
<stop stop-color="#00140E"/>
<stop offset="1" stop-color="#023224"/>
</linearGradient>
<linearGradient id="paint2_linear_114_4584" x1="6.02606" y1="4.85147" x2="6.05592" y2="12.0986" gradientUnits="userSpaceOnUse">
<stop stop-color="white"/>
<stop offset="1" stop-color="#CDDACD"/>
</linearGradient>
<linearGradient id="paint3_linear_114_4584" x1="12.3593" y1="3.72191" x2="12.4139" y2="12.876" gradientUnits="userSpaceOnUse">
<stop stop-color="white"/>
<stop offset="1" stop-color="#CDDACD"/>
</linearGradient>
<clipPath id="clip0_114_4584">
<path d="M0 9C0 4.02944 4.02944 0 9 0C13.9706 0 18 4.02944 18 9C18 13.9706 13.9706 18 9 18C4.02944 18 0 13.9706 0 9Z" fill="white"/>
</clipPath>
</defs>
</svg>
