<svg width="18" height="18" viewBox="0 0 18 18" fill="none" xmlns="http://www.w3.org/2000/svg">
<rect x="0.09" y="0.0902747" width="17.82" height="17.82" rx="8.91" fill="url(#paint0_linear_692_11857)"/>
<rect x="0.09" y="0.0902747" width="17.82" height="17.82" rx="8.91" stroke="#252A2D" stroke-width="0.18"/>
<path d="M12.5762 9.2532C13.9145 9.76074 15.1449 10.55 16.1758 11.5872C16.1831 11.5945 16.19 11.6023 16.1973 11.6096H14.9502C14.231 11.0077 13.43 10.5217 12.5762 10.1634V11.6331H11.7666V9.86649C10.8781 9.58741 9.94514 9.44168 8.99707 9.44168C8.04859 9.44168 7.11541 9.58815 6.22656 9.86746V11.6106H5.41602V10.1634C4.56282 10.5216 3.76263 11.008 3.04395 11.6096H1.79688C1.80415 11.6023 1.81106 11.5945 1.81836 11.5872C2.84867 10.5505 4.07844 9.76175 5.41602 9.25418V6.36746H12.5762V9.2532ZM6.22656 8.98563C7.12031 8.73039 8.05152 8.595 8.99707 8.595C9.94222 8.595 10.8732 8.72963 11.7666 8.98465V7.17801H6.22656V8.98563Z" fill="url(#paint1_linear_692_11857)"/>
<defs>
<linearGradient id="paint0_linear_692_11857" x1="9" y1="0.000274658" x2="9" y2="18.0003" gradientUnits="userSpaceOnUse">
<stop stop-color="#00140E"/>
<stop offset="1" stop-color="#023224"/>
</linearGradient>
<linearGradient id="paint1_linear_692_11857" x1="8.99707" y1="6.36746" x2="9.00196" y2="10.8934" gradientUnits="userSpaceOnUse">
<stop stop-color="white"/>
<stop offset="1" stop-color="#CDDACD"/>
</linearGradient>
</defs>
</svg>
