<svg width="22" height="22" viewBox="0 0 22 22" fill="none" xmlns="http://www.w3.org/2000/svg">
<rect x="0.5" y="0.5" width="21" height="21" rx="10.5" fill="url(#paint0_linear_1013_71254)"/>
<rect x="0.5" y="0.5" width="21" height="21" rx="10.5" stroke="url(#paint1_linear_1013_71254)"/>
<g clip-path="url(#clip0_1013_71254)">
<path d="M16.9712 14.275L14.9795 16.5228C14.9362 16.5716 14.8838 16.6105 14.8256 16.6371C14.7674 16.6637 14.7046 16.6774 14.6412 16.6774H5.19996C5.15491 16.6774 5.11084 16.6636 5.07317 16.6376C5.0355 16.6116 5.00587 16.5746 4.98791 16.5311C4.96996 16.4876 4.96446 16.4396 4.9721 16.3928C4.97974 16.3461 5.00018 16.3028 5.03091 16.2681L7.02403 14.0204C7.06721 13.9717 7.11942 13.9328 7.17744 13.9062C7.23547 13.8796 7.29806 13.8658 7.36136 13.8657H16.8021C16.8471 13.8657 16.8912 13.8796 16.9289 13.9056C16.9665 13.9316 16.9961 13.9686 17.0142 14.0121C17.0321 14.0556 17.0376 14.1036 17.0299 14.1503C17.0223 14.197 17.0019 14.2404 16.9712 14.275ZM14.9795 9.74879C14.9362 9.69996 14.8838 9.66104 14.8256 9.63443C14.7674 9.60784 14.7046 9.59412 14.6412 9.59416H5.19996C5.15491 9.59416 5.11084 9.608 5.07317 9.634C5.0355 9.66 5.00587 9.69701 4.98791 9.74048C4.96996 9.78396 4.96446 9.83202 4.9721 9.87874C4.97974 9.92545 5.00018 9.9688 5.03091 10.0035L7.02403 12.2512C7.06721 12.2999 7.11942 12.3387 7.17744 12.3653C7.23547 12.3919 7.29806 12.4057 7.36136 12.4058H16.8021C16.8471 12.4058 16.8912 12.392 16.9289 12.366C16.9665 12.34 16.9961 12.303 17.0142 12.2595C17.0321 12.216 17.0376 12.168 17.0299 12.1212C17.0223 12.0745 17.0019 12.0312 16.9712 11.9965L14.9795 9.74879ZM5.19996 8.13425H14.6412C14.7046 8.13427 14.7674 8.12057 14.8256 8.09396C14.8838 8.06736 14.9362 8.02843 14.9795 7.9796L16.9712 5.73189C17.0019 5.69722 17.0223 5.65387 17.0299 5.60715C17.0376 5.56043 17.0321 5.51238 17.0142 5.4689C16.9961 5.42543 16.9665 5.38842 16.9289 5.36242C16.8912 5.33642 16.8471 5.32257 16.8021 5.32257H7.36136C7.29806 5.32268 7.23547 5.33647 7.17744 5.36307C7.11942 5.38967 7.06721 5.42852 7.02403 5.47721L5.03143 7.72493C5.00072 7.75955 4.98029 7.80287 4.97263 7.84953C4.96498 7.8962 4.97043 7.94421 4.98832 7.98767C5.00622 8.03113 5.03577 8.06813 5.07337 8.09417C5.11096 8.12021 5.15496 8.13413 5.19996 8.13425Z" fill="url(#paint2_linear_1013_71254)"/>
</g>
<defs>
<linearGradient id="paint0_linear_1013_71254" x1="11" y1="0" x2="11" y2="22" gradientUnits="userSpaceOnUse">
<stop stop-color="#00140E"/>
<stop offset="1" stop-color="#023224"/>
</linearGradient>
<linearGradient id="paint1_linear_1013_71254" x1="11" y1="3.33331e-09" x2="11.0559" y2="18.9093" gradientUnits="userSpaceOnUse">
<stop stop-color="white"/>
<stop offset="1" stop-color="#CDDACD"/>
</linearGradient>
<linearGradient id="paint2_linear_1013_71254" x1="11.001" y1="5.32257" x2="11.0282" y2="15.0822" gradientUnits="userSpaceOnUse">
<stop stop-color="white"/>
<stop offset="1" stop-color="#CDDACD"/>
</linearGradient>
<clipPath id="clip0_1013_71254">
<rect width="12.0645" height="11.3548" fill="white" transform="translate(4.96875 5.32257)"/>
</clipPath>
</defs>
</svg>
