<svg width="22" height="22" viewBox="0 0 22 22" fill="none" xmlns="http://www.w3.org/2000/svg">
<rect x="0.1" y="0.1" width="21.8" height="21.8" rx="10.9" fill="url(#paint0_linear_1264_55427)"/>
<rect x="0.1" y="0.1" width="21.8" height="21.8" rx="10.9" stroke="#252A2D" stroke-width="0.2"/>
<path d="M6.5 17H5V15.5H6.5V17ZM12.5 9.5V11H11V12.5H9.5L9.49805 14H8.00195V15.5H6.50195V12.5H8V11H9.5V9.5H12.5ZM14.002 9.40625H16.9062V10.9062H13.9062V9.5H12.502V8H14.002V9.40625ZM11.002 8H9.50195V6.5H11.002V8ZM15.5039 8H14.0039V5H15.5039V8ZM12.502 6.5H11.002V5H12.502V6.5Z" fill="url(#paint1_linear_1264_55427)"/>
<path d="M9.49805 15.5H7.99805V14H9.49805V15.5ZM11 14H9.5V12.5H11V14ZM12.5 12.5H11V11H12.5V12.5ZM16.9062 12.4062H15.4062V10.9062H16.9062V12.4062ZM12.502 8H11.002V6.5H12.502V8ZM17 8H15.5V6.5H17V8Z" fill="#C8D4CC"/>
<defs>
<linearGradient id="paint0_linear_1264_55427" x1="11" y1="0" x2="11" y2="22" gradientUnits="userSpaceOnUse">
<stop stop-color="#00140E"/>
<stop offset="1" stop-color="#023224"/>
</linearGradient>
<linearGradient id="paint1_linear_1264_55427" x1="10.9531" y1="5" x2="10.9839" y2="15.3142" gradientUnits="userSpaceOnUse">
<stop stop-color="white"/>
<stop offset="1" stop-color="#CDDACD"/>
</linearGradient>
</defs>
</svg>
