<svg width="22" height="22" viewBox="0 0 22 22" fill="none" xmlns="http://www.w3.org/2000/svg">
<path d="M11 0.12207C17.0076 0.12207 21.8779 4.99237 21.8779 11C21.8779 17.0076 17.0076 21.8779 11 21.8779C4.99237 21.8779 0.12207 17.0076 0.12207 11C0.12207 4.99237 4.99237 0.12207 11 0.12207Z" fill="url(#paint0_linear_1326_83138)"/>
<path d="M11 0.12207C17.0076 0.12207 21.8779 4.99237 21.8779 11C21.8779 17.0076 17.0076 21.8779 11 21.8779C4.99237 21.8779 0.12207 17.0076 0.12207 11C0.12207 4.99237 4.99237 0.12207 11 0.12207Z" stroke="#252A2D" stroke-width="0.244444"/>
<path d="M10.9011 3.75182C10.9173 3.63828 11.0813 3.63828 11.0976 3.75182L11.8904 9.30178L14.682 7.20813C14.7738 7.1393 14.8898 7.25527 14.821 7.34704L12.7444 10.1157L18.2475 10.9018C18.3611 10.918 18.3611 11.082 18.2475 11.0982L12.7445 11.8843L14.821 14.6529C14.8898 14.7447 14.7738 14.8607 14.682 14.7919L11.8904 12.6981L11.0976 18.2482C11.0813 18.3618 10.9173 18.3618 10.9011 18.2482L10.1141 12.7383L7.37603 14.7919C7.28427 14.8607 7.16831 14.7447 7.23712 14.6529L9.30781 11.892L3.75117 11.0982C3.63763 11.082 3.63763 10.918 3.75117 10.9018L9.3079 10.1079L7.23722 7.34704C7.1684 7.25528 7.28427 7.13935 7.37603 7.20813L10.1141 9.26158L10.9011 3.75182Z" fill="url(#paint1_linear_1326_83138)"/>
<defs>
<linearGradient id="paint0_linear_1326_83138" x1="11" y1="0" x2="11" y2="22" gradientUnits="userSpaceOnUse">
<stop stop-color="#00140E"/>
<stop offset="1" stop-color="#023224"/>
</linearGradient>
<linearGradient id="paint1_linear_1326_83138" x1="10.9993" y1="3.66666" x2="11.0366" y2="16.2729" gradientUnits="userSpaceOnUse">
<stop stop-color="white"/>
<stop offset="1" stop-color="#CDDACD"/>
</linearGradient>
</defs>
</svg>
