<svg width="22" height="22" viewBox="0 0 22 22" fill="none" xmlns="http://www.w3.org/2000/svg">
<rect x="0.1" y="0.1" width="21.8012" height="21.8" rx="10.9" fill="url(#paint0_linear_1235_60059)"/>
<rect x="0.1" y="0.1" width="21.8012" height="21.8" rx="10.9" stroke="#252A2D" stroke-width="0.2"/>
<path d="M14.7432 5.57932H15.4336V6.26877H16.123V6.90939H16.8135V7.64865H16.1211V6.90939H15.4307V6.26877H14.7402V7.64865H14.0527V4.88889H14.7432V5.57932Z" fill="url(#paint1_linear_1235_60059)"/>
<path d="M14.0557 5.57932H6.71191V16.4211H7.99316V17.1115H5.97266V4.88889H14.0557V5.57932ZM16.8154 17.1115H12.1328V16.4211H16.0762V13.0207H16.8154V17.1115ZM14.0557 7.64865H16.8154V10.261H16.0762V8.24045H15.5342V15.6819H7.35254V6.31857H14.0557V7.64865ZM9.89746 12.342C9.86932 12.3421 9.84123 12.3475 9.81543 12.3586C9.78964 12.3697 9.76627 12.3862 9.74707 12.4065L8.86035 13.343C8.84676 13.3573 8.83743 13.3754 8.83398 13.3947C8.83061 13.4141 8.83295 13.4343 8.84082 13.4524C8.84881 13.4705 8.86214 13.4865 8.87891 13.4973C8.89566 13.5081 8.91551 13.5139 8.93555 13.5139H13.1387C13.1668 13.5138 13.1949 13.5083 13.2207 13.4973C13.2466 13.4862 13.2698 13.4697 13.2891 13.4494L14.1758 12.5129C14.1894 12.4986 14.1987 12.4805 14.2021 12.4612C14.2055 12.4418 14.2022 12.4216 14.1943 12.4035C14.1863 12.3854 14.173 12.3694 14.1562 12.3586C14.1396 12.348 14.1204 12.3421 14.1006 12.342H9.89746ZM8.93555 10.5627C8.91549 10.5627 8.89568 10.5685 8.87891 10.5793C8.86225 10.5901 8.84878 10.6052 8.84082 10.6233C8.83286 10.6414 8.83059 10.6614 8.83398 10.6809C8.83739 10.7003 8.84668 10.7182 8.86035 10.7326L9.74707 11.6692C9.76624 11.6894 9.78968 11.7059 9.81543 11.717C9.84123 11.7281 9.86932 11.7336 9.89746 11.7336H14.1006C14.1204 11.7335 14.1396 11.7277 14.1562 11.717C14.1729 11.7062 14.1863 11.691 14.1943 11.6731C14.2023 11.655 14.2055 11.6348 14.2021 11.6154C14.1988 11.5961 14.1893 11.5781 14.1758 11.5637L13.2891 10.6272C13.2699 10.6069 13.2465 10.5904 13.2207 10.5793C13.1949 10.5683 13.1668 10.5627 13.1387 10.5627H8.93555ZM9.89746 8.78244C9.86932 8.7825 9.84123 8.78797 9.81543 8.79904C9.78966 8.81012 9.76626 8.82664 9.74707 8.84689L8.86035 9.78342C8.84672 9.79782 8.8374 9.81578 8.83398 9.83517C8.83059 9.85455 8.83292 9.87473 8.84082 9.89279C8.84879 9.9109 8.86217 9.92686 8.87891 9.93771C8.89561 9.94851 8.91556 9.95427 8.93555 9.95432H13.1387C13.1668 9.95427 13.1949 9.94777 13.2207 9.93674C13.2464 9.92568 13.2699 9.91005 13.2891 9.88986L14.1758 8.95334C14.1894 8.9389 14.1987 8.92007 14.2021 8.9006C14.2054 8.88127 14.2023 8.86097 14.1943 8.84299C14.1863 8.82505 14.1729 8.80979 14.1562 8.79904C14.1396 8.78839 14.1204 8.78251 14.1006 8.78244H9.89746Z" fill="url(#paint2_linear_1235_60059)"/>
<defs>
<linearGradient id="paint0_linear_1235_60059" x1="11.0006" y1="0" x2="11.0006" y2="22" gradientUnits="userSpaceOnUse">
<stop stop-color="#00140E"/>
<stop offset="1" stop-color="#023224"/>
</linearGradient>
<linearGradient id="paint1_linear_1235_60059" x1="15.4331" y1="4.88889" x2="15.4401" y2="7.26095" gradientUnits="userSpaceOnUse">
<stop stop-color="white"/>
<stop offset="1" stop-color="#CDDACD"/>
</linearGradient>
<linearGradient id="paint2_linear_1235_60059" x1="11.394" y1="4.88889" x2="11.4291" y2="15.3944" gradientUnits="userSpaceOnUse">
<stop stop-color="white"/>
<stop offset="1" stop-color="#CDDACD"/>
</linearGradient>
</defs>
</svg>
