<svg width="22" height="22" viewBox="0 0 22 22" fill="none" xmlns="http://www.w3.org/2000/svg">
<rect x="0.1" y="0.1" width="21.8012" height="21.8" rx="10.9" fill="url(#paint0_linear_1088_50999)"/>
<rect x="0.1" y="0.1" width="21.8012" height="21.8" rx="10.9" stroke="#252A2D" stroke-width="0.2"/>
<g clip-path="url(#clip0_1088_50999)">
<path d="M16.74 5.43L15.05 9.31C15.27 9.83 15.39 10.4 15.39 11C15.39 13.42 13.43 15.39 11 15.39C10.98 15.39 10.97 15.39 10.96 15.39L14.21 8C14.21 8 14.21 8.01 14.22 8.02L15.75 4.56C14.42 3.58 12.78 3 11 3C6.58 3 3 6.58 3 11C3 15.42 6.58 19 11 19C15.42 19 19 15.42 19 11C19 8.83 18.14 6.87 16.74 5.43ZM6.61 11C6.61 8.58 8.57 6.61 11 6.61C11.19 6.61 11.38 6.62 11.57 6.65L8.12 14.31C7.2 13.51 6.62 12.32 6.62 11.01L6.61 11Z" fill="url(#paint1_linear_1088_50999)"/>
</g>
<defs>
<linearGradient id="paint0_linear_1088_50999" x1="11.0006" y1="0" x2="11.0006" y2="22" gradientUnits="userSpaceOnUse">
<stop stop-color="#00140E"/>
<stop offset="1" stop-color="#023224"/>
</linearGradient>
<linearGradient id="paint1_linear_1088_50999" x1="11" y1="3" x2="11.0407" y2="16.7523" gradientUnits="userSpaceOnUse">
<stop stop-color="white"/>
<stop offset="1" stop-color="#CDDACD"/>
</linearGradient>
<clipPath id="clip0_1088_50999">
<rect width="16" height="16" fill="white" transform="translate(3 3)"/>
</clipPath>
</defs>
</svg>
