<svg width="22" height="22" viewBox="0 0 22 22" fill="none" xmlns="http://www.w3.org/2000/svg">
<path d="M11 0.120117C17.0086 0.120118 21.8799 4.99145 21.8799 11C21.8799 17.0086 17.0086 21.8799 11 21.8799C4.99145 21.8799 0.120118 17.0086 0.120117 11C0.120117 4.99145 4.99145 0.120117 11 0.120117Z" fill="url(#paint0_linear_1133_79555)"/>
<path d="M11 0.120117C17.0086 0.120118 21.8799 4.99145 21.8799 11C21.8799 17.0086 17.0086 21.8799 11 21.8799C4.99145 21.8799 0.120118 17.0086 0.120117 11C0.120117 4.99145 4.99145 0.120117 11 0.120117Z" stroke="#252A2D" stroke-width="0.241096"/>
<path fill-rule="evenodd" clip-rule="evenodd" d="M2.15912 11C2.15912 6.11769 6.11699 2.15982 10.9993 2.15982C15.8816 2.15982 19.8394 6.11769 19.8394 11C19.8394 15.8823 15.8816 19.8401 10.9993 19.8401C6.11699 19.8401 2.15912 15.8823 2.15912 11ZM10.9993 1.35617C5.67315 1.35617 1.35547 5.67385 1.35547 11C1.35547 16.3261 5.67315 20.6438 10.9993 20.6438C16.3254 20.6438 20.6431 16.3261 20.6431 11C20.6431 5.67385 16.3254 1.35617 10.9993 1.35617ZM7.45542 6.97665C7.35788 6.97665 7.26436 7.01533 7.19545 7.08424L5.418 8.86022C5.3021 8.97611 5.38411 9.1742 5.54798 9.1742H14.5431C14.6406 9.1742 14.7341 9.13552 14.803 9.06661L16.5804 7.29063C16.6963 7.17474 16.6143 6.97665 16.4504 6.97665H7.45542ZM7.45542 13.6116C7.35788 13.6116 7.26436 13.6503 7.19545 13.7192L5.418 15.4954C5.3021 15.6111 5.38411 15.8093 5.54798 15.8093H14.5431C14.6406 15.8093 14.7341 15.7706 14.803 15.7017L16.5804 13.9257C16.6963 13.8098 16.6143 13.6116 16.4504 13.6116H7.45542ZM14.803 10.3807C14.7341 10.3118 14.6406 10.273 14.5431 10.273H10.0455H5.54798C5.38411 10.273 5.3021 10.4712 5.418 10.587L7.19545 12.3631C7.26436 12.4319 7.35788 12.4706 7.45542 12.4706H16.4504C16.6143 12.4706 16.6963 12.2725 16.5804 12.1567L14.803 10.3807Z" fill="url(#paint1_linear_1133_79555)"/>
<defs>
<linearGradient id="paint0_linear_1133_79555" x1="11" y1="0" x2="11" y2="22" gradientUnits="userSpaceOnUse">
<stop stop-color="#00140E"/>
<stop offset="1" stop-color="#023224"/>
</linearGradient>
<linearGradient id="paint1_linear_1133_79555" x1="10.9993" y1="1.35617" x2="11.0069" y2="17.7222" gradientUnits="userSpaceOnUse">
<stop stop-color="white"/>
<stop offset="1" stop-color="#CDDACD"/>
</linearGradient>
</defs>
</svg>
