<svg width="18" height="18" viewBox="0 0 18 18" fill="none" xmlns="http://www.w3.org/2000/svg">
<path d="M9 0.0996094C13.9153 0.0996094 17.9004 4.08467 17.9004 9C17.9004 13.9153 13.9153 17.9004 9 17.9004C4.08467 17.9004 0.0996094 13.9153 0.0996094 9C0.0996094 4.08467 4.08467 0.0996094 9 0.0996094Z" fill="url(#paint0_linear_1460_52865)"/>
<path d="M9 0.0996094C13.9153 0.0996094 17.9004 4.08467 17.9004 9C17.9004 13.9153 13.9153 17.9004 9 17.9004C4.08467 17.9004 0.0996094 13.9153 0.0996094 9C0.0996094 4.08467 4.08467 0.0996094 9 0.0996094Z" stroke="#252A2D" stroke-width="0.2"/>
<path d="M8.99902 2C12.9011 2.00007 16.0644 5.16335 16.0645 9.06543C16.0645 12.9676 12.9012 16.1308 8.99902 16.1309C5.0969 16.1308 1.93359 12.9676 1.93359 9.06543C1.93368 5.16336 5.09695 2.00009 8.99902 2ZM8.99902 2.25977C5.24038 2.25985 2.19345 5.30678 2.19336 9.06543C2.19336 12.8242 5.24032 15.871 8.99902 15.8711C12.7577 15.871 15.8047 12.8242 15.8047 9.06543C15.8046 5.30678 12.7577 2.25984 8.99902 2.25977ZM13.041 11.0693C13.1628 11.0693 13.2237 11.2166 13.1377 11.3027L11.8164 12.623C11.7651 12.6743 11.6955 12.7031 11.623 12.7031H4.93555C4.81372 12.7031 4.75269 12.5558 4.83887 12.4697L6.16016 11.1494C6.21137 11.0982 6.28104 11.0694 6.35352 11.0693H13.041ZM11.623 8.59082C11.6955 8.59082 11.7651 8.61968 11.8164 8.6709L13.1377 9.99121C13.2239 10.0773 13.1628 10.2246 13.041 10.2246H6.35352C6.28104 10.2246 6.21137 10.1957 6.16016 10.1445L4.83887 8.82422C4.75282 8.7381 4.81376 8.59082 4.93555 8.59082H11.623ZM13.041 6.13867C13.1628 6.13867 13.2239 6.28591 13.1377 6.37207L11.8164 7.69238C11.7651 7.7436 11.6955 7.77246 11.623 7.77246H4.93555C4.81377 7.77246 4.75285 7.62523 4.83887 7.53906L6.16016 6.21875C6.21137 6.16754 6.28104 6.1387 6.35352 6.13867H13.041Z" fill="url(#paint1_linear_1460_52865)"/>
<defs>
<linearGradient id="paint0_linear_1460_52865" x1="9" y1="0" x2="9" y2="18" gradientUnits="userSpaceOnUse">
<stop stop-color="#00140E"/>
<stop offset="1" stop-color="#023224"/>
</linearGradient>
<linearGradient id="paint1_linear_1460_52865" x1="9" y1="2.12988" x2="9.03559" y2="14.1631" gradientUnits="userSpaceOnUse">
<stop stop-color="white"/>
<stop offset="1" stop-color="#CDDACD"/>
</linearGradient>
</defs>
</svg>
