<svg width="22" height="22" viewBox="0 0 22 22" fill="none" xmlns="http://www.w3.org/2000/svg">
<g clip-path="url(#clip0_889_58032)">
<path d="M0 11C0 4.92487 4.92487 0 11 0V0C17.0751 0 22 4.92487 22 11V11C22 17.0751 17.0751 22 11 22V22C4.92487 22 0 17.0751 0 11V11Z" fill="url(#paint0_linear_889_58032)"/>
<path d="M19.7842 17.0569C19.5012 15.9096 18.9892 14.8309 18.2788 13.8852C17.5684 12.9395 16.6741 12.1462 15.6493 11.5527C14.6245 10.9592 13.4902 10.5776 12.3143 10.4308C11.1383 10.284 9.94466 10.3749 8.80469 10.6981C10.7091 10.9305 12.8231 11.6431 14.8962 12.8437C16.9693 14.0443 18.6389 15.5217 19.7842 17.0569Z" fill="url(#paint1_linear_889_58032)"/>
<path d="M17.0187 21.2632C16.0439 19.6493 14.374 18.104 12.3169 16.9127C10.2598 15.7214 8.08648 15.0409 6.19891 14.9959C4.53831 14.9567 3.29199 15.4379 2.78041 16.3159C2.7775 16.3211 2.77342 16.3261 2.77021 16.3313C2.72418 16.4959 2.68456 16.6609 2.64844 16.8264C3.36279 16.5453 4.19046 16.3888 5.11077 16.3713C7.15739 16.333 9.44785 16.9856 11.5615 18.2097C13.6751 19.4338 15.3797 21.0947 16.3597 22.8855C16.7991 23.6923 17.0732 24.4866 17.1819 25.2455C17.3083 25.1328 17.4324 25.0163 17.5527 24.8952C17.556 24.8897 17.558 24.8838 17.5612 24.878C18.0728 23.9992 17.875 22.6819 17.0187 21.2632Z" fill="url(#paint2_linear_889_58032)"/>
<path d="M10.7506 19.6007C7.60045 17.7763 4.11931 17.4905 2.44531 18.7637C2.4486 19.1622 2.47916 19.56 2.53679 19.9544C3.02922 19.8056 3.53674 19.7119 4.04997 19.675C5.92064 19.5347 7.98295 20.0543 9.8545 21.1387C11.726 22.2232 13.2013 23.7525 14.006 25.4407C14.2284 25.9032 14.398 26.3891 14.5117 26.8893C14.8841 26.7439 15.246 26.5734 15.5952 26.3791C15.8755 24.2985 13.9017 21.4254 10.7506 19.6007Z" fill="url(#paint3_linear_889_58032)"/>
<path d="M18.6322 18.5658C17.6463 16.9536 15.9618 15.4039 13.8902 14.2048C11.8185 13.0057 9.63668 12.3145 7.74302 12.259C6.29945 12.2175 5.18131 12.5663 4.60156 13.2252C7.00884 12.8186 10.1841 13.502 13.2617 15.2843C16.3394 17.0666 18.5086 19.4783 19.3459 21.7641C19.6329 20.9362 19.3832 19.7951 18.6322 18.5658Z" fill="url(#paint4_linear_889_58032)"/>
<path d="M6.75 8.89656V3.66666H7.85574V7.9849H10.0978V8.89656H6.75ZM11.4838 8.89656V3.66666H13.5472C13.9439 3.66666 14.2818 3.74242 14.561 3.89393C14.8402 4.04375 15.053 4.25231 15.1994 4.5196C15.3475 4.78516 15.4215 5.09159 15.4215 5.43889C15.4215 5.78619 15.3467 6.09262 15.1968 6.35818C15.047 6.6238 14.83 6.83066 14.5457 6.97874C14.2631 7.12682 13.9209 7.20093 13.5191 7.20093H12.204V6.31481H13.3404C13.5531 6.31481 13.7285 6.27817 13.8664 6.20497C14.006 6.13009 14.1098 6.02705 14.1779 5.89597C14.2477 5.76322 14.2826 5.61084 14.2826 5.43889C14.2826 5.26527 14.2477 5.11372 14.1779 4.98431C14.1098 4.85323 14.006 4.75199 13.8664 4.68045C13.7268 4.60724 13.5497 4.57067 13.3352 4.57067H12.5896V8.89656H11.4838Z" fill="url(#paint5_linear_889_58032)"/>
</g>
<path d="M11 0.12207C17.0076 0.12207 21.8779 4.99237 21.8779 11C21.8779 17.0076 17.0076 21.8779 11 21.8779C4.99237 21.8779 0.12207 17.0076 0.12207 11C0.12207 4.99237 4.99237 0.12207 11 0.12207Z" stroke="#252A2D" stroke-width="0.244444"/>
<defs>
<linearGradient id="paint0_linear_889_58032" x1="11" y1="0" x2="11" y2="22" gradientUnits="userSpaceOnUse">
<stop stop-color="#00140E"/>
<stop offset="1" stop-color="#023224"/>
</linearGradient>
<linearGradient id="paint1_linear_889_58032" x1="13.4473" y1="14.334" x2="13.4468" y2="10.3733" gradientUnits="userSpaceOnUse">
<stop stop-color="white"/>
<stop offset="1" stop-color="#CDDACD"/>
</linearGradient>
<linearGradient id="paint2_linear_889_58032" x1="9.07218" y1="21.0755" x2="9.07139" y2="15.01" gradientUnits="userSpaceOnUse">
<stop stop-color="white"/>
<stop offset="1" stop-color="#CDDACD"/>
</linearGradient>
<linearGradient id="paint3_linear_889_58032" x1="8.01678" y1="23.2664" x2="8.01609" y2="17.9966" gradientUnits="userSpaceOnUse">
<stop stop-color="white"/>
<stop offset="1" stop-color="#CDDACD"/>
</linearGradient>
<linearGradient id="paint4_linear_889_58032" x1="10.885" y1="17.8965" x2="10.8843" y2="12.2708" gradientUnits="userSpaceOnUse">
<stop stop-color="white"/>
<stop offset="1" stop-color="#CDDACD"/>
</linearGradient>
<linearGradient id="paint5_linear_889_58032" x1="11.0858" y1="3.66666" x2="11.0938" y2="8.16187" gradientUnits="userSpaceOnUse">
<stop stop-color="white"/>
<stop offset="1" stop-color="#CDDACD"/>
</linearGradient>
<clipPath id="clip0_889_58032">
<path d="M0 11C0 4.92487 4.92487 0 11 0V0C17.0751 0 22 4.92487 22 11V11C22 17.0751 17.0751 22 11 22V22C4.92487 22 0 17.0751 0 11V11Z" fill="white"/>
</clipPath>
</defs>
</svg>
