<svg width="22" height="22" viewBox="0 0 22 22" fill="none" xmlns="http://www.w3.org/2000/svg">
<path d="M11 0.12207C17.0076 0.12207 21.8779 4.99237 21.8779 11C21.8779 17.0076 17.0076 21.8779 11 21.8779C4.99237 21.8779 0.12207 17.0076 0.12207 11C0.12207 4.99237 4.99237 0.12207 11 0.12207Z" fill="url(#paint0_linear_15836_51030)"/>
<path d="M11 0.12207C17.0076 0.12207 21.8779 4.99237 21.8779 11C21.8779 17.0076 17.0076 21.8779 11 21.8779C4.99237 21.8779 0.12207 17.0076 0.12207 11C0.12207 4.99237 4.99237 0.12207 11 0.12207Z" stroke="#252A2D" stroke-width="0.244444"/>
<path d="M12.3967 6.11111H9.85704C7.1132 6.11111 4.88867 8.33565 4.88867 11.0795C4.88867 13.8233 7.1132 16.0479 9.85704 16.0479H12.3967C15.1406 16.0479 17.3651 13.8233 17.3651 11.0795C17.3651 8.33565 15.1406 6.11111 12.3967 6.11111ZM12.8593 13.4461C11.216 13.7148 9.81828 12.3144 10.087 10.6739C10.2498 9.67915 11.0533 8.87822 12.0479 8.71286C13.6912 8.44416 15.0889 9.84451 14.8202 11.4851C14.6574 12.4799 13.854 13.2808 12.8593 13.4461Z" fill="url(#paint1_linear_15836_51030)"/>
<defs>
<linearGradient id="paint0_linear_15836_51030" x1="11" y1="0" x2="11" y2="22" gradientUnits="userSpaceOnUse">
<stop stop-color="#00140E"/>
<stop offset="1" stop-color="#023224"/>
</linearGradient>
<linearGradient id="paint1_linear_15836_51030" x1="11.1269" y1="6.11111" x2="11.147" y2="14.6519" gradientUnits="userSpaceOnUse">
<stop stop-color="white"/>
<stop offset="1" stop-color="#CDDACD"/>
</linearGradient>
</defs>
</svg>
