<svg width="24" height="24" viewBox="0 0 24 24" fill="none" xmlns="http://www.w3.org/2000/svg">
<rect width="24" height="24" rx="12" fill="black"/>
<g filter="url(#filter0_di_6499_146516)">
<path d="M11.7468 8.5876L12.6828 6.43481H20.5452V8.5876H11.7468Z" fill="url(#paint0_linear_6499_146516)" shape-rendering="crispEdges"/>
</g>
<g filter="url(#filter1_di_6499_146516)">
<path d="M17.2226 9.71094H15.0464V17.5031H17.2226V9.71094Z" fill="url(#paint1_linear_6499_146516)" shape-rendering="crispEdges"/>
</g>
<g filter="url(#filter2_di_6499_146516)">
<path d="M6.55201 17.4798L11.349 6.41162H9.126L4.32902 17.4798H6.55201Z" fill="url(#paint2_linear_6499_146516)" shape-rendering="crispEdges"/>
<path d="M7.90921 17.4798L10.3662 11.8404C10.6742 11.9328 10.9571 12.0939 11.1938 12.3116L11.4192 12.519L11.5494 12.6687C11.7728 12.9256 11.9484 13.2205 12.068 13.5393C12.1806 13.8397 12.2418 14.157 12.249 14.4779L12.2504 14.5444C12.2578 14.8764 12.2068 15.207 12.0999 15.5213C11.9599 15.9323 11.7276 16.3056 11.4206 16.6126L11.4072 16.626C11.1068 16.9264 10.7445 17.1575 10.3455 17.3033L10.2972 17.3209C9.92534 17.4568 9.53119 17.5214 9.1354 17.5112L7.90921 17.4798Z" fill="url(#paint3_linear_6499_146516)" shape-rendering="crispEdges"/>
<path d="M5.24162 12.0042L7.67521 6.41162H6.13057C5.92888 6.41162 5.72814 6.43919 5.53392 6.49358C5.33996 6.54788 5.15433 6.62842 4.98215 6.73295L4.85941 6.80748C4.67791 6.91768 4.50827 7.04633 4.3532 7.19139L4.32726 7.21566C4.02006 7.50304 3.77857 7.85338 3.61929 8.24272L3.60844 8.26924C3.49676 8.54223 3.42983 8.83145 3.41021 9.12575C3.38348 9.52663 3.4451 9.92848 3.59072 10.3029L3.65522 10.4688C3.79084 10.8175 3.99971 11.1331 4.26773 11.3943L4.42811 11.5505C4.6544 11.771 4.93511 11.9276 5.24162 12.0042Z" fill="url(#paint4_linear_6499_146516)" shape-rendering="crispEdges"/>
</g>
<defs>
<filter id="filter0_di_6499_146516" x="10.588" y="5.27603" width="11.3013" height="4.65581" filterUnits="userSpaceOnUse" color-interpolation-filters="sRGB">
<feFlood flood-opacity="0" result="BackgroundImageFix"/>
<feColorMatrix in="SourceAlpha" type="matrix" values="0 0 0 0 0 0 0 0 0 0 0 0 0 0 0 0 0 0 127 0" result="hardAlpha"/>
<feOffset dx="0.092703" dy="0.092703"/>
<feGaussianBlur stdDeviation="0.625745"/>
<feComposite in2="hardAlpha" operator="out"/>
<feColorMatrix type="matrix" values="0 0 0 0 0 0 0 0 0 0 0 0 0 0 0 0 0 0 0.06 0"/>
<feBlend mode="normal" in2="BackgroundImageFix" result="effect1_dropShadow_6499_146516"/>
<feBlend mode="normal" in="SourceGraphic" in2="effect1_dropShadow_6499_146516" result="shape"/>
<feColorMatrix in="SourceAlpha" type="matrix" values="0 0 0 0 0 0 0 0 0 0 0 0 0 0 0 0 0 0 127 0" result="hardAlpha"/>
<feOffset dy="0.151696"/>
<feGaussianBlur stdDeviation="0.101642"/>
<feComposite in2="hardAlpha" operator="arithmetic" k2="-1" k3="1"/>
<feColorMatrix type="matrix" values="0 0 0 0 1 0 0 0 0 1 0 0 0 0 1 0 0 0 0.8 0"/>
<feBlend mode="normal" in2="shape" result="effect2_innerShadow_6499_146516"/>
</filter>
<filter id="filter1_di_6499_146516" x="13.8876" y="8.55215" width="4.67925" height="10.2952" filterUnits="userSpaceOnUse" color-interpolation-filters="sRGB">
<feFlood flood-opacity="0" result="BackgroundImageFix"/>
<feColorMatrix in="SourceAlpha" type="matrix" values="0 0 0 0 0 0 0 0 0 0 0 0 0 0 0 0 0 0 127 0" result="hardAlpha"/>
<feOffset dx="0.092703" dy="0.092703"/>
<feGaussianBlur stdDeviation="0.625745"/>
<feComposite in2="hardAlpha" operator="out"/>
<feColorMatrix type="matrix" values="0 0 0 0 0 0 0 0 0 0 0 0 0 0 0 0 0 0 0.06 0"/>
<feBlend mode="normal" in2="BackgroundImageFix" result="effect1_dropShadow_6499_146516"/>
<feBlend mode="normal" in="SourceGraphic" in2="effect1_dropShadow_6499_146516" result="shape"/>
<feColorMatrix in="SourceAlpha" type="matrix" values="0 0 0 0 0 0 0 0 0 0 0 0 0 0 0 0 0 0 127 0" result="hardAlpha"/>
<feOffset dy="0.151696"/>
<feGaussianBlur stdDeviation="0.101642"/>
<feComposite in2="hardAlpha" operator="arithmetic" k2="-1" k3="1"/>
<feColorMatrix type="matrix" values="0 0 0 0 1 0 0 0 0 1 0 0 0 0 1 0 0 0 0.8 0"/>
<feBlend mode="normal" in2="shape" result="effect2_innerShadow_6499_146516"/>
</filter>
<filter id="filter2_di_6499_146516" x="2.24527" y="5.25283" width="11.3501" height="13.6036" filterUnits="userSpaceOnUse" color-interpolation-filters="sRGB">
<feFlood flood-opacity="0" result="BackgroundImageFix"/>
<feColorMatrix in="SourceAlpha" type="matrix" values="0 0 0 0 0 0 0 0 0 0 0 0 0 0 0 0 0 0 127 0" result="hardAlpha"/>
<feOffset dx="0.092703" dy="0.092703"/>
<feGaussianBlur stdDeviation="0.625745"/>
<feComposite in2="hardAlpha" operator="out"/>
<feColorMatrix type="matrix" values="0 0 0 0 0 0 0 0 0 0 0 0 0 0 0 0 0 0 0.06 0"/>
<feBlend mode="normal" in2="BackgroundImageFix" result="effect1_dropShadow_6499_146516"/>
<feBlend mode="normal" in="SourceGraphic" in2="effect1_dropShadow_6499_146516" result="shape"/>
<feColorMatrix in="SourceAlpha" type="matrix" values="0 0 0 0 0 0 0 0 0 0 0 0 0 0 0 0 0 0 127 0" result="hardAlpha"/>
<feOffset dy="0.151696"/>
<feGaussianBlur stdDeviation="0.101642"/>
<feComposite in2="hardAlpha" operator="arithmetic" k2="-1" k3="1"/>
<feColorMatrix type="matrix" values="0 0 0 0 1 0 0 0 0 1 0 0 0 0 1 0 0 0 0.8 0"/>
<feBlend mode="normal" in2="shape" result="effect2_innerShadow_6499_146516"/>
</filter>
<linearGradient id="paint0_linear_6499_146516" x1="13.9464" y1="6.58921" x2="14.2267" y2="8.87072" gradientUnits="userSpaceOnUse">
<stop stop-color="white" stop-opacity="0.6"/>
<stop offset="0.286389" stop-color="white" stop-opacity="0.92"/>
<stop offset="0.527824" stop-color="white"/>
<stop offset="1" stop-color="#A3A3A3"/>
</linearGradient>
<linearGradient id="paint1_linear_6499_146516" x1="15.5904" y1="10.2698" x2="19.1516" y2="12.2509" gradientUnits="userSpaceOnUse">
<stop stop-color="white" stop-opacity="0.6"/>
<stop offset="0.286389" stop-color="white" stop-opacity="0.92"/>
<stop offset="0.527824" stop-color="white"/>
<stop offset="1" stop-color="#A3A3A3"/>
</linearGradient>
<linearGradient id="paint2_linear_6499_146516" x1="5.59262" y1="7.20877" x2="10.9762" y2="15.7876" gradientUnits="userSpaceOnUse">
<stop stop-color="white" stop-opacity="0.6"/>
<stop offset="0.286389" stop-color="white" stop-opacity="0.92"/>
<stop offset="0.527824" stop-color="white"/>
<stop offset="1" stop-color="#A3A3A3"/>
</linearGradient>
<linearGradient id="paint3_linear_6499_146516" x1="5.59262" y1="7.20877" x2="10.9762" y2="15.7876" gradientUnits="userSpaceOnUse">
<stop stop-color="white" stop-opacity="0.6"/>
<stop offset="0.286389" stop-color="white" stop-opacity="0.92"/>
<stop offset="0.527824" stop-color="white"/>
<stop offset="1" stop-color="#A3A3A3"/>
</linearGradient>
<linearGradient id="paint4_linear_6499_146516" x1="5.59262" y1="7.20877" x2="10.9762" y2="15.7876" gradientUnits="userSpaceOnUse">
<stop stop-color="white" stop-opacity="0.6"/>
<stop offset="0.286389" stop-color="white" stop-opacity="0.92"/>
<stop offset="0.527824" stop-color="white"/>
<stop offset="1" stop-color="#A3A3A3"/>
</linearGradient>
</defs>
</svg>
