<svg width="22" height="22" viewBox="0 0 22 22" fill="none" xmlns="http://www.w3.org/2000/svg">
<rect x="0.122222" y="0.122222" width="21.7556" height="21.7556" rx="10.8778" fill="url(#paint0_linear_653_29247)"/>
<rect x="0.122222" y="0.122222" width="21.7556" height="21.7556" rx="10.8778" stroke="#252A2D" stroke-width="0.244444"/>
<path d="M14.5166 15.1619C14.2702 14.4579 14.2379 11.4659 14.2526 10.0579C14.2548 9.42427 14.0481 8.94321 13.9446 8.78188C13.1702 7.62028 12.1846 7.94588 11.7886 8.25388C11.2312 8.75255 10.6894 10.1899 12.3614 12.5659C14.0388 14.9495 14.3414 16.4819 14.0326 17.1419C13.399 18.8667 10.9672 18.9312 9.85256 18.7259C8.84056 18.5395 6.33345 17.8899 4.3087 14.9859C2.24686 12.0287 3.4287 8.45922 4.3087 7.02188C4.6167 6.55255 5.4527 5.61388 6.3327 5.61388C7.2127 5.61388 7.41004 6.48879 7.38861 6.84588C7.25656 9.04588 6.77251 12.7859 8.88456 12.5659C11.698 12.2728 9.36856 8.62031 8.31235 6.84588C7.43235 5.36748 8.12169 4.26455 8.57635 3.89788C8.91369 3.64854 9.90515 3.15868 11.1724 3.19388C12.7564 3.23788 14.3856 3.41388 16.7614 5.61388C18.282 7.02188 19.0494 9.61788 18.7844 11.5539C18.711 12.4925 18.2564 14.6427 17.0244 15.7339C15.4844 17.0979 14.8246 16.0419 14.5166 15.1619Z" fill="url(#paint1_linear_653_29247)"/>
<defs>
<linearGradient id="paint0_linear_653_29247" x1="11" y1="0" x2="11" y2="22" gradientUnits="userSpaceOnUse">
<stop stop-color="#00140E"/>
<stop offset="1" stop-color="#023224"/>
</linearGradient>
<linearGradient id="paint1_linear_653_29247" x1="11" y1="3.19208" x2="11.0396" y2="16.6141" gradientUnits="userSpaceOnUse">
<stop stop-color="white"/>
<stop offset="1" stop-color="#CDDACD"/>
</linearGradient>
</defs>
</svg>
