<svg width="22" height="22" viewBox="0 0 22 22" fill="none" xmlns="http://www.w3.org/2000/svg">
<rect x="0.122222" y="0.122222" width="21.7556" height="21.7556" rx="10.8778" fill="url(#paint0_linear_1110_46258)"/>
<rect x="0.122222" y="0.122222" width="21.7556" height="21.7556" rx="10.8778" stroke="#252A2D" stroke-width="0.244444"/>
<path d="M10.0901 10.4874V10.4852C10.0901 10.4312 10.0901 10.3877 10.0873 10.3524C10.0843 10.3161 10.078 10.2842 10.063 10.2547C10.0391 10.2078 10.001 10.1697 9.95413 10.1458C9.92463 10.1308 9.89273 10.1245 9.85643 10.1216C9.82116 10.1187 9.77761 10.1187 9.72362 10.1187H9.72149H7.9185C7.86188 10.1187 7.8224 10.1187 7.79168 10.1161C7.76153 10.1137 7.74421 10.1091 7.73108 10.1024C7.70297 10.0881 7.6801 10.0652 7.66577 10.0371C7.65909 10.024 7.6545 10.0066 7.65203 9.97649C7.64952 9.94576 7.64948 9.90629 7.64948 9.84966V8.72086C7.64948 8.66424 7.64952 8.62477 7.65203 8.59404C7.6545 8.56389 7.65909 8.54657 7.66577 8.53345C7.6801 8.50533 7.70297 8.48246 7.73108 8.46813C7.74421 8.46145 7.76153 8.45686 7.79168 8.45439C7.8224 8.45188 7.86188 8.45184 7.9185 8.45184L11.2466 8.45185H11.2487C11.3027 8.45185 11.3462 8.45185 11.3815 8.44896C11.4178 8.44599 11.4497 8.43973 11.4792 8.4247C11.5261 8.40082 11.5642 8.3627 11.5881 8.31584C11.6031 8.28632 11.6094 8.25443 11.6123 8.21812C11.6152 8.18286 11.6152 8.1393 11.6152 8.08531V8.08318V5.20417V5.20205C11.6152 5.14804 11.6152 5.10449 11.6123 5.06922C11.6094 5.03292 11.6031 5.00102 11.5881 4.97152C11.5642 4.92464 11.5261 4.88654 11.4792 4.86267C11.4497 4.84763 11.4178 4.84135 11.3815 4.83838C11.3462 4.83551 11.3027 4.83551 11.2487 4.83551H11.2466H10.3592H10.357C10.303 4.83551 10.2595 4.83551 10.2242 4.83838C10.1879 4.84135 10.156 4.84763 10.1265 4.86267C10.0796 4.88654 10.0415 4.92464 10.0177 4.97152C10.0026 5.00102 9.99635 5.03292 9.99339 5.06922C9.99051 5.10449 9.99051 5.14804 9.99051 5.20205V5.20417V6.33165C9.99051 6.38826 9.99047 6.42774 9.98796 6.45846C9.9855 6.48861 9.98091 6.50593 9.97422 6.51906C9.9599 6.54718 9.93703 6.57004 9.9089 6.58438C9.89578 6.59106 9.87847 6.59565 9.84832 6.59812C9.81758 6.60063 9.77812 6.60067 9.72149 6.60067H6.36084H6.3587C6.30471 6.60067 6.26117 6.60067 6.22592 6.60354C6.18959 6.60651 6.1577 6.61277 6.1282 6.62781C6.08132 6.6517 6.04322 6.6898 6.01934 6.73667C6.00431 6.76618 5.99803 6.79807 5.99508 6.83438C5.99219 6.86965 5.99219 6.91319 5.99219 6.96719V6.96932V10.6166V10.6222C5.99218 10.6654 5.99218 10.6952 5.99903 10.7239C6.00509 10.7492 6.01509 10.7734 6.02866 10.7957C6.04402 10.8208 6.06507 10.842 6.09549 10.8726L6.09948 10.8766L7.07206 11.8543L7.07609 11.8584C7.10671 11.8892 7.12791 11.9105 7.15318 11.926C7.17552 11.9398 7.19989 11.9499 7.22539 11.956C7.25423 11.963 7.2843 11.963 7.32774 11.963H7.33343H9.72149H9.72362C9.77761 11.963 9.82116 11.963 9.85643 11.9601C9.89273 11.9571 9.92463 11.9509 9.95413 11.9358C10.001 11.912 10.0391 11.8738 10.063 11.827C10.078 11.7975 10.0843 11.7656 10.0873 11.7293C10.0901 11.694 10.0901 11.6504 10.0901 11.5964V11.5943V10.4874ZM14.3426 13.3608C14.3426 13.4174 14.3426 13.4569 14.3401 13.4876C14.3376 13.5178 14.3331 13.5351 14.3264 13.5482C14.3121 13.5764 14.2892 13.5992 14.2611 13.6135C14.248 13.6203 14.2306 13.6249 14.2005 13.6273C14.1697 13.6297 14.1303 13.6299 14.0736 13.6299H10.3592H10.357C10.303 13.6299 10.2595 13.6299 10.2242 13.6327C10.1879 13.6357 10.156 13.642 10.1265 13.657C10.0796 13.6809 10.0415 13.7189 10.0177 13.7658C10.0026 13.7953 9.99635 13.8272 9.99339 13.8635C9.99051 13.8989 9.99051 13.9423 9.99051 13.9963V13.9985V15.4312V16.8652V16.8674C9.99051 16.9214 9.99051 16.965 9.99339 17.0002C9.99635 17.0365 10.0026 17.0683 10.0177 17.0979C10.0415 17.1447 10.0796 17.1828 10.1265 17.2067C10.156 17.2218 10.1879 17.228 10.2242 17.231C10.2595 17.2338 10.303 17.2338 10.357 17.2338H10.3592H11.2466H11.2487C11.3027 17.2338 11.3462 17.2338 11.3815 17.231C11.4178 17.228 11.4497 17.2218 11.4792 17.2067C11.5261 17.1828 11.5642 17.1447 11.5881 17.0979C11.6031 17.0683 11.6094 17.0365 11.6123 17.0002C11.6152 16.965 11.6152 16.9214 11.6152 16.8674V16.8652V15.7501C11.6152 15.6934 11.6153 15.654 11.6178 15.6232C11.6202 15.5931 11.6248 15.5757 11.6315 15.5626C11.6458 15.5346 11.6687 15.5116 11.6968 15.4973C11.7099 15.4907 11.7273 15.4861 11.7574 15.4835C11.7881 15.4811 11.8276 15.481 11.8842 15.481H15.5424H15.5444C15.5984 15.481 15.642 15.481 15.6772 15.4781C15.7135 15.4752 15.7455 15.469 15.7749 15.4538C15.8219 15.43 15.86 15.3919 15.8838 15.3451C15.8988 15.3155 15.9052 15.2836 15.9081 15.2473C15.911 15.212 15.911 15.1685 15.911 15.1145V15.1124V11.5032V11.4976C15.911 11.4545 15.911 11.4248 15.9042 11.3962C15.8982 11.3709 15.8882 11.3467 15.8747 11.3245C15.8594 11.2994 15.8385 11.2782 15.8081 11.2477L15.8042 11.2437L14.7976 10.2279L14.7936 10.2238C14.7629 10.1929 14.7417 10.1715 14.7164 10.1558C14.694 10.142 14.6695 10.1318 14.644 10.1257C14.6151 10.1187 14.5849 10.1187 14.5414 10.1187H14.5356H11.8842H11.8821C11.8281 10.1187 11.7846 10.1187 11.7493 10.1216C11.713 10.1246 11.6811 10.1308 11.6516 10.1459C11.6047 10.1697 11.5666 10.2078 11.5427 10.2547C11.5277 10.2842 11.5214 10.3161 11.5185 10.3524C11.5156 10.3877 11.5156 10.4312 11.5156 10.4852V10.4874V11.5943V11.5965C11.5156 11.6504 11.5156 11.694 11.5185 11.7293C11.5214 11.7656 11.5277 11.7975 11.5427 11.827C11.5666 11.8738 11.6047 11.912 11.6516 11.9358C11.6811 11.9509 11.713 11.9571 11.7493 11.9601C11.7846 11.963 11.8281 11.963 11.8821 11.963H11.8842H14.0736C14.1303 11.963 14.1697 11.963 14.2005 11.9655C14.2306 11.968 14.248 11.9726 14.2611 11.9793C14.2892 11.9936 14.3121 12.0165 14.3264 12.0446C14.3331 12.0577 14.3376 12.075 14.3401 12.1052C14.3426 12.1359 14.3426 12.1754 14.3426 12.232V13.3608Z" fill="url(#paint1_linear_1110_46258)"/>
<path d="M8.47658 19.8967C8.44648 20.0038 8.43144 20.0576 8.39792 20.0932C8.36909 20.1238 8.32874 20.1456 8.2873 20.1528C8.23913 20.1613 8.18772 20.145 8.0849 20.1124C6.21893 19.5201 4.5795 18.3631 3.39552 16.7975C2.14735 15.147 1.47404 13.133 1.47854 11.0637C1.48303 8.99433 2.16507 6.9834 3.42041 5.3383C4.61116 3.77781 6.2556 2.62794 8.12412 2.0438C8.22709 2.01161 8.27856 1.99551 8.32669 2.00419C8.3681 2.01165 8.40835 2.0336 8.43706 2.06437C8.47042 2.10014 8.48523 2.1538 8.51487 2.26113L8.59723 2.55949C8.62696 2.66719 8.64182 2.72103 8.63298 2.76683C8.625 2.80816 8.60588 2.84339 8.57556 2.87258C8.54197 2.90496 8.48677 2.92244 8.37636 2.95741C6.70725 3.48606 5.23864 4.51691 4.17342 5.91289C3.04362 7.39349 2.42977 9.20333 2.42574 11.0657C2.42169 12.9281 3.02768 14.7407 4.15103 16.2262C5.21018 17.6268 6.6743 18.664 8.34109 19.1998C8.45135 19.2353 8.50647 19.253 8.53995 19.2855C8.57012 19.3148 8.58909 19.3502 8.59689 19.3915C8.60553 19.4374 8.59044 19.4911 8.56023 19.5987L8.47658 19.8967Z" fill="url(#paint2_linear_1110_46258)"/>
<path d="M13.4245 2.27179C13.4546 2.1646 13.4697 2.11099 13.5032 2.07537C13.5321 2.04473 13.5724 2.02296 13.6139 2.01567C13.6621 2.00721 13.7135 2.02352 13.8162 2.05616C15.6821 2.64841 17.3216 3.8054 18.5056 5.37105C19.7538 7.02159 20.4271 9.03546 20.4225 11.1048C20.4181 13.1742 19.7361 15.1851 18.4807 16.8301C17.29 18.3907 15.6456 19.5406 13.777 20.1247C13.6741 20.1569 13.6225 20.1729 13.5745 20.1643C13.533 20.1569 13.4928 20.1349 13.4641 20.1041C13.4307 20.0683 13.4159 20.0147 13.3863 19.9073L13.3039 19.609C13.2742 19.5013 13.2593 19.4475 13.2682 19.4016C13.2761 19.3603 13.2953 19.3251 13.3256 19.2959C13.3592 19.2635 13.4144 19.2461 13.5248 19.2111C15.1938 18.6825 16.6626 17.6516 17.7277 16.2556C18.8576 14.775 19.4714 12.9652 19.4755 11.1027C19.4795 9.24033 18.8735 7.42785 17.7501 5.94236C16.6909 4.54178 15.2269 3.50456 13.56 2.96866C13.4498 2.93322 13.3947 2.9155 13.3612 2.88297C13.331 2.85364 13.312 2.81833 13.3042 2.77698C13.2956 2.73113 13.3107 2.67734 13.3409 2.56979L13.4245 2.27179Z" fill="url(#paint3_linear_1110_46258)"/>
<mask id="mask0_1110_46258" style="mask-type:luminance" maskUnits="userSpaceOnUse" x="13" y="1" width="8" height="20">
<path d="M20.56 1.79544H13.1367V20.2862H20.56V1.79544Z" fill="white"/>
<path d="M13.4285 2.27179C13.4586 2.1646 13.4736 2.11099 13.5071 2.07537C13.536 2.04473 13.5763 2.02296 13.6178 2.01567C13.666 2.00721 13.7174 2.02352 13.8201 2.05616C15.686 2.64841 17.3255 3.8054 18.5095 5.37105C19.7577 7.02159 20.431 9.03546 20.4264 11.1048C20.422 13.1742 19.74 15.1851 18.4846 16.8301C17.2939 18.3907 15.6495 19.5406 13.781 20.1247C13.678 20.1569 13.6264 20.1729 13.5784 20.1643C13.5369 20.1569 13.4967 20.1349 13.468 20.1041C13.4346 20.0683 13.4198 20.0147 13.3902 19.9073L13.3078 19.609C13.2781 19.5013 13.2632 19.4475 13.2721 19.4016C13.28 19.3603 13.2992 19.3251 13.3295 19.2959C13.3631 19.2635 13.4183 19.2461 13.5287 19.2111C15.1977 18.6825 16.6665 17.6516 17.7316 16.2556C18.8615 14.775 19.4753 12.9652 19.4794 11.1027C19.4834 9.24033 18.8774 7.42785 17.754 5.94236C16.6948 4.54178 15.2308 3.50456 13.5639 2.96866C13.4537 2.93322 13.3986 2.9155 13.3651 2.88297C13.3349 2.85364 13.3159 2.81833 13.3082 2.77698C13.2995 2.73113 13.3146 2.67734 13.3448 2.56979L13.4285 2.27179Z" fill="black"/>
</mask>
<g mask="url(#mask0_1110_46258)">
<path d="M13.4265 2.27179C13.4566 2.1646 13.4716 2.11099 13.5051 2.07537C13.534 2.04473 13.5744 2.02296 13.6158 2.01567C13.664 2.00721 13.7154 2.02352 13.8181 2.05616C15.6841 2.64841 17.3236 3.8054 18.5075 5.37105C19.7557 7.02159 20.4291 9.03546 20.4245 11.1048C20.42 13.1742 19.738 15.1851 18.4827 16.8301C17.292 18.3907 15.6475 19.5406 13.779 20.1247C13.676 20.1569 13.6245 20.1729 13.5764 20.1643C13.535 20.1569 13.4947 20.1349 13.466 20.1041C13.4327 20.0683 13.4178 20.0147 13.3882 19.9073L13.3059 19.609C13.2761 19.5013 13.2613 19.4475 13.2701 19.4016C13.2781 19.3603 13.2972 19.3251 13.3275 19.2959C13.3611 19.2635 13.4163 19.2461 13.5267 19.2111C15.1958 18.6825 16.6645 17.6516 17.7297 16.2556C18.8595 14.775 19.4734 12.9652 19.4774 11.1027C19.4815 9.24033 18.8754 7.42785 17.7521 5.94236C16.6929 4.54178 15.2288 3.50456 13.562 2.96866C13.4517 2.93322 13.3966 2.9155 13.3631 2.88297C13.333 2.85364 13.314 2.81833 13.3062 2.77698C13.2976 2.73113 13.3127 2.67734 13.3428 2.56979L13.4265 2.27179Z" stroke="url(#paint4_linear_1110_46258)" stroke-width="0.199274"/>
</g>
<defs>
<linearGradient id="paint0_linear_1110_46258" x1="11" y1="0" x2="11" y2="22" gradientUnits="userSpaceOnUse">
<stop stop-color="#00140E"/>
<stop offset="1" stop-color="#023224"/>
</linearGradient>
<linearGradient id="paint1_linear_1110_46258" x1="10.9516" y1="4.83551" x2="10.991" y2="15.492" gradientUnits="userSpaceOnUse">
<stop stop-color="white"/>
<stop offset="1" stop-color="#CDDACD"/>
</linearGradient>
<linearGradient id="paint2_linear_1110_46258" x1="5.05701" y1="2.00186" x2="5.17405" y2="17.6041" gradientUnits="userSpaceOnUse">
<stop stop-color="white"/>
<stop offset="1" stop-color="#CDDACD"/>
</linearGradient>
<linearGradient id="paint3_linear_1110_46258" x1="16.8441" y1="2.01346" x2="16.9611" y2="17.6156" gradientUnits="userSpaceOnUse">
<stop stop-color="white"/>
<stop offset="1" stop-color="#CDDACD"/>
</linearGradient>
<linearGradient id="paint4_linear_1110_46258" x1="16.846" y1="2.01346" x2="16.9631" y2="17.6156" gradientUnits="userSpaceOnUse">
<stop stop-color="white"/>
<stop offset="1" stop-color="#CDDACD"/>
</linearGradient>
</defs>
</svg>
