<svg width="18" height="18" viewBox="0 0 18 18" fill="none" xmlns="http://www.w3.org/2000/svg">
<rect x="0.1" y="0.1" width="17.8" height="17.8" rx="8.9" fill="url(#paint0_linear_1402_51338)"/>
<rect x="0.1" y="0.1" width="17.8" height="17.8" rx="8.9" stroke="#252A2D" stroke-width="0.2"/>
<path d="M13.5549 3H13.1458C13.063 3 12.9958 3.06716 12.9958 3.15V4.57576H11.5504C11.4675 4.57576 11.4004 4.64291 11.4004 4.72576V5.15455C11.4004 5.23739 11.4675 5.30455 11.5504 5.30455H12.9958V6.75C12.9958 6.83284 13.063 6.9 13.1458 6.9H13.5549C13.6378 6.9 13.7049 6.83284 13.7049 6.75V5.30455H15.1504C15.2332 5.30455 15.3004 5.23739 15.3004 5.15455V4.72576C15.3004 4.64291 15.2332 4.57576 15.1504 4.57576H13.7049V3.15C13.7049 3.06716 13.6378 3 13.5549 3Z" fill="url(#paint1_linear_1402_51338)"/>
<path d="M10.042 1.57285C10.065 1.40878 9.95068 1.25649 9.78584 1.23978C8.26917 1.08602 6.73818 1.37997 5.38353 2.08866C3.94014 2.84377 2.76939 4.03184 2.03554 5.48615C1.3017 6.94047 1.04159 8.58805 1.29172 10.1977C1.54185 11.8074 2.28966 13.2983 3.43023 14.4614C4.5708 15.6244 6.04687 16.4012 7.65134 16.6827C9.25581 16.9642 10.9082 16.7363 12.3765 16.0309C13.8449 15.3256 15.0556 14.1783 15.8387 12.7499C16.5737 11.4093 16.8975 9.88436 16.7733 8.36498C16.7598 8.19985 16.6098 8.08259 16.4453 8.10242L16.3365 8.11553C16.172 8.13536 16.0554 8.28478 16.0682 8.44997C16.175 9.82211 15.8802 11.1981 15.2165 12.4087C14.5046 13.7072 13.404 14.7501 12.0693 15.3913C10.7345 16.0325 9.23247 16.2396 7.77397 15.9837C6.31546 15.7279 4.97367 15.0218 3.93687 13.9645C2.90007 12.9073 2.22029 11.552 1.99291 10.0887C1.76554 8.62553 2.00198 7.12784 2.66907 5.80583C3.33615 4.48382 4.4004 3.40384 5.71247 2.71742C6.93579 2.07744 8.31731 1.80953 9.68711 1.94307C9.85201 1.95914 10.0037 1.84547 10.0267 1.6814L10.042 1.57285Z" fill="url(#paint2_linear_1402_51338)"/>
<path d="M11.4008 10.4373C11.4008 9.10528 10.6015 8.64856 9.00301 8.45829C7.86121 8.30602 7.63285 8.00157 7.63285 7.46867C7.63285 6.93577 8.01348 6.59333 8.77465 6.59333C9.45972 6.59333 9.84035 6.82169 10.0306 7.39258C10.0687 7.50676 10.1829 7.58285 10.2971 7.58285H10.906C11.0582 7.58285 11.1724 7.46867 11.1724 7.31649V7.2784C11.0202 6.44106 10.3351 5.79407 9.45972 5.71798V4.80454C9.45972 4.65227 9.34555 4.53809 9.15528 4.5H8.58438C8.43211 4.5 8.31793 4.61418 8.27984 4.80454V5.67989C7.13804 5.83216 6.41496 6.59333 6.41496 7.54485C6.41496 8.80083 7.17613 9.29555 8.77465 9.48591C9.84035 9.67618 10.1829 9.90454 10.1829 10.5135C10.1829 11.1225 9.64999 11.5411 8.92692 11.5411C7.9373 11.5411 7.59476 11.1224 7.48058 10.5515C7.44258 10.3993 7.3284 10.3232 7.21422 10.3232H6.56714C6.41496 10.3232 6.30078 10.4373 6.30078 10.5896V10.6277C6.45296 11.5791 7.06195 12.2642 8.31793 12.4546V13.368C8.31793 13.5202 8.43211 13.6344 8.62238 13.6725H9.19327C9.34554 13.6725 9.45973 13.5583 9.49782 13.368V12.4546C10.6396 12.2642 11.4008 11.465 11.4008 10.4373Z" fill="url(#paint3_linear_1402_51338)"/>
<defs>
<linearGradient id="paint0_linear_1402_51338" x1="9" y1="0" x2="9" y2="18" gradientUnits="userSpaceOnUse">
<stop stop-color="#00140E"/>
<stop offset="1" stop-color="#023224"/>
</linearGradient>
<linearGradient id="paint1_linear_1402_51338" x1="13.3504" y1="3" x2="13.3603" y2="6.35211" gradientUnits="userSpaceOnUse">
<stop stop-color="white"/>
<stop offset="1" stop-color="#CDDACD"/>
</linearGradient>
<linearGradient id="paint2_linear_1402_51338" x1="8.99922" y1="1.20001" x2="9.03887" y2="14.6085" gradientUnits="userSpaceOnUse">
<stop stop-color="white"/>
<stop offset="1" stop-color="#CDDACD"/>
</linearGradient>
<linearGradient id="paint3_linear_1402_51338" x1="8.85078" y1="4.5" x2="8.89271" y2="12.3837" gradientUnits="userSpaceOnUse">
<stop stop-color="white"/>
<stop offset="1" stop-color="#CDDACD"/>
</linearGradient>
</defs>
</svg>
