<svg width="18" height="18" viewBox="0 0 18 18" fill="none" xmlns="http://www.w3.org/2000/svg">
<rect x="0.0818182" y="0.0818182" width="17.8373" height="17.8364" rx="8.91818" fill="url(#paint0_linear_1362_60114)"/>
<rect x="0.0818182" y="0.0818182" width="17.8373" height="17.8364" rx="8.91818" stroke="#252A2D" stroke-width="0.163636"/>
<g clip-path="url(#clip0_1362_60114)">
<path d="M12.256 2.80405L6.66992 15.5987C10.1001 16.8151 13.9368 15.1879 15.4158 11.8006C16.8949 8.41327 15.4802 4.49295 12.2564 2.80405H12.256ZM8.8742 12.7585L11.6568 6.33565C11.8818 6.5599 12.0755 6.81042 12.235 7.07959L9.81225 12.6717C9.50654 12.7394 9.1917 12.7691 8.8742 12.7581V12.7585ZM12.4486 10.505C12.1068 11.2877 11.5307 11.895 10.8386 12.2818L12.6473 8.07861C12.8453 8.85948 12.7958 9.70963 12.4486 10.505Z" fill="url(#paint1_linear_1362_60114)"/>
<path d="M5.55371 7.49497C6.3273 5.72307 8.30163 4.84817 10.1062 5.40555L11.4063 2.42829C7.95748 1.162 4.0762 2.78769 2.58651 6.19936C1.09682 9.61103 2.54273 13.563 5.81602 15.2317L7.11612 12.254C5.48024 11.3094 4.78012 9.26648 5.55371 7.49459V7.49497Z" fill="url(#paint2_linear_1362_60114)"/>
</g>
<defs>
<linearGradient id="paint0_linear_1362_60114" x1="9.00049" y1="0" x2="9.00049" y2="18" gradientUnits="userSpaceOnUse">
<stop stop-color="#00140E"/>
<stop offset="1" stop-color="#023224"/>
</linearGradient>
<linearGradient id="paint1_linear_1362_60114" x1="11.3361" y1="2.80405" x2="11.3836" y2="14.1463" gradientUnits="userSpaceOnUse">
<stop stop-color="white"/>
<stop offset="1" stop-color="#CDDACD"/>
</linearGradient>
<linearGradient id="paint2_linear_1362_60114" x1="6.70314" y1="2.00004" x2="6.75045" y2="13.3727" gradientUnits="userSpaceOnUse">
<stop stop-color="white"/>
<stop offset="1" stop-color="#CDDACD"/>
</linearGradient>
<clipPath id="clip0_1362_60114">
<rect width="14.0008" height="14" fill="white" transform="translate(2 2)"/>
</clipPath>
</defs>
</svg>
