<svg width="20" height="20" viewBox="0 0 20 20" fill="none" xmlns="http://www.w3.org/2000/svg">
<rect x="0.111111" y="0.111111" width="19.7778" height="19.7784" rx="9.88889" fill="url(#paint0_linear_1163_53835)"/>
<rect x="0.111111" y="0.111111" width="19.7778" height="19.7784" rx="9.88889" stroke="#252A2D" stroke-width="0.222222"/>
<path d="M10.0002 18.8889C14.9094 18.8889 18.8891 14.9092 18.8891 10C18.8891 5.09081 14.9094 1.11111 10.0002 1.11111C5.09102 1.11111 1.11133 5.09081 1.11133 10C1.11133 14.9092 5.09102 18.8889 10.0002 18.8889Z" stroke="url(#paint1_linear_1163_53835)" stroke-width="0.555556"/>
<path d="M6.57422 11.4423C6.57905 11.4434 6.58364 11.4455 6.58789 11.4481C6.59275 11.4511 6.59714 11.4555 6.60547 11.4637L7.06543 11.9218C7.08448 11.9407 7.09449 11.9504 7.10547 11.954C7.115 11.957 7.12524 11.957 7.13477 11.954C7.14575 11.9504 7.15575 11.9407 7.1748 11.9218L7.63477 11.4637C7.6431 11.4555 7.64748 11.4511 7.65234 11.4481C7.65659 11.4455 7.66119 11.4434 7.66602 11.4423C7.67155 11.4409 7.6777 11.4413 7.68945 11.4413H9.91504C9.97352 11.4413 10.0031 11.4414 10.0166 11.453C10.0281 11.463 10.0343 11.4779 10.0332 11.493C10.0318 11.5108 10.0111 11.5319 9.96973 11.5731L8.39844 13.1385C8.37922 13.1577 8.36981 13.1675 8.36621 13.1786C8.36309 13.1882 8.36313 13.1982 8.36621 13.2079C8.36982 13.2189 8.37921 13.2289 8.39844 13.2479L9.96973 14.8114C10.0113 14.8527 10.0318 14.8737 10.0332 14.8915C10.0344 14.9067 10.0282 14.9215 10.0166 14.9315C10.0031 14.9432 9.97364 14.9432 9.91504 14.9432H7.68555C7.67378 14.9432 7.66764 14.9436 7.66211 14.9423C7.65727 14.941 7.65269 14.9389 7.64844 14.9364C7.64359 14.9335 7.63919 14.9291 7.63086 14.9208L7.1748 14.4667C7.15572 14.4477 7.14575 14.438 7.13477 14.4344C7.12518 14.4314 7.11505 14.4314 7.10547 14.4344C7.09449 14.438 7.08451 14.4477 7.06543 14.4667L6.60938 14.9208C6.60105 14.9291 6.59664 14.9335 6.5918 14.9364C6.58754 14.9389 6.58296 14.941 6.57812 14.9423C6.57259 14.9436 6.56645 14.9432 6.55469 14.9432H4.3252C4.26659 14.9432 4.23717 14.9432 4.22363 14.9315C4.21207 14.9215 4.2058 14.9067 4.20703 14.8915C4.20848 14.8737 4.22898 14.8527 4.27051 14.8114L5.8418 13.2479C5.86102 13.2289 5.87042 13.2189 5.87402 13.2079C5.8771 13.1982 5.87714 13.1882 5.87402 13.1786C5.87043 13.1675 5.86101 13.1577 5.8418 13.1385L4.27051 11.5731C4.22914 11.5319 4.20845 11.5108 4.20703 11.493C4.20593 11.4779 4.21213 11.463 4.22363 11.453C4.23717 11.4414 4.26671 11.4413 4.3252 11.4413H6.55078C6.56255 11.4413 6.56869 11.4409 6.57422 11.4423ZM16.0947 11.4413C16.1526 11.4413 16.1817 11.4415 16.1953 11.453C16.2068 11.463 16.213 11.4778 16.2119 11.493C16.2106 11.5107 16.1903 11.5319 16.1494 11.5731L14.583 13.1571C14.5747 13.1655 14.5703 13.1697 14.5654 13.1727C14.5612 13.1754 14.5566 13.1774 14.5518 13.1786C14.5461 13.1799 14.5401 13.1805 14.5283 13.1805H10.3789C10.321 13.1805 10.2918 13.1802 10.2783 13.1688C10.2668 13.1588 10.2607 13.1439 10.2617 13.1288C10.263 13.1111 10.2836 13.0899 10.3242 13.0487L11.8848 11.4647C11.8931 11.4562 11.8974 11.4512 11.9023 11.4481C11.9066 11.4456 11.9112 11.4434 11.916 11.4423C11.9216 11.4409 11.9276 11.4413 11.9395 11.4413H16.0947ZM14.5527 8.47644C14.5576 8.47764 14.5631 8.47961 14.5674 8.4823C14.5721 8.48529 14.576 8.4898 14.584 8.49792L16.1455 10.0829C16.1857 10.1237 16.2054 10.1444 16.207 10.162C16.2081 10.1773 16.2021 10.193 16.1904 10.203C16.1767 10.2142 16.1472 10.2137 16.0898 10.2137H8.10645C8.09461 10.2137 8.08858 10.2141 8.08301 10.2128C8.07815 10.2116 8.07359 10.2095 8.06934 10.2069C8.06446 10.2039 8.06006 10.1997 8.05176 10.1913L6.48535 8.60632C6.44477 8.56526 6.4243 8.54486 6.42285 8.52722C6.42171 8.51198 6.42791 8.49716 6.43945 8.48718C6.45297 8.47568 6.48206 8.47546 6.54004 8.47546H14.5293C14.541 8.47546 14.5472 8.47516 14.5527 8.47644ZM16.0898 5.46765C16.1477 5.46765 16.1769 5.46794 16.1904 5.47937C16.2021 5.48928 16.2082 5.50415 16.207 5.51941C16.2058 5.5371 16.1853 5.55821 16.1445 5.59949L14.5781 7.18347C14.5698 7.19193 14.5655 7.19705 14.5605 7.20007C14.5564 7.2026 14.5516 7.20478 14.5469 7.20593C14.5414 7.20723 14.5352 7.20691 14.5234 7.20691H6.54004C6.48214 7.20691 6.45296 7.20668 6.43945 7.19519C6.42784 7.18525 6.42176 7.1704 6.42285 7.15515C6.42415 7.13746 6.44473 7.11632 6.48535 7.07507L8.0459 5.49109C8.05423 5.48264 8.05859 5.4785 8.06348 5.47546C8.06777 5.47283 8.07227 5.47079 8.07715 5.4696C8.08275 5.46824 8.08868 5.46765 8.10059 5.46765H16.0898Z" fill="url(#paint2_linear_1163_53835)"/>
<defs>
<linearGradient id="paint0_linear_1163_53835" x1="10" y1="0" x2="10" y2="20.0006" gradientUnits="userSpaceOnUse">
<stop stop-color="#00140E"/>
<stop offset="1" stop-color="#023224"/>
</linearGradient>
<linearGradient id="paint1_linear_1163_53835" x1="10.0002" y1="1.11111" x2="10.0454" y2="16.3914" gradientUnits="userSpaceOnUse">
<stop stop-color="white"/>
<stop offset="1" stop-color="#CDDACD"/>
</linearGradient>
<linearGradient id="paint2_linear_1163_53835" x1="10.2096" y1="5.46765" x2="10.2286" y2="13.6121" gradientUnits="userSpaceOnUse">
<stop stop-color="white"/>
<stop offset="1" stop-color="#CDDACD"/>
</linearGradient>
</defs>
</svg>
