<svg width="44" height="44" viewBox="0 0 44 44" fill="none" xmlns="http://www.w3.org/2000/svg">
<g clip-path="url(#clip0_1347_57063)">
<path d="M0 22C0 9.84974 9.84974 0 22 0C34.1503 0 44 9.84974 44 22C44 34.1503 34.1503 44 22 44C9.84974 44 0 34.1503 0 22Z" fill="url(#paint0_linear_1347_57063)"/>
<path d="M5 39.11C5 29.6604 12.6604 22 22.11 22C31.5596 22 39.22 29.6604 39.22 39.11C39.22 48.5596 31.5596 56.22 22.11 56.22C12.6604 56.22 5 48.5596 5 39.11Z" fill="url(#paint1_linear_1347_57063)"/>
<path d="M26.4854 24.0225C26.5649 24.0086 26.6498 24.036 26.8193 24.0898C29.901 25.068 32.6091 26.9787 34.5645 29.5645C36.6257 32.2903 37.738 35.6167 37.7305 39.0342C37.723 42.4515 36.5965 45.7726 34.5234 48.4893C32.557 51.0665 29.8408 52.9659 26.7549 53.9307C26.5848 53.9837 26.4993 54.0104 26.4199 53.9961C26.3515 53.9838 26.2847 53.9473 26.2373 53.8965C26.1824 53.8374 26.1582 53.7485 26.1094 53.5713L25.9736 53.0791C25.9246 52.9013 25.8995 52.8121 25.9141 52.7363C25.9272 52.6681 25.9588 52.6097 26.0088 52.5615C26.0643 52.508 26.1557 52.4796 26.3379 52.4219C29.0944 51.5487 31.5201 49.8456 33.2793 47.54C35.1452 45.0948 36.1593 42.1061 36.166 39.0303C36.1727 35.9544 35.1716 32.9611 33.3164 30.5078C31.5671 28.1948 29.1493 26.4818 26.3965 25.5967C26.2147 25.5383 26.1236 25.5086 26.0684 25.4551C26.0186 25.4067 25.9865 25.3484 25.9736 25.2803C25.9593 25.2046 25.9843 25.1151 26.0342 24.9375L26.1729 24.4453C26.2225 24.2685 26.2474 24.1799 26.3027 24.1211C26.3504 24.0706 26.417 24.0345 26.4854 24.0225ZM17.7451 24.0039C17.8134 24.0162 17.8803 24.0518 17.9277 24.1025C17.9828 24.1616 18.0077 24.2505 18.0566 24.4277L18.1924 24.9209C18.2414 25.0983 18.2654 25.1872 18.251 25.2627C18.2378 25.3309 18.2063 25.3893 18.1562 25.4375C18.1008 25.491 18.0095 25.5204 17.8271 25.5781C15.0707 26.4512 12.6449 28.1536 10.8857 30.459C9.01998 32.9041 8.00676 35.8931 8 38.9688C7.99331 42.0446 8.99338 45.0389 10.8486 47.4922C12.5979 49.8053 15.0167 51.5184 17.7695 52.4033C17.9514 52.4619 18.0424 52.4912 18.0977 52.5449C18.1474 52.5933 18.1785 52.6516 18.1914 52.7197C18.2056 52.7955 18.1807 52.884 18.1309 53.0615L17.9932 53.5537C17.9435 53.7307 17.9187 53.8201 17.8633 53.8789C17.8158 53.9293 17.7489 53.9645 17.6807 53.9766C17.6011 53.9906 17.5155 53.9641 17.3457 53.9102C14.2642 52.932 11.5569 51.0211 9.60156 48.4355C7.54016 45.7096 6.42813 42.3834 6.43555 38.9658C6.44297 35.5482 7.56933 32.2267 9.64258 29.5098C11.6092 26.9327 14.3253 25.034 17.4111 24.0693C17.5809 24.0163 17.6657 23.9897 17.7451 24.0039ZM28.0107 37.3232C28.0797 37.3232 28.1411 37.3227 28.2002 37.3369C28.2505 37.3491 28.2986 37.3693 28.3428 37.3965C28.3947 37.4285 28.4377 37.4714 28.4863 37.5205L28.4922 37.5273L30.1553 39.2051V39.2061L30.1621 39.2119H30.1611C30.2093 39.2604 30.252 39.3022 30.2832 39.3535C30.3099 39.3974 30.3298 39.446 30.3418 39.4961C30.3556 39.5545 30.3555 39.6143 30.3555 39.6826V45.6562C30.3555 45.744 30.3556 45.8195 30.3506 45.8818C30.3452 45.947 30.3332 46.0121 30.3018 46.0742C30.2544 46.1669 30.1789 46.2427 30.0859 46.29C30.0547 46.306 30.0224 46.3167 29.9902 46.3242L29.8936 46.3389C29.8315 46.3438 29.7556 46.3438 29.668 46.3438H23.623L23.4199 46.3477C23.3763 46.3514 23.3591 46.3571 23.3506 46.3613C23.3198 46.377 23.2941 46.4027 23.2783 46.4336C23.2742 46.4417 23.2683 46.4587 23.2646 46.5029C23.2609 46.5496 23.2607 46.6112 23.2607 46.7061V48.5508C23.2607 48.6386 23.261 48.7151 23.2559 48.7773C23.2505 48.8422 23.2385 48.9067 23.207 48.9688C23.1716 49.0382 23.12 49.0981 23.0576 49.1436L22.9912 49.1846C22.9289 49.2165 22.8637 49.2281 22.7988 49.2334C22.7367 49.2384 22.6609 49.2383 22.5732 49.2383H21.1006C21.0127 49.2383 20.9363 49.2384 20.874 49.2334C20.8417 49.2307 20.8093 49.2263 20.7773 49.2188L20.6826 49.1846C20.5898 49.1372 20.5141 49.0616 20.4668 48.9688C20.4352 48.9066 20.4233 48.8423 20.418 48.7773C20.4129 48.7151 20.4131 48.6386 20.4131 48.5508V43.8096C20.4131 43.7217 20.4129 43.6455 20.418 43.583C20.4233 43.5181 20.4353 43.4537 20.4668 43.3916V43.3906C20.5141 43.2981 20.59 43.223 20.6826 43.1758C20.7446 43.1443 20.809 43.1323 20.874 43.127C20.9363 43.122 21.0127 43.1221 21.1006 43.1221H27.2383C27.3328 43.1221 27.3946 43.1218 27.4414 43.1182C27.4858 43.1146 27.5028 43.1076 27.5107 43.1035L27.5527 43.0732C27.5647 43.0613 27.5752 43.0475 27.583 43.0322C27.5871 43.024 27.5931 43.0072 27.5967 42.9629V42.9619C27.6005 42.9155 27.6006 42.8544 27.6006 42.7598V40.8955C27.6006 40.8005 27.6006 40.7389 27.5967 40.6924L27.583 40.623C27.5673 40.5923 27.5417 40.5676 27.5107 40.5518V40.5508C27.5027 40.5467 27.4857 40.5407 27.4414 40.5371C27.3948 40.5333 27.3332 40.5332 27.2383 40.5332H23.6191C23.5313 40.5332 23.4549 40.5334 23.3926 40.5283C23.3278 40.523 23.2632 40.5111 23.2012 40.4795C23.1083 40.4322 23.0327 40.3565 22.9854 40.2637C22.9538 40.2016 22.9419 40.1371 22.9365 40.0723C22.9314 40.0099 22.9316 39.9336 22.9316 39.8457V38.0107C22.9316 37.9228 22.9314 37.8465 22.9365 37.7842C22.9418 37.7193 22.9538 37.6548 22.9854 37.5928C23.0326 37.5 23.1084 37.4243 23.2012 37.377C23.2632 37.3453 23.3278 37.3335 23.3926 37.3281C23.4549 37.323 23.5313 37.3232 23.6191 37.3232H28.0107ZM22.7988 28.6025C22.8639 28.6079 22.929 28.6197 22.9912 28.6514C23.084 28.6987 23.1597 28.7743 23.207 28.8672C23.2386 28.9292 23.2505 28.9938 23.2559 29.0586C23.261 29.1209 23.2607 29.1973 23.2607 29.2852V34.0469C23.2607 34.1347 23.261 34.2111 23.2559 34.2734C23.2505 34.3382 23.2386 34.4028 23.207 34.4648C23.1597 34.5576 23.084 34.6334 22.9912 34.6807C22.929 34.7123 22.8638 34.7242 22.7988 34.7295C22.7366 34.7346 22.6609 34.7344 22.5732 34.7344H17.0732C16.9785 34.7344 16.9167 34.7345 16.8701 34.7383C16.8256 34.742 16.8089 34.7488 16.8008 34.7529V34.752C16.7699 34.7677 16.7443 34.7933 16.7285 34.8242C16.7244 34.8324 16.7185 34.8494 16.7148 34.8936C16.711 34.9402 16.7109 35.0019 16.7109 35.0967V36.9609C16.7109 37.0554 16.7111 37.1166 16.7148 37.1631C16.7185 37.2078 16.7244 37.2253 16.7285 37.2334C16.7443 37.2642 16.77 37.289 16.8008 37.3047C16.8089 37.3088 16.8256 37.3157 16.8701 37.3193C16.9167 37.3232 16.9784 37.3232 17.0732 37.3232H20.0547C20.1423 37.3232 20.2181 37.323 20.2803 37.3281C20.3453 37.3334 20.4104 37.3453 20.4727 37.377C20.5654 37.4243 20.6412 37.5001 20.6885 37.5928C20.72 37.6548 20.732 37.7194 20.7373 37.7842C20.7424 37.8465 20.7422 37.9229 20.7422 38.0107V39.8457C20.7422 39.9334 20.7423 40.0091 20.7373 40.0713C20.732 40.1362 20.7201 40.2015 20.6885 40.2637C20.6412 40.3563 20.5654 40.4322 20.4727 40.4795C20.4105 40.5111 20.3453 40.523 20.2803 40.5283C20.2181 40.5334 20.1423 40.5332 20.0547 40.5332H16.0977C16.0288 40.5332 15.9681 40.5337 15.9092 40.5195C15.8587 40.5074 15.8099 40.4872 15.7656 40.46C15.7141 40.4281 15.6715 40.3847 15.623 40.3359L15.6162 40.3291L14.0107 38.7148L14.0039 38.708C13.9558 38.6597 13.9132 38.6177 13.8818 38.5664C13.855 38.5224 13.8353 38.474 13.8232 38.4238C13.8092 38.3652 13.8095 38.3048 13.8096 38.2363V32.2002C13.8096 32.1125 13.8094 32.0369 13.8145 31.9746C13.8197 31.9096 13.8316 31.8444 13.8633 31.7822C13.9106 31.6894 13.9863 31.6137 14.0791 31.5664C14.1411 31.5349 14.2057 31.5229 14.2705 31.5176C14.3328 31.5125 14.4092 31.5127 14.4971 31.5127H20.0508C20.1455 31.5127 20.2073 31.5126 20.2539 31.5088C20.298 31.5051 20.3151 31.4992 20.3232 31.4951C20.3541 31.4794 20.3788 31.4536 20.3945 31.4229C20.3987 31.4147 20.4055 31.3981 20.4092 31.3535C20.413 31.3069 20.4131 31.2452 20.4131 31.1504V29.2852C20.4131 29.1973 20.4129 29.1209 20.418 29.0586C20.4233 28.9937 20.4352 28.9292 20.4668 28.8672C20.5141 28.7743 20.5898 28.6987 20.6826 28.6514C20.7446 28.6198 20.8092 28.6079 20.874 28.6025C20.9363 28.5975 21.0127 28.5977 21.1006 28.5977H22.5732C22.6609 28.5977 22.7366 28.5975 22.7988 28.6025Z" fill="url(#paint2_linear_1347_57063)"/>
<mask id="path-5-inside-1_1347_57063" fill="white">
<path d="M17.4883 15.2134H21.2002V16.8042H15.5V8.18604H17.4883V15.2134ZM25.9375 8.18604C27.5282 8.1861 29.357 8.82298 29.251 11.3687C29.1446 13.9141 26.1136 14.1968 24.6113 14.02V16.8042H22.623V8.18604H25.9375ZM24.6123 12.561H25.8047C26.2908 12.561 27.2636 12.2698 27.2637 11.103C27.2637 9.9362 26.2908 9.64404 25.8047 9.64404H24.6123V12.561Z"/>
</mask>
<path d="M17.4883 15.2134H21.2002V16.8042H15.5V8.18604H17.4883V15.2134ZM25.9375 8.18604C27.5282 8.1861 29.357 8.82298 29.251 11.3687C29.1446 13.9141 26.1136 14.1968 24.6113 14.02V16.8042H22.623V8.18604H25.9375ZM24.6123 12.561H25.8047C26.2908 12.561 27.2636 12.2698 27.2637 11.103C27.2637 9.9362 26.2908 9.64404 25.8047 9.64404H24.6123V12.561Z" fill="url(#paint3_linear_1347_57063)"/>
<path d="M17.4883 15.2134H17.2758V15.4259H17.4883V15.2134ZM21.2002 15.2134H21.4127V15.0009H21.2002V15.2134ZM21.2002 16.8042V17.0167H21.4127V16.8042H21.2002ZM15.5 16.8042H15.2875V17.0167H15.5V16.8042ZM15.5 8.18604V7.97351H15.2875V8.18604H15.5ZM17.4883 8.18604H17.7008V7.97351H17.4883V8.18604ZM25.9375 8.18604L25.9375 7.97351H25.9375V8.18604ZM29.251 11.3687L29.4633 11.3775L29.4633 11.3775L29.251 11.3687ZM24.6113 14.02L24.6362 13.809L24.3988 13.781V14.02H24.6113ZM24.6113 16.8042V17.0167H24.8239V16.8042H24.6113ZM22.623 16.8042H22.4105V17.0167H22.623V16.8042ZM22.623 8.18604V7.97351H22.4105V8.18604H22.623ZM24.6123 12.561H24.3998V12.7736H24.6123V12.561ZM27.2637 11.103L27.4762 11.103V11.103H27.2637ZM24.6123 9.64404V9.43152H24.3998V9.64404H24.6123ZM17.4883 15.2134V15.4259H21.2002V15.2134V15.0009H17.4883V15.2134ZM21.2002 15.2134H20.9877V16.8042H21.2002H21.4127V15.2134H21.2002ZM21.2002 16.8042V16.5917H15.5V16.8042V17.0167H21.2002V16.8042ZM15.5 16.8042H15.7125V8.18604H15.5H15.2875V16.8042H15.5ZM15.5 8.18604V8.39856H17.4883V8.18604V7.97351H15.5V8.18604ZM17.4883 8.18604H17.2758V15.2134H17.4883H17.7008V8.18604H17.4883ZM25.9375 8.18604L25.9375 8.39856C26.7109 8.39859 27.513 8.55451 28.1038 8.99335C28.6813 9.42228 29.0892 10.1455 29.0386 11.3598L29.251 11.3687L29.4633 11.3775C29.5188 10.0461 29.0653 9.17808 28.3572 8.65213C27.6625 8.1361 26.7548 7.97355 25.9375 7.97351L25.9375 8.18604ZM29.251 11.3687L29.0386 11.3598C29.0139 11.951 28.821 12.4003 28.5301 12.7445C28.2368 13.0915 27.8348 13.3422 27.3787 13.5167C26.4622 13.8673 25.3661 13.8948 24.6362 13.809L24.6113 14.02L24.5865 14.2311C25.3589 14.322 26.5294 14.2966 27.5306 13.9137C28.0333 13.7214 28.5029 13.4352 28.8547 13.0188C29.209 12.5996 29.4348 12.0591 29.4633 11.3775L29.251 11.3687ZM24.6113 14.02H24.3988V16.8042H24.6113H24.8239V14.02H24.6113ZM24.6113 16.8042V16.5917H22.623V16.8042V17.0167H24.6113V16.8042ZM22.623 16.8042H22.8356V8.18604H22.623H22.4105V16.8042H22.623ZM22.623 8.18604V8.39856H25.9375V8.18604V7.97351H22.623V8.18604ZM24.6123 12.561V12.7736H25.8047V12.561V12.3485H24.6123V12.561ZM25.8047 12.561V12.7736C26.0817 12.7736 26.4927 12.6923 26.8405 12.4421C27.1993 12.1841 27.4762 11.7557 27.4762 11.103L27.2637 11.103L27.0511 11.103C27.0511 11.6171 26.8416 11.9178 26.5923 12.097C26.3323 12.2841 26.0138 12.3485 25.8047 12.3485V12.561ZM27.2637 11.103H27.4762C27.4762 10.4503 27.1993 10.0218 26.8407 9.76351C26.4928 9.51304 26.0818 9.43152 25.8047 9.43152V9.64404V9.85656C26.0137 9.85656 26.3322 9.92112 26.5923 10.1084C26.8416 10.288 27.0511 10.5889 27.0511 11.103H27.2637ZM25.8047 9.64404V9.43152H24.6123V9.64404V9.85656H25.8047V9.64404ZM24.6123 9.64404H24.3998V12.561H24.6123H24.8248V9.64404H24.6123Z" fill="white" fill-opacity="0.36" mask="url(#path-5-inside-1_1347_57063)"/>
</g>
<path d="M22 0.244141C34.0153 0.244141 43.7559 9.98474 43.7559 22C43.7559 34.0153 34.0153 43.7559 22 43.7559C9.98474 43.7559 0.244141 34.0153 0.244141 22C0.244141 9.98474 9.98474 0.244141 22 0.244141Z" stroke="#252A2D" stroke-width="0.488889"/>
<defs>
<linearGradient id="paint0_linear_1347_57063" x1="22" y1="0" x2="22" y2="44" gradientUnits="userSpaceOnUse">
<stop stop-color="#00140E"/>
<stop offset="1" stop-color="#023224"/>
</linearGradient>
<linearGradient id="paint1_linear_1347_57063" x1="22.11" y1="17.3336" x2="22.1191" y2="37.5545" gradientUnits="userSpaceOnUse">
<stop stop-color="white"/>
<stop offset="1" stop-color="#CDDACD"/>
</linearGradient>
<linearGradient id="paint2_linear_1347_57063" x1="22.083" y1="24" x2="22.083" y2="53.9998" gradientUnits="userSpaceOnUse">
<stop stop-color="#00140E"/>
<stop offset="1" stop-color="#023224"/>
</linearGradient>
<linearGradient id="paint3_linear_1347_57063" x1="22.3777" y1="8.18604" x2="22.3914" y2="15.5935" gradientUnits="userSpaceOnUse">
<stop stop-color="white"/>
<stop offset="1" stop-color="#CDDACD"/>
</linearGradient>
<clipPath id="clip0_1347_57063">
<path d="M0 22C0 9.84974 9.84974 0 22 0C34.1503 0 44 9.84974 44 22C44 34.1503 34.1503 44 22 44C9.84974 44 0 34.1503 0 22Z" fill="white"/>
</clipPath>
</defs>
</svg>
