<svg width="20" height="20" viewBox="0 0 20 20" fill="none" xmlns="http://www.w3.org/2000/svg">
<g clip-path="url(#clip0_10957_78535)">
<path d="M0 10.0002C0 4.4774 4.47715 0.000244141 10 0.000244141V0.000244141C15.5228 0.000244141 20 4.4774 20 10.0002V10.0002C20 15.5231 15.5228 20.0002 10 20.0002V20.0002C4.47715 20.0002 0 15.5231 0 10.0002V10.0002Z" fill="url(#paint0_linear_10957_78535)"/>
<path d="M10 20.0002C15.5228 20.0002 20 15.5231 20 10.0002C20 4.4774 15.5228 0.000244141 10 0.000244141C4.47715 0.000244141 0 4.4774 0 10.0002C0 15.5231 4.47715 20.0002 10 20.0002Z" fill="url(#paint1_linear_10957_78535)"/>
<path d="M20 10.0002C20 15.5231 15.5228 20.0002 10 20.0002C4.47715 20.0002 0 15.5231 0 10.0002C0 4.4774 4.47715 0.000244141 10 0.000244141C15.5228 0.000244141 20 4.4774 20 10.0002ZM0.215942 10.0002C0.215942 15.4038 4.59641 19.7843 10 19.7843C15.4036 19.7843 19.7841 15.4038 19.7841 10.0002C19.7841 4.59666 15.4036 0.216187 10 0.216187C4.59641 0.216187 0.215942 4.59666 0.215942 10.0002Z" fill="#252A2D"/>
<path fill-rule="evenodd" clip-rule="evenodd" d="M8.82825 3.33374C5.69706 3.93757 3.33203 6.69266 3.33203 10.0001C3.33203 13.3076 5.69706 16.0627 8.82825 16.6665V16.0302C6.04379 15.4359 3.95555 12.9619 3.95555 10.0001C3.95555 7.03836 6.04379 4.56434 8.82825 3.97008V3.33374ZM11.4234 3.97196V3.33544C14.5502 3.94271 16.9108 6.69575 16.9108 10.0001C16.9108 13.3045 14.5502 16.0575 11.4234 16.6648V16.0283C14.2034 15.4307 16.2873 12.9588 16.2873 10.0001C16.2873 7.04147 14.2034 4.56953 11.4234 3.97196Z" fill="url(#paint2_linear_10957_78535)"/>
<path d="M11.0877 9.77329C11.6058 9.87201 12.0076 10.0624 12.2931 10.3445C12.5787 10.6195 12.7215 10.9721 12.7215 11.4023V12.0793C12.7215 12.5941 12.5355 13.0101 12.1636 13.3275C11.7917 13.6378 11.3036 13.7929 10.6992 13.7929H10.49V14.8719H9.77272V13.7929H9.55356C9.15507 13.7929 8.80308 13.7048 8.49757 13.5285C8.19207 13.3451 7.95298 13.0912 7.7803 12.7669C7.61427 12.4354 7.53125 12.0546 7.53125 11.6244H8.24852C8.24852 12.0617 8.36807 12.4178 8.60716 12.6928C8.85289 12.9608 9.175 13.0948 9.57348 13.0948H10.6793C11.0711 13.0948 11.3866 13.0031 11.6257 12.8197C11.8648 12.6293 11.9843 12.3825 11.9843 12.0793V11.4023C11.9843 11.1625 11.8947 10.958 11.7153 10.7888C11.5427 10.6195 11.3036 10.5102 10.9981 10.4609L9.20488 10.1435C8.70014 10.0518 8.30829 9.86144 8.02936 9.57231C7.75042 9.28317 7.61095 8.92 7.61095 8.48277V7.91156C7.61095 7.39677 7.79026 6.98776 8.1489 6.68452C8.51418 6.37423 8.99568 6.21909 9.59341 6.21909H9.77272V5.14014H10.49V6.21909H10.7191C11.2836 6.21909 11.7386 6.40244 12.0839 6.76914C12.4293 7.1288 12.602 7.6048 12.602 8.19717H11.8847C11.8847 7.80931 11.7784 7.49902 11.5659 7.26631C11.3534 7.03359 11.0711 6.91724 10.7191 6.91724H9.59341C9.21485 6.91724 8.91266 7.00891 8.68685 7.19226C8.46105 7.36856 8.34814 7.60833 8.34814 7.91156V8.48277C8.34814 8.72959 8.43116 8.93763 8.5972 9.10687C8.76987 9.27612 9.00564 9.38895 9.3045 9.44537L11.0877 9.77329Z" fill="url(#paint3_linear_10957_78535)"/>
</g>
<defs>
<linearGradient id="paint0_linear_10957_78535" x1="10" y1="0.000244141" x2="10" y2="20.0002" gradientUnits="userSpaceOnUse">
<stop stop-color="#00140E"/>
<stop offset="1" stop-color="#023224"/>
</linearGradient>
<linearGradient id="paint1_linear_10957_78535" x1="10" y1="0.000244141" x2="10" y2="20.0002" gradientUnits="userSpaceOnUse">
<stop stop-color="#00140E"/>
<stop offset="1" stop-color="#023224"/>
</linearGradient>
<linearGradient id="paint2_linear_10957_78535" x1="10.1214" y1="3.33374" x2="10.1547" y2="14.7935" gradientUnits="userSpaceOnUse">
<stop stop-color="white"/>
<stop offset="1" stop-color="#CDDACD"/>
</linearGradient>
<linearGradient id="paint3_linear_10957_78535" x1="10.1264" y1="5.14014" x2="10.1728" y2="13.5045" gradientUnits="userSpaceOnUse">
<stop stop-color="white"/>
<stop offset="1" stop-color="#CDDACD"/>
</linearGradient>
<clipPath id="clip0_10957_78535">
<path d="M0 10.0002C0 4.4774 4.47715 0.000244141 10 0.000244141V0.000244141C15.5228 0.000244141 20 4.4774 20 10.0002V10.0002C20 15.5231 15.5228 20.0002 10 20.0002V20.0002C4.47715 20.0002 0 15.5231 0 10.0002V10.0002Z" fill="white"/>
</clipPath>
</defs>
</svg>
