<svg width="18" height="18" viewBox="0 0 18 18" fill="none" xmlns="http://www.w3.org/2000/svg">
<g clip-path="url(#clip0_7415_59)">
<path d="M0 9C0 4.02944 4.02944 0 9 0V0C13.9706 0 18 4.02944 18 9V9C18 13.9706 13.9706 18 9 18V18C4.02944 18 0 13.9706 0 9V9Z" fill="url(#paint0_linear_7415_59)"/>
<path d="M9 18C13.9706 18 18 13.9706 18 9C18 4.02944 13.9706 0 9 0C4.02944 0 0 4.02944 0 9C0 13.9706 4.02944 18 9 18Z" fill="url(#paint1_linear_7415_59)"/>
<path d="M18 9C18 13.9706 13.9706 18 9 18C4.02944 18 0 13.9706 0 9C0 4.02944 4.02944 0 9 0C13.9706 0 18 4.02944 18 9ZM0.194348 9C0.194348 13.8632 4.13677 17.8057 9 17.8057C13.8632 17.8057 17.8057 13.8632 17.8057 9C17.8057 4.13677 13.8632 0.194348 9 0.194348C4.13677 0.194348 0.194348 4.13677 0.194348 9Z" fill="#252A2D"/>
<path d="M9.78126 8.20819C10.5232 5.81099 9.70987 3.64211 9.21046 3C7.89767 4.59813 8.18783 7.13801 8.49701 8.20819C7.29837 6.61006 4.90598 6.1154 3.85962 6.06784C4.54453 8.00842 6.90368 8.9692 7.99763 9.20702C5.48629 9.77777 4.19256 11.4901 3.85962 12.2749C5.8002 12.6173 7.75978 11.0382 8.49701 10.2059C7.75501 12.6601 8.56835 14.5579 9.06776 15.2C10.1522 13.5448 9.90013 11.1809 9.63853 10.2059C11.0654 12.0323 13.3723 12.2035 14.3473 12.0608C13.7194 10.3486 11.3746 9.51618 10.2807 9.20702C13.0203 8.63626 14.1332 6.80507 14.3473 6.06784C12.5779 5.66831 10.566 7.42339 9.78126 8.20819Z" fill="url(#paint2_linear_7415_59)"/>
</g>
<defs>
<linearGradient id="paint0_linear_7415_59" x1="9" y1="0" x2="9" y2="18" gradientUnits="userSpaceOnUse">
<stop stop-color="#00140E"/>
<stop offset="1" stop-color="#023224"/>
</linearGradient>
<linearGradient id="paint1_linear_7415_59" x1="9" y1="0" x2="9" y2="18" gradientUnits="userSpaceOnUse">
<stop stop-color="#00140E"/>
<stop offset="1" stop-color="#023224"/>
</linearGradient>
<linearGradient id="paint2_linear_7415_59" x1="9.10346" y1="3" x2="9.13953" y2="13.4861" gradientUnits="userSpaceOnUse">
<stop stop-color="white"/>
<stop offset="1" stop-color="#CDDACD"/>
</linearGradient>
<clipPath id="clip0_7415_59">
<path d="M0 9C0 4.02944 4.02944 0 9 0V0C13.9706 0 18 4.02944 18 9V9C18 13.9706 13.9706 18 9 18V18C4.02944 18 0 13.9706 0 9V9Z" fill="white"/>
</clipPath>
</defs>
</svg>
