<svg width="20" height="20" viewBox="0 0 20 20" fill="none" xmlns="http://www.w3.org/2000/svg">
<g clip-path="url(#clip0_10957_78261)">
<path d="M0 10C0 4.47715 4.47715 0 10 0C15.5228 0 20 4.47715 20 10C20 15.5228 15.5228 20 10 20C4.47715 20 0 15.5228 0 10Z" fill="url(#paint0_linear_10957_78261)"/>
<path d="M10 20C15.5228 20 20 15.5228 20 10C20 4.47715 15.5228 0 10 0C4.47715 0 0 4.47715 0 10C0 15.5228 4.47715 20 10 20Z" fill="url(#paint1_linear_10957_78261)"/>
<path d="M20 10C20 15.5228 15.5228 20 10 20C4.47715 20 0 15.5228 0 10C0 4.47715 4.47715 0 10 0C15.5228 0 20 4.47715 20 10ZM0.215942 10C0.215942 15.4036 4.59641 19.7841 10 19.7841C15.4036 19.7841 19.7841 15.4036 19.7841 10C19.7841 4.59641 15.4036 0.215942 10 0.215942C4.59641 0.215942 0.215942 4.59641 0.215942 10Z" fill="#252A2D"/>
<path fill-rule="evenodd" clip-rule="evenodd" d="M8.82825 3.33325C5.69706 3.93708 3.33203 6.69217 3.33203 9.99964C3.33203 13.3071 5.69706 16.0622 8.82825 16.666V16.0297C6.04379 15.4354 3.95555 12.9614 3.95555 9.99964C3.95555 7.03788 6.04379 4.56385 8.82825 3.96959V3.33325ZM11.4234 3.97147V3.33495C14.5502 3.94222 16.9108 6.69526 16.9108 9.99964C16.9108 13.304 14.5502 16.0571 11.4234 16.6643V16.0278C14.2034 15.4302 16.2873 12.9583 16.2873 9.99964C16.2873 7.04099 14.2034 4.56904 11.4234 3.97147Z" fill="url(#paint2_linear_10957_78261)"/>
<path d="M11.0877 9.7728C11.6058 9.87153 12.0076 10.0619 12.2931 10.344C12.5787 10.619 12.7215 10.9716 12.7215 11.4018V12.0788C12.7215 12.5936 12.5355 13.0097 12.1636 13.327C11.7917 13.6373 11.3036 13.7924 10.6992 13.7924H10.49V14.8714H9.77272V13.7924H9.55356C9.15507 13.7924 8.80308 13.7043 8.49757 13.528C8.19207 13.3446 7.95298 13.0908 7.7803 12.7664C7.61427 12.4349 7.53125 12.0541 7.53125 11.6239H8.24852C8.24852 12.0612 8.36807 12.4173 8.60716 12.6923C8.85289 12.9603 9.175 13.0943 9.57348 13.0943H10.6793C11.0711 13.0943 11.3866 13.0026 11.6257 12.8193C11.8648 12.6288 11.9843 12.382 11.9843 12.0788V11.4018C11.9843 11.162 11.8947 10.9575 11.7153 10.7883C11.5427 10.619 11.3036 10.5097 10.9981 10.4604L9.20488 10.143C8.70014 10.0514 8.30829 9.86095 8.02936 9.57182C7.75042 9.28269 7.61095 8.91951 7.61095 8.48229V7.91108C7.61095 7.39628 7.79026 6.98727 8.1489 6.68403C8.51418 6.37375 8.99568 6.2186 9.59341 6.2186H9.77272V5.13965H10.49V6.2186H10.7191C11.2836 6.2186 11.7386 6.40195 12.0839 6.76866C12.4293 7.12831 12.602 7.60432 12.602 8.19668H11.8847C11.8847 7.80882 11.7784 7.49854 11.5659 7.26582C11.3534 7.03311 11.0711 6.91675 10.7191 6.91675H9.59341C9.21485 6.91675 8.91266 7.00842 8.68685 7.19177C8.46105 7.36807 8.34814 7.60784 8.34814 7.91108V8.48229C8.34814 8.72911 8.43116 8.93714 8.5972 9.10639C8.76987 9.27563 9.00564 9.38847 9.3045 9.44488L11.0877 9.7728Z" fill="url(#paint3_linear_10957_78261)"/>
</g>
<defs>
<linearGradient id="paint0_linear_10957_78261" x1="10" y1="0" x2="10" y2="20" gradientUnits="userSpaceOnUse">
<stop stop-color="#00140E"/>
<stop offset="1" stop-color="#023224"/>
</linearGradient>
<linearGradient id="paint1_linear_10957_78261" x1="10" y1="0" x2="10" y2="20" gradientUnits="userSpaceOnUse">
<stop stop-color="#00140E"/>
<stop offset="1" stop-color="#023224"/>
</linearGradient>
<linearGradient id="paint2_linear_10957_78261" x1="10.1214" y1="3.33325" x2="10.1547" y2="14.793" gradientUnits="userSpaceOnUse">
<stop stop-color="white"/>
<stop offset="1" stop-color="#CDDACD"/>
</linearGradient>
<linearGradient id="paint3_linear_10957_78261" x1="10.1264" y1="5.13965" x2="10.1728" y2="13.504" gradientUnits="userSpaceOnUse">
<stop stop-color="white"/>
<stop offset="1" stop-color="#CDDACD"/>
</linearGradient>
<clipPath id="clip0_10957_78261">
<path d="M0 10C0 4.47715 4.47715 0 10 0C15.5228 0 20 4.47715 20 10C20 15.5228 15.5228 20 10 20C4.47715 20 0 15.5228 0 10Z" fill="white"/>
</clipPath>
</defs>
</svg>
