<svg width="18" height="18" viewBox="0 0 18 18" fill="none" xmlns="http://www.w3.org/2000/svg">
<g clip-path="url(#clip0_4203_8586)">
<path d="M0 9C0 4.02944 4.02944 0 9 0C13.9706 0 18 4.02944 18 9C18 13.9706 13.9706 18 9 18C4.02944 18 0 13.9706 0 9Z" fill="url(#paint0_linear_4203_8586)"/>
<path fill-rule="evenodd" clip-rule="evenodd" d="M10.0813 9.77819V9.77706C10.0194 9.78156 9.70051 9.80069 8.98895 9.80069C8.42082 9.80069 8.02088 9.78381 7.88026 9.77706V9.77875C5.69326 9.68256 4.06088 9.30175 4.06088 8.84613C4.06088 8.39106 5.69326 8.01025 7.88026 7.91238V9.39962C8.02313 9.40975 8.43263 9.43394 8.99851 9.43394C9.67744 9.43394 10.0178 9.40581 10.0813 9.40019V7.9135C12.2638 8.01081 13.8923 8.39162 13.8923 8.84613C13.8923 9.30175 12.2638 9.68144 10.0813 9.77819ZM10.0813 7.75881V6.42794H13.1267V4.39844H4.83488V6.42794H7.88026V7.75825C5.40526 7.87188 3.54395 8.36237 3.54395 8.94963C3.54395 9.53687 5.40526 10.0268 7.88026 10.141V14.4059H10.0813V10.1399C12.5524 10.0262 14.4092 9.53631 14.4092 8.94963C14.4092 8.36294 12.5524 7.873 10.0813 7.75881Z" fill="url(#paint1_linear_4203_8586)"/>
<path d="M18 9C18 13.9706 13.9706 18 9 18C4.02944 18 0 13.9706 0 9C0 4.02944 4.02944 0 9 0C13.9706 0 18 4.02944 18 9ZM0.194348 9C0.194348 13.8632 4.13677 17.8057 9 17.8057C13.8632 17.8057 17.8057 13.8632 17.8057 9C17.8057 4.13677 13.8632 0.194348 9 0.194348C4.13677 0.194348 0.194348 4.13677 0.194348 9Z" fill="#252A2D"/>
</g>
<defs>
<linearGradient id="paint0_linear_4203_8586" x1="9" y1="0" x2="9" y2="18" gradientUnits="userSpaceOnUse">
<stop stop-color="#00140E"/>
<stop offset="1" stop-color="#023224"/>
</linearGradient>
<linearGradient id="paint1_linear_4203_8586" x1="8.97657" y1="4.39844" x2="9" y2="13" gradientUnits="userSpaceOnUse">
<stop stop-color="white"/>
<stop offset="1" stop-color="#CDDACD"/>
</linearGradient>
<clipPath id="clip0_4203_8586">
<path d="M0 9C0 4.02944 4.02944 0 9 0C13.9706 0 18 4.02944 18 9C18 13.9706 13.9706 18 9 18C4.02944 18 0 13.9706 0 9Z" fill="white"/>
</clipPath>
</defs>
</svg>
