<svg width="18" height="18" viewBox="0 0 18 18" fill="none" xmlns="http://www.w3.org/2000/svg">
<g clip-path="url(#clip0_4166_88587)">
<path d="M8.98932 18C13.9644 18 17.9786 13.9717 17.9786 9.0106C18 4.02827 13.9644 0 8.98932 0C4.03559 0 0 4.02827 0 8.9894C0 13.9717 4.03559 18 8.98932 18Z" fill="#010101"/>
<path d="M10.4201 3.60352H9.43785H7.25991C6.91827 3.60352 6.59799 3.85793 6.55529 4.21836L6.34176 5.66005V5.68125H5.27415C4.99657 5.68125 4.76169 5.91447 4.76169 6.19009C4.76169 6.48691 4.99657 6.69892 5.27415 6.72012H6.17094L6.02148 7.71659V7.8014H4.95386C4.67628 7.8014 4.44141 8.03461 4.44141 8.31023C4.44141 8.58585 4.67628 8.81906 4.95386 8.81906H5.85066L5.35956 11.9145L5.21009 12.9533L5.12468 13.5046C5.06062 13.9498 5.38091 14.3314 5.82931 14.3314H6.51258H7.45208H8.22077C8.5624 14.3314 8.86134 14.077 8.92539 13.7166L9.37379 10.8756H9.63002H10.4841C12.4912 10.8756 14.1354 9.22189 14.0927 7.20776C14.0713 5.15122 12.4058 3.60352 10.4201 3.60352ZM7.21721 6.67772L10.4201 6.69892C10.6976 6.69892 10.9539 6.93214 10.9539 7.22896C10.9539 7.52578 10.719 7.75899 10.4201 7.75899H7.04639L7.21721 6.67772ZM10.4414 9.77313H9.9076H9.65137H9.11756C8.77593 9.77313 8.47699 10.0275 8.41294 10.388L7.96454 13.229H6.1923L6.87557 8.77666H10.4201C11.2741 8.77666 11.9788 8.07701 11.9788 7.22896C11.9788 6.3809 11.2741 5.68125 10.4201 5.68125L7.38803 5.66005L7.53749 4.64238H10.4841C11.9361 4.64238 13.0891 5.82966 13.0677 7.27136C13.025 8.67065 11.8507 9.77313 10.4414 9.77313Z" fill="#E6E6E6"/>
<g opacity="0.14" clip-path="url(#clip1_4166_88587)">
<path d="M15.5321 13.5995C15.4707 13.5995 15.4112 13.6302 15.3743 13.6794C13.8472 15.7702 11.3936 16.9571 8.81282 16.8546C4.81157 16.6947 1.55234 13.4355 1.3986 9.43217C1.31661 7.31059 2.08324 5.29766 3.55502 3.76644C5.02884 2.23317 7.00693 1.39069 9.12644 1.39069C11.5842 1.39069 13.919 2.57959 15.3743 4.57202C15.4112 4.62122 15.4707 4.65196 15.5321 4.65196C15.606 4.65196 15.6736 4.61097 15.7064 4.54537C15.7392 4.47978 15.733 4.39984 15.69 4.34039C14.1076 2.17577 11.5678 0.927424 8.89684 1.00327C6.80195 1.06066 4.83207 1.92159 3.35004 3.42412C1.86596 4.92869 1.03168 6.91087 1.00093 9.00376C0.968136 11.195 1.80037 13.2613 3.33979 14.8252C4.88126 16.3893 6.93519 17.2502 9.12438 17.2502C11.7051 17.2502 14.1588 16.0019 15.688 13.911C15.733 13.8516 15.7392 13.7716 15.7044 13.706C15.6715 13.6405 15.6039 13.5995 15.5302 13.5995H15.5321Z" fill="url(#paint0_radial_4166_88587)"/>
</g>
</g>
<defs>
<radialGradient id="paint0_radial_4166_88587" cx="0" cy="0" r="1" gradientUnits="userSpaceOnUse" gradientTransform="translate(16.8871 5.09886) rotate(108.838) scale(9.20484 22.2888)">
<stop offset="0.139194" stop-color="white" stop-opacity="0"/>
<stop offset="0.620501" stop-color="white" stop-opacity="0.536145"/>
<stop offset="1" stop-color="white"/>
</radialGradient>
<clipPath id="clip0_4166_88587">
<rect width="18" height="18" fill="white"/>
</clipPath>
<clipPath id="clip1_4166_88587">
<rect width="14.7273" height="16.2736" fill="white" transform="translate(1 1)"/>
</clipPath>
</defs>
</svg>
