<svg width="18" height="18" viewBox="0 0 18 18" fill="none" xmlns="http://www.w3.org/2000/svg">
<g clip-path="url(#clip0_51_1409)">
<path d="M8.98932 18C13.9644 18 17.9786 13.9717 17.9786 9.0106C18 4.02827 13.9644 0 8.98932 0C4.03559 0 0 4.02827 0 8.9894C0 13.9717 4.03559 18 8.98932 18Z" fill="#010101"/>
<path d="M10.4201 3.60425H9.43785H7.25991C6.91827 3.60425 6.59799 3.85866 6.55529 4.21909L6.34176 5.66079V5.68199H5.27415C4.99657 5.68199 4.76169 5.9152 4.76169 6.19082C4.76169 6.48764 4.99657 6.69966 5.27415 6.72086H6.17094L6.02148 7.71732V7.80213H4.95386C4.67628 7.80213 4.44141 8.03534 4.44141 8.31096C4.44141 8.58658 4.67628 8.8198 4.95386 8.8198H5.85066L5.35956 11.9152L5.21009 12.9541L5.12468 13.5053C5.06062 13.9505 5.38091 14.3322 5.82931 14.3322H6.51258H7.45208H8.22077C8.5624 14.3322 8.86134 14.0777 8.92539 13.7173L9.37379 10.8763H9.63002H10.4841C12.4912 10.8763 14.1354 9.22262 14.0927 7.20849C14.0713 5.15195 12.4058 3.60425 10.4201 3.60425ZM7.21721 6.67845L10.4201 6.69966C10.6976 6.69966 10.9539 6.93287 10.9539 7.22969C10.9539 7.52651 10.719 7.75973 10.4201 7.75973H7.04639L7.21721 6.67845ZM10.4414 9.77386H9.9076H9.65137H9.11756C8.77593 9.77386 8.47699 10.0283 8.41294 10.3887L7.96454 13.2297H6.1923L6.87557 8.77739H10.4201C11.2741 8.77739 11.9788 8.07775 11.9788 7.22969C11.9788 6.38163 11.2741 5.68199 10.4201 5.68199L7.38803 5.66079L7.53749 4.64312H10.4841C11.9361 4.64312 13.0891 5.8304 13.0677 7.27209C13.025 8.67139 11.8507 9.77386 10.4414 9.77386Z" fill="url(#paint0_linear_51_1409)"/>
<g opacity="0.14" clip-path="url(#clip1_51_1409)">
<path d="M15.5321 13.5994C15.4707 13.5994 15.4112 13.6301 15.3743 13.6793C13.8472 15.7701 11.3936 16.957 8.81282 16.8545C4.81157 16.6946 1.55234 13.4354 1.3986 9.43205C1.31661 7.31047 2.08324 5.29754 3.55502 3.76632C5.02884 2.23304 7.00693 1.39056 9.12644 1.39056C11.5842 1.39056 13.919 2.57947 15.3743 4.5719C15.4112 4.62109 15.4707 4.65184 15.5321 4.65184C15.606 4.65184 15.6736 4.61084 15.7064 4.54525C15.7392 4.47965 15.733 4.39971 15.69 4.34027C14.1076 2.17564 11.5678 0.927302 8.89684 1.00315C6.80195 1.06054 4.83207 1.92147 3.35004 3.42399C1.86596 4.92857 1.03168 6.91075 1.00093 9.00364C0.968136 11.1949 1.80037 13.2611 3.33979 14.8251C4.88126 16.3891 6.93519 17.2501 9.12438 17.2501C11.7051 17.2501 14.1588 16.0017 15.688 13.9109C15.733 13.8515 15.7392 13.7715 15.7044 13.7059C15.6715 13.6404 15.6039 13.5994 15.5302 13.5994H15.5321Z" fill="url(#paint1_radial_51_1409)"/>
</g>
</g>
<defs>
<linearGradient id="paint0_linear_51_1409" x1="9.26744" y1="3.60425" x2="9.26744" y2="14.3322" gradientUnits="userSpaceOnUse">
<stop stop-color="#C7F284"/>
<stop offset="0.277051" stop-color="#96E69F"/>
<stop offset="0.642557" stop-color="#63D8BB"/>
<stop offset="1" stop-color="#18C5E4"/>
</linearGradient>
<radialGradient id="paint1_radial_51_1409" cx="0" cy="0" r="1" gradientUnits="userSpaceOnUse" gradientTransform="translate(16.8871 5.09874) rotate(108.838) scale(9.20484 22.2888)">
<stop offset="0.139194" stop-color="white" stop-opacity="0"/>
<stop offset="0.620501" stop-color="white" stop-opacity="0.536145"/>
<stop offset="1" stop-color="white"/>
</radialGradient>
<clipPath id="clip0_51_1409">
<rect width="18" height="18" fill="white"/>
</clipPath>
<clipPath id="clip1_51_1409">
<rect width="14.7273" height="16.2736" fill="white" transform="translate(1 1)"/>
</clipPath>
</defs>
</svg>
