<svg width="18" height="18" viewBox="0 0 18 18" fill="none" xmlns="http://www.w3.org/2000/svg">
<circle cx="9" cy="9" r="9" fill="#010101"/>
<g clip-path="url(#clip0_51_1398)">
<path d="M13.4546 11.3942L11.9689 12.9637C11.9366 12.9977 11.8975 13.0249 11.8541 13.0435C11.8107 13.0621 11.7638 13.0717 11.7165 13.0716H4.67346C4.63985 13.0716 4.60698 13.062 4.57888 13.0438C4.55077 13.0257 4.52867 12.9998 4.51527 12.9695C4.50188 12.9391 4.49778 12.9056 4.50348 12.8729C4.50917 12.8403 4.52442 12.81 4.54735 12.7858L6.03419 11.2164C6.06641 11.1823 6.10536 11.1552 6.14864 11.1367C6.19193 11.1181 6.23862 11.1085 6.28584 11.1084H13.3285C13.3621 11.1084 13.395 11.118 13.4231 11.1362C13.4512 11.1543 13.4733 11.1802 13.4867 11.2105C13.5001 11.2409 13.5042 11.2745 13.4985 11.3071C13.4928 11.3397 13.4775 11.37 13.4546 11.3942ZM11.9689 8.2337C11.9366 8.1996 11.8975 8.17242 11.8541 8.15384C11.8107 8.13527 11.7638 8.1257 11.7165 8.12572H4.67346C4.63985 8.12572 4.60698 8.13539 4.57888 8.15355C4.55077 8.1717 4.52867 8.19754 4.51527 8.22789C4.50188 8.25826 4.49778 8.29181 4.50348 8.32443C4.50917 8.35705 4.52442 8.38732 4.54735 8.41153L6.03419 9.98101C6.06641 10.015 6.10536 10.0421 6.14864 10.0607C6.19193 10.0793 6.23862 10.0889 6.28584 10.089H13.3285C13.3621 10.089 13.395 10.0793 13.4231 10.0612C13.4512 10.043 13.4733 10.0172 13.4867 9.98681C13.5001 9.95645 13.5042 9.9229 13.4985 9.89027C13.4928 9.85766 13.4775 9.82738 13.4546 9.80317L11.9689 8.2337ZM4.67346 7.10633H11.7165C11.7638 7.10635 11.8107 7.09678 11.8541 7.07821C11.8975 7.05963 11.9366 7.03244 11.9689 6.99835L13.4546 5.42887C13.4775 5.40467 13.4928 5.3744 13.4985 5.34178C13.5042 5.30915 13.5001 5.2756 13.4867 5.24524C13.4733 5.21489 13.4512 5.18904 13.4231 5.17089C13.395 5.15274 13.3621 5.14307 13.3285 5.14307H6.28584C6.23862 5.14315 6.19193 5.15277 6.14864 5.17134C6.10536 5.18992 6.06641 5.21704 6.03419 5.25105L4.54773 6.82053C4.52483 6.8447 4.50959 6.87495 4.50387 6.90753C4.49816 6.94011 4.50223 6.97364 4.51558 7.00398C4.52893 7.03433 4.55097 7.06017 4.57902 7.07835C4.60706 7.09653 4.63988 7.10625 4.67346 7.10633Z" fill="url(#paint0_linear_51_1398)"/>
</g>
<g opacity="0.14" clip-path="url(#clip1_51_1398)">
<path d="M15.5321 13.5989C15.4707 13.5989 15.4112 13.6296 15.3743 13.6788C13.8472 15.7697 11.3936 16.9565 8.81282 16.854C4.81157 16.6942 1.55234 13.4349 1.3986 9.43163C1.31661 7.31004 2.08324 5.29711 3.55502 3.76589C5.02884 2.23262 7.00693 1.39014 9.12644 1.39014C11.5842 1.39014 13.919 2.57904 15.3743 4.57147C15.4112 4.62067 15.4707 4.65141 15.5321 4.65141C15.606 4.65141 15.6736 4.61042 15.7064 4.54482C15.7392 4.47923 15.733 4.39929 15.69 4.33984C14.1076 2.17522 11.5678 0.926875 8.89684 1.00272C6.80195 1.06011 4.83207 1.92104 3.35004 3.42357C1.86596 4.92814 1.03168 6.91032 1.00093 9.00321C0.968136 11.1945 1.80037 13.2607 3.33979 14.8247C4.88126 16.3887 6.93519 17.2497 9.12438 17.2497C11.7051 17.2497 14.1588 16.0013 15.688 13.9105C15.733 13.8511 15.7392 13.7711 15.7044 13.7055C15.6715 13.6399 15.6039 13.5989 15.5302 13.5989H15.5321Z" fill="url(#paint1_radial_51_1398)"/>
</g>
<defs>
<linearGradient id="paint0_linear_51_1398" x1="7.0724" y1="6.75272" x2="11.5724" y2="13.1813" gradientUnits="userSpaceOnUse">
<stop stop-color="#7ED28C"/>
<stop offset="1" stop-color="#3A997E"/>
</linearGradient>
<radialGradient id="paint1_radial_51_1398" cx="0" cy="0" r="1" gradientUnits="userSpaceOnUse" gradientTransform="translate(16.8871 5.09831) rotate(108.838) scale(9.20484 22.2888)">
<stop offset="0.139194" stop-color="white" stop-opacity="0"/>
<stop offset="0.620501" stop-color="white" stop-opacity="0.536145"/>
<stop offset="1" stop-color="white"/>
</radialGradient>
<clipPath id="clip0_51_1398">
<rect width="9" height="7.92857" fill="white" transform="translate(4.50049 5.1416)"/>
</clipPath>
<clipPath id="clip1_51_1398">
<rect width="14.7273" height="16.2736" fill="white" transform="translate(1 0.998199)"/>
</clipPath>
</defs>
</svg>
