<svg width="18" height="18" viewBox="0 0 18 18" fill="none" xmlns="http://www.w3.org/2000/svg">
<circle cx="9" cy="9" r="9" fill="#010101"/>
<g clip-path="url(#clip0_4166_88585)">
<path d="M13.4537 11.3937L11.9679 12.9632C11.9356 12.9973 11.8966 13.0244 11.8531 13.043C11.8097 13.0616 11.7629 13.0712 11.7155 13.0712H4.67248C4.63888 13.0712 4.606 13.0615 4.5779 13.0433C4.5498 13.0252 4.52769 12.9993 4.51429 12.969C4.5009 12.9386 4.4968 12.9051 4.5025 12.8724C4.5082 12.8398 4.52345 12.8095 4.54637 12.7853L6.03322 11.2159C6.06543 11.1819 6.10438 11.1547 6.14766 11.1362C6.19095 11.1176 6.23764 11.108 6.28486 11.1079H13.3275C13.3611 11.1079 13.394 11.1176 13.4221 11.1357C13.4502 11.1539 13.4723 11.1797 13.4857 11.2101C13.4991 11.2404 13.5032 11.274 13.4975 11.3066C13.4918 11.3392 13.4766 11.3695 13.4537 11.3937ZM11.9679 8.23321C11.9356 8.19911 11.8966 8.17193 11.8531 8.15335C11.8097 8.13479 11.7629 8.12521 11.7155 8.12524H4.67248C4.63888 8.12524 4.606 8.1349 4.5779 8.15306C4.5498 8.17121 4.52769 8.19705 4.51429 8.22741C4.5009 8.25777 4.4968 8.29132 4.5025 8.32394C4.5082 8.35656 4.52345 8.38683 4.54637 8.41104L6.03322 9.98052C6.06543 10.0145 6.10438 10.0416 6.14766 10.0602C6.19095 10.0788 6.23764 10.0884 6.28486 10.0885H13.3275C13.3611 10.0885 13.394 10.0788 13.4221 10.0607C13.4502 10.0425 13.4723 10.0167 13.4857 9.98632C13.4991 9.95596 13.5032 9.92241 13.4975 9.88978C13.4918 9.85717 13.4766 9.8269 13.4537 9.80269L11.9679 8.23321ZM4.67248 7.10585H11.7155C11.7629 7.10586 11.8097 7.0963 11.8531 7.07772C11.8966 7.05914 11.9356 7.03196 11.9679 6.99786L13.4537 5.42838C13.4766 5.40418 13.4918 5.37391 13.4975 5.34129C13.5032 5.30867 13.4991 5.27511 13.4857 5.24476C13.4723 5.2144 13.4502 5.18855 13.4221 5.1704C13.394 5.15225 13.3611 5.14258 13.3275 5.14258H6.28486C6.23764 5.14266 6.19095 5.15228 6.14766 5.17086C6.10438 5.18943 6.06543 5.21656 6.03322 5.25056L4.54676 6.82004C4.52385 6.84421 4.50861 6.87446 4.5029 6.90704C4.49719 6.93963 4.50125 6.97315 4.5146 7.0035C4.52795 7.03384 4.55 7.05968 4.57804 7.07786C4.60609 7.09604 4.63891 7.10576 4.67248 7.10585Z" fill="#E6E6E6"/>
</g>
<g opacity="0.14" clip-path="url(#clip1_4166_88585)">
<path d="M15.5321 13.5995C15.4707 13.5995 15.4112 13.6302 15.3743 13.6794C13.8472 15.7702 11.3936 16.9571 8.81282 16.8546C4.81157 16.6947 1.55234 13.4355 1.3986 9.43217C1.31661 7.31059 2.08324 5.29766 3.55502 3.76644C5.02884 2.23317 7.00693 1.39069 9.12644 1.39069C11.5842 1.39069 13.919 2.57959 15.3743 4.57202C15.4112 4.62122 15.4707 4.65196 15.5321 4.65196C15.606 4.65196 15.6736 4.61097 15.7064 4.54537C15.7392 4.47978 15.733 4.39984 15.69 4.34039C14.1076 2.17577 11.5678 0.927424 8.89684 1.00327C6.80195 1.06066 4.83207 1.92159 3.35004 3.42412C1.86596 4.92869 1.03168 6.91087 1.00093 9.00376C0.968136 11.195 1.80037 13.2613 3.33979 14.8252C4.88126 16.3893 6.93519 17.2502 9.12438 17.2502C11.7051 17.2502 14.1588 16.0019 15.688 13.911C15.733 13.8516 15.7392 13.7716 15.7044 13.706C15.6715 13.6405 15.6039 13.5995 15.5302 13.5995H15.5321Z" fill="url(#paint0_radial_4166_88585)"/>
</g>
<defs>
<radialGradient id="paint0_radial_4166_88585" cx="0" cy="0" r="1" gradientUnits="userSpaceOnUse" gradientTransform="translate(16.8871 5.09886) rotate(108.838) scale(9.20484 22.2888)">
<stop offset="0.139194" stop-color="white" stop-opacity="0"/>
<stop offset="0.620501" stop-color="white" stop-opacity="0.536145"/>
<stop offset="1" stop-color="white"/>
</radialGradient>
<clipPath id="clip0_4166_88585">
<rect width="9" height="7.92857" fill="white" transform="translate(4.5 5.14258)"/>
</clipPath>
<clipPath id="clip1_4166_88585">
<rect width="14.7273" height="16.2736" fill="white" transform="translate(1 1)"/>
</clipPath>
</defs>
</svg>
