<svg width="18" height="18" viewBox="0 0 18 18" fill="none" xmlns="http://www.w3.org/2000/svg">
<g clip-path="url(#clip0_4166_88591)">
<path d="M9 18C13.9706 18 18 13.9706 18 9C18 4.02944 13.9706 0 9 0C4.02944 0 0 4.02944 0 9C0 13.9706 4.02944 18 9 18Z" fill="#010101"/>
<g opacity="0.14" clip-path="url(#clip1_4166_88591)">
<path d="M15.5321 13.5995C15.4707 13.5995 15.4112 13.6302 15.3743 13.6794C13.8472 15.7702 11.3936 16.9571 8.81282 16.8546C4.81157 16.6947 1.55234 13.4355 1.3986 9.43217C1.31661 7.31059 2.08324 5.29766 3.55502 3.76644C5.02884 2.23317 7.00693 1.39069 9.12644 1.39069C11.5842 1.39069 13.919 2.57959 15.3743 4.57202C15.4112 4.62122 15.4707 4.65196 15.5321 4.65196C15.606 4.65196 15.6736 4.61097 15.7064 4.54537C15.7392 4.47978 15.733 4.39984 15.69 4.34039C14.1076 2.17577 11.5678 0.927424 8.89684 1.00327C6.80195 1.06066 4.83207 1.92159 3.35004 3.42412C1.86596 4.92869 1.03168 6.91087 1.00093 9.00376C0.968136 11.195 1.80037 13.2613 3.33979 14.8252C4.88126 16.3893 6.93519 17.2502 9.12438 17.2502C11.7051 17.2502 14.1588 16.0019 15.688 13.911C15.733 13.8516 15.7392 13.7716 15.7044 13.706C15.6715 13.6405 15.6039 13.5995 15.5302 13.5995H15.5321Z" fill="url(#paint0_radial_4166_88591)"/>
</g>
<path fill-rule="evenodd" clip-rule="evenodd" d="M10.0813 9.77819V9.77706C10.0194 9.78156 9.70051 9.80069 8.98895 9.80069C8.42082 9.80069 8.02088 9.78381 7.88026 9.77706V9.77875C5.69326 9.68256 4.06088 9.30175 4.06088 8.84613C4.06088 8.39106 5.69326 8.01025 7.88026 7.91238V9.39962C8.02313 9.40975 8.43263 9.43394 8.99851 9.43394C9.67744 9.43394 10.0178 9.40581 10.0813 9.40019V7.9135C12.2638 8.01081 13.8923 8.39162 13.8923 8.84613C13.8923 9.30175 12.2638 9.68144 10.0813 9.77819ZM10.0813 7.75881V6.42794H13.1267V4.39844H4.83488V6.42794H7.88026V7.75825C5.40526 7.87188 3.54395 8.36237 3.54395 8.94963C3.54395 9.53687 5.40526 10.0268 7.88026 10.141V14.4059H10.0813V10.1399C12.5524 10.0262 14.4092 9.53631 14.4092 8.94963C14.4092 8.36294 12.5524 7.873 10.0813 7.75881Z" fill="#E6E6E6"/>
</g>
<defs>
<radialGradient id="paint0_radial_4166_88591" cx="0" cy="0" r="1" gradientUnits="userSpaceOnUse" gradientTransform="translate(16.8871 5.09886) rotate(108.838) scale(9.20484 22.2888)">
<stop offset="0.139194" stop-color="white" stop-opacity="0"/>
<stop offset="0.620501" stop-color="white" stop-opacity="0.536145"/>
<stop offset="1" stop-color="white"/>
</radialGradient>
<clipPath id="clip0_4166_88591">
<rect width="18" height="18" fill="white"/>
</clipPath>
<clipPath id="clip1_4166_88591">
<rect width="14.7273" height="16.2736" fill="white" transform="translate(1 1)"/>
</clipPath>
</defs>
</svg>
