<svg width="18" height="18" viewBox="0 0 18 18" fill="none" xmlns="http://www.w3.org/2000/svg">
<g clip-path="url(#clip0_4166_88590)">
<path d="M8.98932 18C13.9644 18 17.9786 13.9717 17.9786 9.0106C18 4.02827 13.9644 0 8.98932 0C4.03559 0 0 4.02827 0 8.9894C0 13.9717 4.03559 18 8.98932 18Z" fill="#C5C6BF"/>
<path d="M0 16.3625V8.31295C0.872727 8.53434 2.81455 8.04728 3.6 4.32783C4.38545 0.608389 7.85455 -0.100077 9.49091 0.0106212V8.31295H18V16.3625H9.49091V8.31295C7.92 8.31295 6.87273 10.7483 6.54545 11.966C5.49818 16.2168 1.875 16.4418 0 16.3625Z" fill="#B6B7B1"/>
<path d="M10.4201 3.60352H9.43785H7.25991C6.91827 3.60352 6.59799 3.85793 6.55529 4.21836L6.34176 5.66005V5.68125H5.27415C4.99657 5.68125 4.76169 5.91447 4.76169 6.19009C4.76169 6.48691 4.99657 6.69892 5.27415 6.72012H6.17094L6.02148 7.71659V7.8014H4.95386C4.67628 7.8014 4.44141 8.03461 4.44141 8.31023C4.44141 8.58585 4.67628 8.81906 4.95386 8.81906H5.85066L5.35956 11.9145L5.21009 12.9533L5.12468 13.5046C5.06062 13.9498 5.38091 14.3314 5.82931 14.3314H6.51258H7.45208H8.22077C8.5624 14.3314 8.86134 14.077 8.92539 13.7166L9.37379 10.8756H9.63002H10.4841C12.4912 10.8756 14.1354 9.22189 14.0927 7.20776C14.0713 5.15122 12.4058 3.60352 10.4201 3.60352ZM7.21721 6.67772L10.4201 6.69892C10.6976 6.69892 10.9539 6.93214 10.9539 7.22896C10.9539 7.52578 10.719 7.75899 10.4201 7.75899H7.04639L7.21721 6.67772ZM10.4414 9.77313H9.9076H9.65137H9.11756C8.77593 9.77313 8.47699 10.0275 8.41294 10.388L7.96454 13.229H6.1923L6.87557 8.77666H10.4201C11.2741 8.77666 11.9788 8.07701 11.9788 7.22896C11.9788 6.3809 11.2741 5.68125 10.4201 5.68125L7.38803 5.66005L7.53749 4.64238H10.4841C11.9361 4.64238 13.0891 5.82966 13.0677 7.27136C13.025 8.67065 11.8507 9.77313 10.4414 9.77313Z" fill="#010304"/>
</g>
<defs>
<clipPath id="clip0_4166_88590">
<rect width="18" height="18" rx="9" fill="white"/>
</clipPath>
</defs>
</svg>
