<svg width="18" height="18" viewBox="0 0 18 18" fill="none" xmlns="http://www.w3.org/2000/svg">
<g clip-path="url(#clip0_4166_88588)">
<path d="M9 18C13.9706 18 18 13.9706 18 9C18 4.02944 13.9706 0 9 0C4.02944 0 0 4.02944 0 9C0 13.9706 4.02944 18 9 18Z" fill="#C5C6BF"/>
<path d="M0 16.3625V8.31295C0.872727 8.53434 2.81455 8.04728 3.6 4.32783C4.38545 0.608389 7.85455 -0.100077 9.49091 0.0106212V8.31295H18V16.3625H9.49091V8.31295C7.92 8.31295 6.87273 10.7483 6.54545 11.966C5.49818 16.2168 1.875 16.4418 0 16.3625Z" fill="#B6B7B1"/>
<g clip-path="url(#clip1_4166_88588)">
<path d="M13.4537 11.3937L11.9679 12.9632C11.9356 12.9973 11.8966 13.0244 11.8531 13.043C11.8097 13.0616 11.7629 13.0712 11.7155 13.0712H4.67248C4.63888 13.0712 4.606 13.0615 4.5779 13.0433C4.5498 13.0252 4.52769 12.9993 4.51429 12.969C4.5009 12.9386 4.4968 12.9051 4.5025 12.8724C4.5082 12.8398 4.52345 12.8095 4.54637 12.7853L6.03322 11.2159C6.06543 11.1819 6.10438 11.1547 6.14766 11.1362C6.19095 11.1176 6.23764 11.108 6.28486 11.1079H13.3275C13.3611 11.1079 13.394 11.1176 13.4221 11.1357C13.4502 11.1539 13.4723 11.1797 13.4857 11.2101C13.4991 11.2404 13.5032 11.274 13.4975 11.3066C13.4918 11.3392 13.4766 11.3695 13.4537 11.3937ZM11.9679 8.23321C11.9356 8.19911 11.8966 8.17193 11.8531 8.15335C11.8097 8.13479 11.7629 8.12521 11.7155 8.12524H4.67248C4.63888 8.12524 4.606 8.1349 4.5779 8.15306C4.5498 8.17121 4.52769 8.19705 4.51429 8.22741C4.5009 8.25777 4.4968 8.29132 4.5025 8.32394C4.5082 8.35656 4.52345 8.38683 4.54637 8.41104L6.03322 9.98052C6.06543 10.0145 6.10438 10.0416 6.14766 10.0602C6.19095 10.0788 6.23764 10.0884 6.28486 10.0885H13.3275C13.3611 10.0885 13.394 10.0788 13.4221 10.0607C13.4502 10.0425 13.4723 10.0167 13.4857 9.98632C13.4991 9.95596 13.5032 9.92241 13.4975 9.88978C13.4918 9.85717 13.4766 9.8269 13.4537 9.80269L11.9679 8.23321ZM4.67248 7.10585H11.7155C11.7629 7.10586 11.8097 7.0963 11.8531 7.07772C11.8966 7.05914 11.9356 7.03196 11.9679 6.99786L13.4537 5.42838C13.4766 5.40418 13.4918 5.37391 13.4975 5.34129C13.5032 5.30867 13.4991 5.27511 13.4857 5.24476C13.4723 5.2144 13.4502 5.18855 13.4221 5.1704C13.394 5.15225 13.3611 5.14258 13.3275 5.14258H6.28486C6.23764 5.14266 6.19095 5.15228 6.14766 5.17086C6.10438 5.18943 6.06543 5.21656 6.03322 5.25056L4.54676 6.82004C4.52385 6.84421 4.50861 6.87446 4.5029 6.90704C4.49719 6.93963 4.50125 6.97315 4.5146 7.0035C4.52795 7.03384 4.55 7.05968 4.57804 7.07786C4.60609 7.09604 4.63891 7.10576 4.67248 7.10585Z" fill="#010304"/>
</g>
</g>
<defs>
<clipPath id="clip0_4166_88588">
<rect width="18" height="18" rx="9" fill="white"/>
</clipPath>
<clipPath id="clip1_4166_88588">
<rect width="9" height="7.92857" fill="white" transform="translate(4.5 5.14258)"/>
</clipPath>
</defs>
</svg>
